<?xml version="1.0" encoding="UTF-8"?>
<svg width="105px" height="80px" viewBox="0 0 105 80" version="1.1" xmlns="http://www.w3.org/2000/svg" xmlns:xlink="http://www.w3.org/1999/xlink">
    <!-- Generator: Sketch 55 (78076) - https://sketchapp.com -->
    <title>code</title>
    <desc>Created with Sketch.</desc>
    <defs>
        <linearGradient x1="80.4148351%" y1="89.75635%" x2="19.7162153%" y2="10.3083903%" id="linearGradient-1">
            <stop stop-color="#F8C44D" stop-opacity="0" offset="0%"></stop>
            <stop stop-color="#F8C44D" stop-opacity="0.06" offset="5%"></stop>
            <stop stop-color="#F8C44D" stop-opacity="0.39" offset="32%"></stop>
            <stop stop-color="#F8C44D" stop-opacity="0.65" offset="56%"></stop>
            <stop stop-color="#F8C44D" stop-opacity="0.84" offset="76%"></stop>
            <stop stop-color="#F8C44D" stop-opacity="0.96" offset="91%"></stop>
            <stop stop-color="#F8C44D" offset="100%"></stop>
        </linearGradient>
        <linearGradient x1="0.0466253554%" y1="49.9559627%" x2="99.999731%" y2="49.9559627%" id="linearGradient-2">
            <stop stop-color="#2045AB" offset="0%"></stop>
            <stop stop-color="#254BAD" offset="100%"></stop>
        </linearGradient>
    </defs>
    <g id="code" stroke="none" stroke-width="1" fill="none" fill-rule="evenodd">
        <g id="development-biru-copy" transform="translate(4.000000, 0.000000)" fill-rule="nonzero">
            <circle id="Oval" fill="url(#linearGradient-1)" transform="translate(28.676798, 29.317479) rotate(-2.800000) translate(-28.676798, -29.317479) " cx="28.6767978" cy="29.3174789" r="27.03"></circle>
            <path d="M69.23,37.74 L74.85,37.74 C75.4022847,37.74 75.85,37.2922847 75.85,36.74 C75.85,36.1877153 75.4022847,35.74 74.85,35.74 L69.23,35.74 C68.6777153,35.74 68.23,36.1877153 68.23,36.74 C68.23,37.2922847 68.6777153,37.74 69.23,37.74 Z M65.57,36.74 C65.57,36.1877153 65.1222847,35.74 64.57,35.74 L49.49,35.74 C48.9377153,35.74 48.49,36.1877153 48.49,36.74 C48.49,37.2922847 48.9377153,37.74 49.49,37.74 L64.57,37.74 C65.1222847,37.74 65.57,37.2922847 65.57,36.74 L65.57,36.74 Z M67.45,58.74 L59,58.74 C58.4477153,58.74 58,59.1877153 58,59.74 C58,60.2922847 58.4477153,60.74 59,60.74 L67.5,60.74 C68.0522847,60.74 68.5,60.2922847 68.5,59.74 C68.5,59.1877153 68.0522847,58.74 67.5,58.74 L67.45,58.74 Z M73.34,43.38 L62.34,43.38 C61.7877153,43.38 61.34,43.8277153 61.34,44.38 C61.34,44.9322847 61.7877153,45.38 62.34,45.38 L73.34,45.38 C73.8922847,45.38 74.34,44.9322847 74.34,44.38 C74.34,43.8277153 73.8922847,43.38 73.34,43.38 Z M53.05,58.77 L31.4,58.77 C30.8477153,58.77 30.4,59.2177153 30.4,59.77 C30.4,60.3222847 30.8477153,60.77 31.4,60.77 L53.05,60.77 C53.6022847,60.77 54.05,60.3222847 54.05,59.77 C54.05,59.2177153 53.6022847,58.77 53.05,58.77 Z M96.15,74.07 C96.3383355,73.2961236 96.0073863,72.4889305 95.33,72.07 L84.33,65.3 L84.33,60.77 L93.33,60.77 C93.8822847,60.77 94.33,60.3222847 94.33,59.77 C94.33,59.2177153 93.8822847,58.77 93.33,58.77 L84.33,58.77 L84.33,53.09 L87.6,53.09 C88.1522847,53.09 88.6,52.6422847 88.6,52.09 C88.6,51.5377153 88.1522847,51.09 87.6,51.09 L84.32,51.09 L84.32,37.74 L93.32,37.74 C93.8722847,37.74 94.32,37.2922847 94.32,36.74 C94.32,36.1877153 93.8722847,35.74 93.32,35.74 L84.32,35.74 L84.32,31.25 C84.336698,29.3136472 82.7862304,27.727434 80.85,27.7 L46,27.7 L46,25.53 C45.967756,24.134647 44.8356361,23.0157942 43.44,23 L13,23 C11.5773823,23.0054822 10.4254822,24.1573823 10.42,25.58 L10.42,43.72 C10.4254822,45.1426177 11.5773823,46.2945178 13,46.3 L23.66,46.3 C23.6327933,46.3877255 23.6160111,46.4783494 23.61,46.57 L23.61,65.28 L12.61,72.05 C12.0001895,72.4283793 11.6678344,73.12828 11.76,73.84 C11.7552136,73.8999045 11.7552136,73.9600955 11.76,74.02 L11.76,76.22 C11.737756,78.1547155 13.2853512,79.742566 15.22,79.77 L92.74,79.77 C93.6709291,79.7594516 94.5595324,79.3794939 95.2102966,78.7137265 C95.8610608,78.0479591 96.2206693,77.1509277 96.21,76.22 L96.21,74.38 C96.2054406,74.2742681 96.1852205,74.1697975 96.15,74.07 Z M45.37,45.41 L57.17,45.41 C57.7222847,45.41 58.17,44.9622847 58.17,44.41 C58.17,43.8577153 57.7222847,43.41 57.17,43.41 L46,43.41 L46,29.7 L80.85,29.7 C81.2505237,29.7104693 81.6304667,29.8796893 81.9061748,30.170402 C82.1818829,30.4611146 82.3307503,30.8494838 82.32,31.25 L82.32,35.74 L79.42,35.74 C78.8677153,35.74 78.42,36.1877153 78.42,36.74 C78.42,37.2922847 78.8677153,37.74 79.42,37.74 L82.32,37.74 L82.32,51.09 L74.16,51.09 C73.6077153,51.09 73.16,51.5377153 73.16,52.09 C73.16,52.6422847 73.6077153,53.09 74.16,53.09 L82.32,53.09 L82.32,58.77 L72.52,58.77 C71.9677153,58.77 71.52,59.2177153 71.52,59.77 C71.52,60.3222847 71.9677153,60.77 72.52,60.77 L82.32,60.77 L82.3205443,64.84 L25.61,64.84 L25.61,46.57 C25.6054323,46.4772519 25.5851437,46.3859534 25.55,46.3 L43.44,46.3 C44.1819047,46.2970146 44.8860252,45.9723165 45.37,45.41 L45.37,45.41 Z M13,44.3 C12.6796748,44.3 12.42,44.0403252 12.42,43.72 L12.42,25.53 C12.446013,25.2293479 12.6982268,24.9988767 13,25 L43.4,25 C43.7203252,25 43.98,25.2596748 43.98,25.58 L43.98,43.72 C43.98,44.0403252 43.7203252,44.3 43.4,44.3 L13,44.3 Z M24.89,66.84 L83,66.84 L93.8,73.49 L14.08,73.49 L24.89,66.84 Z M94.21,76.22 C94.2207503,76.6205162 94.0718829,77.0088854 93.7961748,77.299598 C93.5204667,77.5903107 93.1405237,77.7595307 92.74,77.77 L15.18,77.77 C14.7803417,77.7595655 14.4013852,77.5900175 14.127263,77.2989974 C13.8531409,77.0079773 13.7065373,76.6195678 13.72,76.22 L13.72,75.49 L94.2105443,75.49 L94.21,76.22 Z M34.2,29.6 C33.9499141,29.3427688 33.5815939,29.2384966 33.2337822,29.3264617 C32.8859705,29.4144268 32.611508,29.6812653 32.5137822,30.0264617 C32.4160564,30.3716581 32.5099141,30.7427688 32.76,31 L36.43,34.79 L32.76,38.58 C32.3678778,38.977645 32.372355,39.6178778 32.77,40.01 C33.167645,40.4021222 33.8078778,40.397645 34.2,40 L38.54,35.51 C38.9146537,35.1224034 38.9146537,34.5075966 38.54,34.12 L34.2,29.6 Z M29.45,29.35 C29.199462,29.2568192 28.9220468,29.2678222 28.6796758,29.3805529 C28.4373047,29.4932836 28.250155,29.6983574 28.16,29.95 L24.89,38.95 C24.7024619,39.4691367 24.9710135,40.0420467 25.49,40.23 C25.5989975,40.2695611 25.7140452,40.2898636 25.83,40.29 C26.2510301,40.2898209 26.6268498,40.0259474 26.77,39.63 L30.04,30.63 C30.2285312,30.1136942 29.9650215,29.542012 29.45,29.35 L29.45,29.35 Z M22.9,29.57 C22.7122334,29.3806873 22.4566375,29.2742017 22.19,29.2742017 C21.9233625,29.2742017 21.6677666,29.3806873 21.48,29.57 L17.15,34.05 C16.7753463,34.4375966 16.7753463,35.0524034 17.15,35.44 L21.48,40 C21.8638379,40.397645 22.497355,40.4088379 22.895,40.025 C23.292645,39.6411621 23.3038379,39.007645 22.92,38.61 L19.26,34.82 L22.92,31 C23.1098064,30.8091815 23.2146815,30.5499085 23.2109176,30.2807914 C23.2071538,30.0116743 23.0950687,29.7554357 22.9,29.57 L22.9,29.57 Z M36.15,52.09 C36.15,52.6422847 36.5977153,53.09 37.15,53.09 L68.68,53.09 C69.2322847,53.09 69.68,52.6422847 69.68,52.09 C69.68,51.5377153 69.2322847,51.09 68.68,51.09 L37.15,51.09 C36.5977153,51.09 36.15,51.5377153 36.15,52.09 Z" id="Shape" fill="url(#linearGradient-2)"></path>
        </g>
    </g>
</svg>