<?xml version="1.0" encoding="UTF-8"?>
<svg width="437px" height="437px" viewBox="0 0 437 437" version="1.1" xmlns="http://www.w3.org/2000/svg" xmlns:xlink="http://www.w3.org/1999/xlink">
    <!-- Generator: Sketch 55 (78076) - https://sketchapp.com -->
    <title>Artboard 4 copy 4</title>
    <desc>Created with Sketch.</desc>
    <defs>
        <linearGradient x1="14.6463479%" y1="85.3526205%" x2="85.3555668%" y2="14.6434016%" id="linearGradient-1">
            <stop stop-color="#F4F8FF" offset="0%"></stop>
            <stop stop-color="#FFFCF6" offset="29%"></stop>
            <stop stop-color="#FCE6B3" offset="53%"></stop>
            <stop stop-color="#FAD37A" offset="80%"></stop>
            <stop stop-color="#F8C44D" offset="100%"></stop>
        </linearGradient>
    </defs>
    <g id="Page-1" stroke="none" stroke-width="1" fill="none" fill-rule="evenodd">
        <g id="service-details" transform="translate(-823.000000, -1693.000000)">
            <g id="Artboard-4-copy-4" transform="translate(733.000000, 1603.000000)">
                <g id="Layer_5" fill="url(#linearGradient-1)" fill-rule="nonzero">
                    <circle id="Oval" transform="translate(308.632053, 308.455461) rotate(-45.000000) translate(-308.632053, -308.455461) " cx="308.632053" cy="308.455461" r="218.061"></circle>
                </g>
                <g id="Layer_4" transform="translate(105.300000, 124.200000)">
                    <path d="M349.956,207.126 L201.753,207.126 C198.457517,207.126 195.786,204.454483 195.786,201.159 L195.786,210.699 C195.786,213.994483 198.457517,216.666 201.753,216.666 L349.956,216.666 C353.251483,216.666 355.923,213.994483 355.923,210.699 L355.923,201.159 C355.923,202.741547 355.294336,204.259277 354.175306,205.378306 C353.056277,206.497336 351.538547,207.126 349.956,207.126 L349.956,207.126 Z" id="Path" fill="#00267C" fill-rule="nonzero"></path>
                    <rect id="Rectangle" fill="#F8C44D" fill-rule="nonzero" x="280.773" y="235.8" width="98.262" height="47.907" rx="4.437"></rect>
                    <path d="M349.956,0.495 L201.753,0.495 C198.457517,0.495 195.786,3.1665169 195.786,6.462 L195.786,16.2 L355.923,16.2 L355.923,6.462 C355.923,3.1665169 353.251483,0.495 349.956,0.495 L349.956,0.495 Z" id="Path" fill="#FFFFFF" fill-rule="nonzero"></path>
                    <path d="M165.762,96.786 C147.401602,105.818451 127.603665,111.572036 107.262,113.787 L106.686,118.035 L113.319,132.912 L110.412,134.154 L97.074,131.328 L91.566,126.297 L87.066,116.397 C87.066,116.397 73.854,122.094 65.745,131.499 C57.636,140.904 61.686,155.7 62.694,166.5 C63.702,177.3 65.394,204.057 64.35,209.7 C63.306,215.343 59.391,222.651 70.137,224.406 C80.883,226.161 99.774,229.347 113.274,219.438 C126.774,209.529 133.074,201.438 134.334,196.38 L133.2,183.393 C133.2,183.393 157.887,168.399 164.988,163.125 C172.089,157.851 190.89,143.388 190.89,143.388 L191.601,141.894 C191.601,141.894 191.772,131.868 183.177,128.394 L129.555,152.172 L128.889,145.8 L162.576,131.094 L177.111,118.647 L166.716,114.579 L163.593,109.728 L165.762,96.786 Z" id="Path" fill="#F8C44D" fill-rule="nonzero"></path>
                    <path d="M97.092,181.503 C97.092,181.503 89.433,183.429 82.143,181.503 C74.853,179.577 70.092,178.308 69.615,184.131 C69.138,189.954 67.815,203.301 64.35,209.727 C64.35,209.727 64.206,184.221 63.936,179.883 C63.666,175.545 61.839,161.397 61.839,161.397 C61.839,161.397 78.939,177.336 97.092,181.503" id="Path" fill="#00267C" fill-rule="nonzero"></path>
                    <path d="M126.225,131.166 C126.225,131.166 143.325,132.624 150.957,131.166 C158.589,129.708 164.601,124.956 169.137,125.766 C167.812127,127.259177 166.210649,128.481679 164.421,129.366 C161.1,131.166 128.871,145.809 128.871,145.809 L126.225,131.166 Z" id="Path" fill="#00267C" fill-rule="nonzero"></path>
                    <path d="M166.095,309.168 C166.095,309.168 160.893,324.135 163.719,326.268 C166.545,328.401 199.719,328.968 201.681,326.439 C203.643,323.91 201.168,320.508 194.157,317.079 C190.032727,315.11888 186.554246,312.021346 184.131,308.151 C184.131,308.151 177.3,312.012 166.095,309.168 Z" id="Path" fill="#00267C" fill-rule="nonzero"></path>
                    <path d="M36.117,306.684 C36.117,306.684 32.517,317.412 37.062,326.052 C37.062,326.052 22.221,329.598 15.768,330.921 C9.315,332.244 2.799,334.224 1.728,332.379 C0.602545988,330.591391 0.602545988,328.316609 1.728,326.529 C2.898,324.837 10.53,317.862 16.713,311.859 C22.896,305.856 23.913,303.066 29.493,305.118 C35.073,307.17 36.117,306.684 36.117,306.684 Z" id="Path" fill="#00267C" fill-rule="nonzero"></path>
                    <path d="M180.234,198.216 C166.14,192.042 139.626,195.894 134.559,195.894 C134.559,195.894 120.672,229.878 80.559,226.152 C78.831,237.852 79.92,261.918 102.33,301.005 C102.33,301.005 102.591,305.316 97.074,304.452 C93.474,303.885 62.253,305.181 36.153,306.558 C33.5224718,312.863586 33.852667,320.015613 37.053,326.052 C37.053,326.052 107.757,329.409 121.779,326.052 C135.801,322.695 135.504,300.753 133.416,288.549 C131.328,276.345 125.028,249.642 125.028,249.642 C125.028,249.642 148.032,246.942 153.099,243.486 C153.099,243.486 160.902,283.716 164.142,308.376 C164.142,308.376 175.716,312.957 184.968,307.773 C184.977,307.8 196.434,205.326 180.234,198.216 Z" id="Path" fill="#FFFFFF" fill-rule="nonzero"></path>
                    <path d="M124.92,229.59 C124.92,229.59 127.341,236.223 131.877,238.743 C136.413,241.263 149.481,239.913 152.397,243.9 C152.397,243.9 129.213,249.543 125.037,249.642 L121.248,231.498 L124.92,229.59 Z" id="Path" fill="#00267C" fill-rule="nonzero"></path>
                    <path d="M89.856,93.6 C88.227,91.143 90.063,86.922 92.916,87.552 C95.769,88.182 97.578,92.835 98.577,92.124 C100.467,90.774 96.777,88.02 98.856,85.617 C100.935,83.214 105.462,86.076 109.503,83.259 C109.602,83.196 109.674,83.124 109.764,83.061 L112.401,79.65 C112.401,79.65 118.206,64.584 95.985,66.735 C83.088,67.977 75.204,79.335 78.462,90.234 C81.432,100.188 86.031,98.334 89.865,108.801 C93.6,104.319 91.485,96.021 89.856,93.6 Z" id="Path" fill="#00267C" fill-rule="nonzero"></path>
                    <path d="M112.59,72.558 C111.339,68.958 107.307,65.61 95.985,66.708 C83.088,67.95 75.204,79.308 78.462,90.207 C80.073,95.607 82.161,97.533 84.348,99.828 C81.783,92.52 80.145,81.612 87.876,75.42 C99.99,65.7 107.1,71.586 112.59,72.558 Z" id="Path" fill="#FFFFFF" fill-rule="nonzero"></path>
                    <path d="M127.368,154.053 C127.368,154.053 120.681,158.805 116.037,157.977 C111.393,157.149 114.822,154.377 106.488,150.453 C98.154,146.529 95.769,141.75 95.769,141.75 C95.769,141.75 124.281,154.8 127.368,154.053 Z" id="Path" fill="#00267C" fill-rule="nonzero"></path>
                    <path d="M109.17,106.596 C105.780188,107.554859 102.258178,107.962063 98.739,107.802 C92.439,107.613 101.844,111.186 102.915,114.426 C103.878,117.351 106.047,118.773 107.622,121.131 C107.793,121.383 107.955,121.653 108.108,121.932 C109.674,124.812 106.839,119.043 106.704,118.035 C106.569,117.027 107.037,108.774 107.037,108.774 L109.17,106.596 Z" id="Path" fill="#00267C" fill-rule="nonzero"></path>
                    <path d="M204.858,105.75 C203.92107,105.751612 203.040434,105.302922 202.491,104.544 L191.025,88.632 C190.520037,87.937747 190.347755,87.0558011 190.554331,86.222554 C190.760907,85.3893068 191.325215,84.6899738 192.096,84.312 L209.808,75.6 C211.254434,74.8867244 213.005224,75.4810664 213.7185,76.9275001 C214.431776,78.3739338 213.837434,80.1247242 212.391,80.838 L197.775,88.038 L207.216,101.142 C207.858089,102.0289 207.949227,103.200747 207.451983,104.176256 C206.954739,105.151765 205.952928,105.766506 204.858,105.768 L204.858,105.75 Z" id="Path" fill="#00267C" fill-rule="nonzero"></path>
                    <path d="M237.006,113.967 C235.646449,113.973492 234.462822,113.039587 234.152867,111.715824 C233.842913,110.392061 234.488893,109.02976 235.71,108.432 L250.2,101.295 L240.669,88.083 C239.724593,86.775742 240.018742,84.950407 241.326,84.0060002 C242.633258,83.0615933 244.458593,83.3557421 245.403,84.663 L256.95,100.683 C257.448016,101.380346 257.615187,102.261004 257.407354,103.092338 C257.19952,103.923672 256.637588,104.622055 255.87,105.003 L238.275,113.661 C237.881561,113.860322 237.447044,113.965099 237.006,113.967 L237.006,113.967 Z" id="Path" fill="#00267C" fill-rule="nonzero"></path>
                    <path d="M214.956,108.675 C213.825812,108.669616 212.799854,108.013599 212.320751,106.989971 C211.841647,105.966343 211.995136,104.758292 212.715,103.887 L230.805,82.215 C231.472193,81.4111524 232.517553,81.0243101 233.547302,81.2001928 C234.577052,81.3760755 235.434747,82.0879625 235.797302,83.0676928 C236.159858,84.0474231 235.972194,85.1461524 235.305,85.95 L217.224,107.622 C216.664491,108.29578 215.831771,108.6824 214.956,108.675 L214.956,108.675 Z" id="Path" fill="#00267C" fill-rule="nonzero"></path>
                    <path d="M279.792,73.215 L273.924,71.757 C277.101144,73.218739 278.790208,76.7328981 277.947,80.127 L264.951,132.228 C263.977064,136.125785 260.030003,138.498049 256.131,137.529 L202.851,124.2 L182.763,119.25 L167.22,115.38 C167.618506,115.557447 168.030887,115.70193 168.453,115.812 L189.918,121.212 L210.006,126.153 L263.277,139.5 C265.150768,139.968088 267.133742,139.672529 268.789563,138.678362 C270.445384,137.684194 271.63837,136.072882 272.106,134.199 L285.102,82.098 C285.586127,80.2153822 285.297345,78.2173418 284.299969,76.5488491 C283.302592,74.8803563 281.679442,73.6799627 279.792,73.215 Z" id="Path" fill="#FFFFFF" fill-rule="nonzero"></path>
                    <rect id="Rectangle" fill="#F8C44D" fill-rule="nonzero" x="214.02" y="27.486" width="126.405" height="20.961" rx="2.016"></rect>
                    <rect id="Rectangle" fill="#F8C44D" fill-rule="nonzero" x="213.03" y="150.921" width="76.05" height="35.919" rx="1.908"></rect>
                    <rect id="Rectangle" fill="#FFFFFF" fill-rule="nonzero" x="298.107" y="150.921" width="42.318" height="21.735" rx="1.908"></rect>
                    <path d="M349.956,0.495 L201.753,0.495 C198.457517,0.495 195.786,3.1665169 195.786,6.462 L195.786,16.2 L355.923,16.2 L355.923,6.462 C355.923,3.1665169 353.251483,0.495 349.956,0.495 L349.956,0.495 Z" id="Path" stroke="#254BAD" stroke-width="2.25" stroke-linecap="round" stroke-linejoin="round"></path>
                    <path d="M171.306,158.4 C169.081264,158.154528 166.831313,158.276147 164.646,158.76 C162.351,159.192 159.822,159.66 157.518,159.003 C154.818,158.22 154.233,155.529 152.208,153.972 C150.183,152.415 147.906,152.649 146.52,154.71 C144.999,156.996 144.585,159.903 143.631,162.441 C142.803,164.628 141.228,167.211 138.717,167.661 C137.583,167.868 136.413,167.472 135.297,167.859 C134.292793,168.242671 133.594494,169.164426 133.497,170.235 C133.002,173.295 133.929,176.436 135.216,179.172 C135.576,179.928 135.99,180.702 136.368,181.494 L138.168,180.378 C137.221744,178.634542 136.45867,176.797736 135.891,174.897 C135.546664,173.585608 135.433972,172.22416 135.558,170.874 C135.648,170.073 135.873,169.812 136.737,169.812 C137.378363,169.852448 138.021637,169.852448 138.663,169.812 C140.667656,169.500195 142.465327,168.402158 143.658,166.761 C145.188,164.835 145.89,162.513 146.601,160.2 C147.096,158.571 148.023,153.9 150.543,155.412 C151.605,156.033 152.199,157.212 152.91,158.175 C153.543873,159.067931 154.359801,159.816376 155.304,160.371 C157.178532,161.299706 159.286723,161.650549 161.361,161.379 C163.413,161.208 166.185,160.425 168.777,160.29 L171.306,158.4 Z" id="Path" fill="#FFFFFF" fill-rule="nonzero"></path>
                    <path d="M122.22,208.872 C121.409181,208.191682 120.681181,207.418371 120.051,206.568 C119.509031,205.582513 118.83701,204.674376 118.053,203.868 C116.352,202.491 114.201,203.121 112.257,203.481 C106.983,204.453 105.318,198.495 103.662,194.742 C102.888,192.942 101.691,190.359 99.585,189.918 C97.479,189.477 95.895,191.718 94.842,193.248 C93.4598672,195.314272 92.2555475,197.49409 91.242,199.764 C90.342,201.744 89.73,203.814 88.875,205.794 C88.191,207.387 87.282,209.295 85.689,210.159 C83.889,211.14 81.9,209.97 80.064,209.637 C78.0209488,209.116803 75.9337446,210.311768 75.348,212.337 C74.583,214.551 74.214,216.936 73.665,219.204 C73.2369716,221.081895 72.6806666,222.928226 72,224.73 L74.169,225.063 C74.385,224.505 74.583,223.938 74.763,223.362 C75.339,221.499 75.78,219.582 76.221,217.683 C76.446,216.702 76.671,215.721 76.923,214.74 C77.175,213.759 77.274,212.526 77.994,211.941 C78.714,211.356 79.695,211.68 80.46,211.887 C81.4269504,212.203018 82.4169056,212.443737 83.421,212.607 C85.0047483,212.796924 86.5939391,212.298868 87.786,211.239 C90.648,208.8 91.386,204.687 92.844,201.393 C93.7688709,199.231146 94.8737576,197.150828 96.147,195.174 C96.6868014,194.19631 97.3458367,193.289381 98.109,192.474 C99.297,191.376 100.125,192.609 100.764,193.644 C102.987,197.244 103.509,201.807 107.19,204.444 C108.729028,205.527558 110.646951,205.928075 112.491,205.551 C113.489623,205.29255 114.511824,205.135752 115.542,205.083 C116.874,205.137 117.342,206.19 117.936,207.18 C119.235089,209.002622 120.82535,210.598964 122.643,211.905 C123.183,211.419 123.705,210.942 124.2,210.465 C123.507,209.952 122.85,209.43 122.22,208.872 Z" id="Path" fill="#FFFFFF" fill-rule="nonzero"></path>
                    <path d="M82.548,169.074 C81.549,170.271 80.586,171.621 78.948,171.99 C77.598,172.305 78.174,174.375 79.515,174.06 C82.458,173.385 83.475,170.532 85.707,168.885 C88.47,166.842 89.613,170.028 91.341,171.585 C92.2410361,172.374007 93.3635779,172.86453 94.554,172.989 C96.165,173.223 97.542,173.286 98.541,174.726 C99.3706063,176.048917 100.127722,177.415932 100.809,178.821 C101.709,180.441 102.546,182.052 103.419,183.672 C104.076,184.887 105.93,183.807 105.273,182.583 L102.438,177.336 C101.751128,175.868095 100.944395,174.459323 100.026,173.124 C99.0650082,171.917618 97.6482024,171.161988 96.111,171.036 C94.536,170.82 93.339,170.676 92.25,169.425 C90.558,167.481 88.974,165.213 86.022,166.284 C84.6359584,166.887628 83.4365345,167.850896 82.548,169.074 Z" id="Path" fill="#FFFFFF" fill-rule="nonzero"></path>
                    <path d="M70.758,152.685 C71.757,150.309 71.046,147.672 71.838,145.26 C72.0942683,144.096473 73.0653571,143.226842 74.25,143.1 C75.8869529,143.05792 77.5249518,143.115025 79.155,143.271 C80.334,143.325 81.702,143.55 82.755,143.001 C83.7439879,142.465565 84.3541441,141.425526 84.339,140.301 C84.456,135.909 79.524,133.101 77.373,129.852 C76.7044155,128.923681 76.3255055,127.818266 76.284,126.675 C76.284,125.073 77.058,123.588 77.526,122.094 C77.589,121.887 77.625,121.689 77.679,121.491 C76.779,122.085 75.789,122.724 74.817,123.417 C74.1416272,125.079151 74.006237,126.911641 74.43,128.655 C75.6,132.561 79.497,134.649 81.459,138.051 C81.837,138.69 82.674,140.229 81.981,140.931 C81.603,141.327 80.757,141.174 80.289,141.156 L77.724,141.048 C75.375,140.949 72.711,140.472 70.965,142.425 C69.516,144.036 69.327,146.295 69.255,148.347 C69.174,150.885 68.787,153.279 66.051,154.107 C64.4595395,154.517624 62.8068545,154.636544 61.173,154.458 C61.245,155.169 61.326,155.889 61.416,156.591 C62.7858327,156.685602 64.1618865,156.631284 65.52,156.429 C67.8023769,156.187555 69.7907287,154.766328 70.758,152.685 Z" id="Path" fill="#FFFFFF" fill-rule="nonzero"></path>
                    <path d="M131.445,110.601 C132.362291,112.464872 134.021807,113.856513 136.017,114.435 C138.132,114.948 140.31,114.435 142.452,114.75 C144.594,115.065 146.25,116.244 147.906,117.45 C150.606,119.412 155.7,122.85 158.067,118.566 C160.299,114.561 160.344,109.737 161.406,105.381 C161.69304,104.096772 162.118529,102.847466 162.675,101.655 C163.233,100.53 164.097,99.459 164.205,98.163 C164.223057,97.9714246 164.223057,97.7785754 164.205,97.587 C163.593,97.884 162.801,98.262 161.847,98.703 C161.532,99.522 160.947,100.305 160.587,101.097 C160.164158,102.060042 159.812222,103.052683 159.534,104.067 C158.427,108.108 158.355,112.446 156.753,116.361 C156.312,117.432 155.853,118.566 154.521,118.458 C153.562261,118.318109 152.642925,117.981019 151.821,117.468 C150.255,116.568 148.878,115.407 147.366,114.435 C145.845507,113.409054 144.096235,112.772393 142.272,112.581 C140.31,112.41 138.195,112.887 136.287,112.284 C134.676,111.771 133.83,110.421 133.056,109.026 L130.905,109.584 C131.058,109.935 131.256,110.286 131.445,110.601 Z" id="Path" fill="#FFFFFF" fill-rule="nonzero"></path>
                </g>
                <g id="Layer_3" transform="translate(105.300000, 124.200000)" stroke="#254BAD" stroke-linecap="round" stroke-linejoin="round" stroke-width="2.25">
                    <path d="M195.786,52.263 L195.786,6.462 C195.786,3.1665169 198.457517,0.495 201.753,0.495 L349.956,0.495 C353.251483,0.495 355.923,3.1665169 355.923,6.462 L355.923,201.159 C355.923,204.454483 353.251483,207.126 349.956,207.126 L201.753,207.126 C198.457517,207.126 195.786,204.454483 195.786,201.159 L195.786,137.97" id="Path"></path>
                    <path d="M349.956,207.126 L201.753,207.126 C198.457517,207.126 195.786,204.454483 195.786,201.159 L195.786,210.699 C195.786,213.994483 198.457517,216.666 201.753,216.666 L349.956,216.666 C353.251483,216.666 355.923,213.994483 355.923,210.699 L355.923,201.159 C355.923,202.741547 355.294336,204.259277 354.175306,205.378306 C353.056277,206.497336 351.538547,207.126 349.956,207.126 L349.956,207.126 Z" id="Path"></path>
                    <path d="M35.937,307.134 L35.937,307.134 C35.937,307.134 28.953,304.434 25.524,304.533 C22.095,304.632 13.824,316.134 8.181,319.995 C2.538,323.856 -1.296,329.571 1.566,332.253 C4.428,334.935 29.061,327.087 37.062,326.052" id="Path"></path>
                    <path d="M165.753,308.808 C165.753,308.808 161.406,323.109 163.53,326.061 C165.654,329.013 200.817,328.563 202.176,326.745 C203.535,324.927 203.544,321.525 195.138,317.547 C186.732,313.569 184.149,308.547 184.149,308.547" id="Path"></path>
                    <path d="M67.653,223.812 C67.653,223.812 62.712,239.724 69.579,255.312 C76.446,270.9 89.271,288.873 92.547,296.505 C92.547,296.505 48.393,302.94 37.062,304.776 C33.5163928,311.43441 33.5163928,319.42059 37.062,326.079 C37.062,326.079 107.766,329.436 121.788,326.079 C135.81,322.722 135.513,300.78 133.425,288.576 C131.337,276.372 125.037,249.669 125.037,249.669 C125.037,249.669 148.041,246.969 153.108,243.513 C153.108,243.513 160.911,283.743 164.151,308.403 C164.151,308.403 175.725,312.984 184.977,307.8 C184.977,307.8 196.434,205.353 180.234,198.243 C166.14,192.069 139.626,195.921 134.559,195.921 C134.559,195.894 117.738,237.078 67.653,223.812 Z" id="Path"></path>
                    <path d="M67.653,223.812 C67.653,223.812 62.154,223.947 63.351,215.388 C64.548,206.829 64.953,180.891 62.559,165.609 C60.165,150.327 53.298,131.067 87.066,116.388" id="Path"></path>
                    <path d="M61.353,158.58 C61.353,158.58 68.238,179.055 121.734,186.696 C121.734,186.696 127.548,188.856 146.574,176.13 C166.176,163.008 191.574,142.83 191.574,142.83 C191.574,142.83 192.177,130.707 183.177,128.43 C183.177,128.43 127.377,153.441 126.477,153.441 C125.577,153.441 94.815,141.453 91.8,140.4" id="Path"></path>
                    <path d="M125.037,249.642 C125.037,249.642 121.05,232.119 121.248,231.498 C121.446,230.877 127.791,229.41 128.601,225.441" id="Path"></path>
                    <path d="M87.876,116.388 C87.876,116.388 89.982,135.144 113.733,134.145 C113.733,134.145 112.527,129.366 106.839,119.745 C106.614,117.666 106.245,109.251 107.037,108.531 C107.829,107.811 115.137,107.397 116.577,103.203 C118.017,99.009 112.401,79.641 112.401,79.641 C111.769915,81.0758957 110.770005,82.3180202 109.503,83.241 C105.462,86.058 100.908,83.241 98.856,85.599 C96.804,87.957 100.467,90.756 98.577,92.106 C97.578,92.817 95.769,88.155 92.916,87.534 C90.063,86.913 88.227,91.134 89.856,93.582 C91.485,96.03 93.609,104.328 89.856,108.783 C89.865,108.774 89.019,112.887 87.876,116.388 Z" id="Path"></path>
                    <path d="M106.56,113.787 C106.56,113.787 154.413,103.887 159.003,101.07 C163.593,98.253 165.762,96.786 165.762,96.786" id="Path"></path>
                    <path d="M134.559,195.894 C135.198,196.173 134.271,191.016 133.182,184.131" id="Path"></path>
                    <path d="M129.537,152.181 C129.537,152.181 127.548,133.164 125.568,129.366" id="Path"></path>
                    <path d="M89.856,93.6 C88.227,91.143 90.063,86.922 92.916,87.552 C95.769,88.182 97.578,92.835 98.577,92.124 C100.467,90.774 96.777,88.02 98.856,85.617 C100.935,83.214 105.462,86.076 109.503,83.259 C109.602,83.196 109.674,83.124 109.764,83.061 L112.401,79.65 C112.401,79.65 118.206,64.584 95.985,66.735 C83.088,67.977 75.204,79.335 78.462,90.234 C81.432,100.188 86.031,98.334 89.865,108.801 C93.6,104.319 91.485,96.021 89.856,93.6 Z" id="Path"></path>
                    <path d="M85.068,230.877 C85.068,230.877 97.254,289.134 107.442,300.528 C117.63,311.922 107.496,308.187 107.442,310.806 C107.388,313.425 102.276,308.187 100.242,311.616 C98.208,315.045 58.788,312.912 38.34,316.341" id="Path"></path>
                    <path d="M96.966,228.393 C96.966,228.393 104.31,250.344 90.585,254.367" id="Path"></path>
                    <path d="M177.759,118.035 C177.759,118.035 170.964,124.335 165.888,128.403 C161.73,131.706 131.607,144.54 128.871,146.511" id="Path"></path>
                    <path d="M226.521,60.003 L279.792,73.215 C283.693435,74.1848774 286.0705,78.1332224 285.102,82.035 L272.106,134.1 C271.63837,135.973882 270.445384,137.585194 268.789563,138.579362 C267.133742,139.573529 265.150768,139.869088 263.277,139.401 L210.006,126.09" id="Path"></path>
                    <path d="M189.9,121.149 L168.435,115.749 C166.561118,115.28137 164.949806,114.088384 163.955638,112.432563 C162.961471,110.776742 162.665912,108.793768 163.134,106.92 L176.139,54.9 C176.60663,53.0261181 177.799616,51.4148057 179.455437,50.4206381 C181.111258,49.4264705 183.094232,49.1309115 184.968,49.599 L207.576,55.233" id="Path"></path>
                    <path d="M204.858,105.75 C203.92107,105.751612 203.040434,105.302922 202.491,104.544 L191.025,88.632 C190.520037,87.937747 190.347755,87.0558011 190.554331,86.222554 C190.760907,85.3893068 191.325215,84.6899738 192.096,84.312 L209.808,75.6 C211.254434,74.8867244 213.005224,75.4810664 213.7185,76.9275001 C214.431776,78.3739338 213.837434,80.1247242 212.391,80.838 L197.775,88.038 L207.216,101.142 C207.858089,102.0289 207.949227,103.200747 207.451983,104.176256 C206.954739,105.151765 205.952928,105.766506 204.858,105.768 L204.858,105.75 Z" id="Path"></path>
                    <path d="M237.006,113.967 C235.646449,113.973492 234.462822,113.039587 234.152867,111.715824 C233.842913,110.392061 234.488893,109.02976 235.71,108.432 L250.2,101.295 L240.669,88.083 C239.724593,86.775742 240.018742,84.950407 241.326,84.0060002 C242.633258,83.0615933 244.458593,83.3557421 245.403,84.663 L256.95,100.683 C257.448016,101.380346 257.615187,102.261004 257.407354,103.092338 C257.19952,103.923672 256.637588,104.622055 255.87,105.003 L238.275,113.661 C237.881561,113.860322 237.447044,113.965099 237.006,113.967 L237.006,113.967 Z" id="Path"></path>
                    <path d="M214.956,108.675 C213.825812,108.669616 212.799854,108.013599 212.320751,106.989971 C211.841647,105.966343 211.995136,104.758292 212.715,103.887 L230.805,82.215 C231.472193,81.4111524 232.517553,81.0243101 233.547302,81.2001928 C234.577052,81.3760755 235.434747,82.0879625 235.797302,83.0676928 C236.159858,84.0474231 235.972194,85.1461524 235.305,85.95 L217.224,107.622 C216.664491,108.29578 215.831771,108.6824 214.956,108.675 L214.956,108.675 Z" id="Path"></path>
                    <path d="M184.392,127.854 C184.392,127.854 188.226,122.454 189.918,121.149 L193.293,121.86 C193.293,121.86 198.108,120.159 199.107,118.566 C200.106,116.973 200.25,113.427 201.177,113.508 C202.104,113.589 202.797,118.701 200.556,122.364 C200.556,122.364 203.949,120.798 206.226,115.884 C208.503,110.97 208.404,117.999 207.27,120.582 C206.136,123.165 201.942,126.603 201.942,126.603 C201.942,126.603 208.179,123.336 209.52,120.771 C210.861,118.206 211.968,120.654 210.888,123.192 C209.808,125.73 205.56,129.051 203.643,130.473 C203.643,130.473 207.945,129.159 209.241,128.052 C210.537,126.945 212.571,127.278 210.402,130.194 C208.233,133.11 197.118,138.123 191.628,139.086" id="Path"></path>
                    <path d="M207.576,55.197 C207.576,55.197 210.114,52.254 217.323,53.856 C224.532,55.458 226.323,58.833 225.945,60.363 C225.567,61.893 224.289,65.268 223.11,65.052 C221.931,64.836 222.156,60.228 222.264,59.796 C222.372,59.364 218.556,65.916 217.125,65.844 C215.694,65.772 216.297,62.514 218.124,58.167 C218.124,58.167 214.227,65.88 212.112,65.844 C211.104,65.844 211.977,61.119 213.786,56.943 C213.786,56.943 209.394,63.306 208.521,62.253 C207.648,61.2 210.033,55.89 210.033,55.89 L207.576,55.197 Z" id="Path"></path>
                    <rect id="Rectangle" x="280.773" y="235.8" width="98.262" height="47.907" rx="4.437"></rect>
                    <path d="M291.735,245.7 L304.767,245.7" id="Path"></path>
                    <path d="M313.542,245.7 L328.788,245.7" id="Path"></path>
                    <path d="M291.735,254.745 L321.948,254.745" id="Path"></path>
                    <path d="M330.723,254.745 L343.098,254.745" id="Path"></path>
                    <path d="M349.812,254.745 L365.058,254.745" id="Path"></path>
                    <path d="M291.735,263.781 L300.951,263.781" id="Path"></path>
                    <path d="M309.726,263.781 L351.693,263.781" id="Path"></path>
                    <path d="M291.735,272.826 L315.27,272.826" id="Path"></path>
                    <path d="M324.045,272.826 L334.512,272.826" id="Path"></path>
                    <path d="M342.18,272.826 L348.831,272.826" id="Path"></path>
                </g>
            </g>
        </g>
    </g>
</svg>