<?xml version="1.0" encoding="UTF-8"?>
<svg width="105px" height="80px" viewBox="0 0 105 80" version="1.1" xmlns="http://www.w3.org/2000/svg" xmlns:xlink="http://www.w3.org/1999/xlink">
    <!-- Generator: Sketch 55 (78076) - https://sketchapp.com -->
    <title>graphic</title>
    <desc>Created with Sketch.</desc>
    <defs>
        <linearGradient x1="70.4187939%" y1="83.7502775%" x2="9.43007769%" y2="4.76489086%" id="linearGradient-1">
            <stop stop-color="#F8C44D" stop-opacity="0" offset="0%"></stop>
            <stop stop-color="#F8C44D" stop-opacity="0.06" offset="5%"></stop>
            <stop stop-color="#F8C44D" stop-opacity="0.39" offset="32%"></stop>
            <stop stop-color="#F8C44D" stop-opacity="0.65" offset="56%"></stop>
            <stop stop-color="#F8C44D" stop-opacity="0.84" offset="76%"></stop>
            <stop stop-color="#F8C44D" stop-opacity="0.96" offset="91%"></stop>
            <stop stop-color="#F8C44D" offset="100%"></stop>
        </linearGradient>
        <linearGradient x1="0%" y1="49.9959871%" x2="99.9861956%" y2="49.9959871%" id="linearGradient-2">
            <stop stop-color="#2045AB" offset="0%"></stop>
            <stop stop-color="#254BAD" offset="100%"></stop>
        </linearGradient>
    </defs>
    <g id="graphic" stroke="none" stroke-width="1" fill="none" fill-rule="evenodd">
        <g id="graphic-design-biru-copy" transform="translate(2.500000, 0.000000)" fill-rule="nonzero">
            <circle id="Oval" fill="url(#linearGradient-1)" transform="translate(28.746000, 29.316000) rotate(-2.862405) translate(-28.746000, -29.316000) " cx="28.746" cy="29.316" r="27.0637664"></circle>
            <path d="M99.14,33.19 C99.0809012,32.9172404 98.9105064,32.6815879 98.67,32.54 L67.14,13.79 C66.7755455,13.578854 66.3178583,13.6187105 65.9953873,13.8896758 C65.6729162,14.160641 65.5548021,14.6046175 65.7,15 L71.09,27.9 L25.25,27.9 L25.25,19 C25.25,18.533219 25.064572,18.0855561 24.7345079,17.7554921 C24.4044439,17.425428 23.956781,17.24 23.49,17.24 L20.84,17.24 C17.3281353,17.2510047 14.4854873,20.0981224 14.48,23.61 L14.48,72.93 C14.4855063,76.4402477 17.3297523,79.2844937 20.84,79.29 L78.14,79.29 C79.5278617,79.2900109 80.6544926,78.1678507 80.66,76.78 L80.66,50.87 L82.56,55.41 C82.700943,55.7482007 83.0155566,55.9822425 83.38,56.02 L83.48,56.02 C83.8126261,56.0205011 84.1237296,55.8555788 84.31,55.58 L99,34 C99.1606105,33.7625478 99.2115916,33.4675859 99.14,33.19 Z M16.48,23.57 C16.4799937,21.1604155 18.4304218,19.2055139 20.84,19.2 L23.25,19.2 L23.25,66.57 L20.84,66.57 C19.2195223,66.5710997 17.6603793,67.1897505 16.48,68.3 L16.48,23.57 Z M78.66,46.2 L78.66,76.78 C78.6600263,76.917011 78.6049238,77.0482703 78.5071064,77.1442066 C78.409289,77.2401428 78.2769846,77.2926865 78.14,77.29 L20.84,77.29 C18.4320385,77.29 16.48,75.3379615 16.48,72.93 C16.48,70.5220385 18.4320385,68.57 20.84,68.57 L23.49,68.57 C23.956781,68.57 24.4044439,68.384572 24.7345079,68.0545079 C25.064572,67.7244439 25.25,67.276781 25.25,66.81 L25.25,29.93 L71.92,29.93 L78.68,46.11 C78.6685767,46.1387416 78.6618248,46.1691254 78.66,46.2 Z M83.66,52.93 L68.66,17.05 L96.66,33.72 L83.66,52.93 Z M41.12,56.52 L41.12,59.52 C41.1090582,60.0227915 41.3032823,60.50837 41.6579493,60.8649235 C42.0126162,61.221477 42.4971575,61.4182744 43,61.41 L67.31,61.41 C68.3222965,61.4044983 69.140015,60.5823115 69.14,59.57 L69.14,44.46 C69.14,43.4493189 68.3206811,42.63 67.31,42.63 L51.26,42.63 C49.8342593,36.9846108 44.3174376,33.375992 38.5737801,34.3317924 C32.8301227,35.2875929 28.7792694,40.4883658 29.2586313,46.2912416 C29.7379932,52.0941174 34.5873584,56.5596643 40.41,56.56 C40.65,56.56 40.88,56.54 41.12,56.52 Z M51.57,44.63 L67.14,44.63 L67.14,59.41 L43.14,59.41 L43.14,56.21 C48.1227753,54.9674298 51.6221149,50.4953645 51.63,45.36 C51.61,45.11 51.59,44.87 51.57,44.63 Z M49.57,45.36 C49.5627519,49.3943434 46.933445,52.9554539 43.08,54.15 L43.08,44.63 L49.53,44.63 C49.59,44.87 49.61,45.11 49.61,45.36 L49.57,45.36 Z M31.17,45.36 C31.1466163,40.7939057 34.4757966,36.9016106 38.9903226,36.2169075 C43.5048487,35.5322044 47.8384271,38.2623144 49.17,42.63 L43,42.63 C41.9876885,42.629985 41.1655017,43.4477035 41.16,44.46 L41.16,54.52 C40.93,54.52 40.69,54.52 40.45,54.52 C35.3712213,54.536618 31.237545,50.4387312 31.21,45.36 L31.17,45.36 Z M77.88,29 L83.68,42.87 C83.8258836,43.2171532 84.1544148,43.4529227 84.53,43.48 L84.6,43.48 C84.9551111,43.4778565 85.2824477,43.2875445 85.46,42.98 L90,35.29 C90.2815765,34.8150224 90.1248931,34.201719 89.65,33.92 L79.32,27.77 C78.9473207,27.5494711 78.475045,27.5938731 78.15,27.88 C77.8323808,28.1587757 77.7242978,28.6071201 77.88,29 Z M87.77,35.11 L84.77,40.25 L80.9,31 L87.77,35.11 Z M71,69.91 C69.8221608,69.9004539 68.7047305,69.3872367 67.93,68.5 C66.7948122,67.2785468 65.2025129,66.5846022 63.535,66.5846022 C61.8674871,66.5846022 60.2751878,67.2785468 59.14,68.5 C58.3800084,69.4099049 57.2555439,69.9358042 56.07,69.9358042 C54.8844561,69.9358042 53.7599916,69.4099049 53,68.5 C51.8648122,67.2785468 50.2725129,66.5846022 48.605,66.5846022 C46.9374871,66.5846022 45.3451878,67.2785468 44.21,68.5 C43.4500084,69.4099049 42.3255439,69.9358042 41.14,69.9358042 C39.9544561,69.9358042 38.8299916,69.4099049 38.07,68.5 C36.9284282,67.2924613 35.3417169,66.6057297 33.68,66.6 C33.1277153,66.6 32.68,67.0477153 32.68,67.6 C32.68,68.1522847 33.1277153,68.6 33.68,68.6 C34.8379203,68.6248093 35.9327931,69.1323662 36.7,70 C37.8351878,71.2214532 39.4274871,71.9153978 41.095,71.9153978 C42.7625129,71.9153978 44.3548122,71.2214532 45.49,70 C46.2634632,69.1180219 47.3769454,68.6085856 48.55,68.6 C49.7289188,68.6079937 50.8487979,69.1170296 51.63,70 C52.7651878,71.2214532 54.3574871,71.9153978 56.025,71.9153978 C57.6925129,71.9153978 59.2848122,71.2214532 60.42,70 C61.1929709,69.1119193 62.3126423,68.6020778 63.49,68.6020778 C64.6673577,68.6020778 65.7870291,69.1119193 66.56,70 C67.7117717,71.2238659 69.3194059,71.9154383 71,71.91 C71.5522847,71.91 72,71.4622847 72,70.91 C72,70.3577153 71.5522847,69.91 71,69.91 Z" id="Shape" fill="url(#linearGradient-2)"></path>
        </g>
    </g>
</svg>