<?xml version="1.0" encoding="UTF-8"?>
<svg width="473px" height="437px" viewBox="0 0 473 437" version="1.1" xmlns="http://www.w3.org/2000/svg" xmlns:xlink="http://www.w3.org/1999/xlink">
    <!-- Generator: Sketch 55 (78076) - https://sketchapp.com -->
    <title>Artboard 4</title>
    <desc>Created with Sketch.</desc>
    <defs>
        <linearGradient x1="14.6463479%" y1="85.3526205%" x2="85.3555668%" y2="14.6434016%" id="linearGradient-1">
            <stop stop-color="#F4F8FF" offset="0%"></stop>
            <stop stop-color="#FFFCF6" offset="29%"></stop>
            <stop stop-color="#FCE6B3" offset="53%"></stop>
            <stop stop-color="#FAD37A" offset="80%"></stop>
            <stop stop-color="#F8C44D" offset="100%"></stop>
        </linearGradient>
    </defs>
    <g id="Page-1" stroke="none" stroke-width="1" fill="none" fill-rule="evenodd">
        <g id="service-details" transform="translate(-176.000000, -2360.000000)">
            <g id="Artboard-4" transform="translate(115.600000, 2270.000000)">
                <circle id="Oval" fill="url(#linearGradient-1)" fill-rule="nonzero" transform="translate(308.871581, 308.458933) rotate(-45.000000) translate(-308.871581, -308.458933) " cx="308.871581" cy="308.458933" r="218.061"></circle>
                <path d="M347.4,349.434 C342.910631,352.04057 337.882139,353.580218 332.703,353.934 C308.52,355.986 295.299,342.36 289.575,334.08 C287.364481,330.889169 286.853629,326.819157 288.207,323.181 C290.925198,315.512996 292.443081,307.471251 292.707,299.34 C293.517,280.872 291.06,264.6 299.556,255.375 C308.052,246.15 326.196,244.278 326.196,244.278 C328.34064,250.390257 331.90652,255.905651 336.6,260.37 C344.151,267.273 348.804,270.909 351.252,268.569 C353.7,266.229 349.551,248.238 346.41,244.269 L350.253,245.556 C355.043087,251.731766 358.735863,258.685023 361.17,266.112 C365.427,278.793 367.371,284.517 361.584,298.233 C355.797,311.949 354.384,310.266 356.436,331.857 C356.436,331.857 337.266,312.057 335.934,310.509 C334.602,308.961 330.363,293.94 330.363,293.94 C330.363,293.94 317.619,291.114 311.094,295.137 C304.569,299.16 303.138,303.561 303.138,303.561 C303.138,303.561 306.63,319.284 313.821,326.061 C321.012,332.838 347.4,349.434 347.4,349.434 Z" id="Path" fill="#F8C44D" fill-rule="nonzero"></path>
                <path d="M320.715,350.865 C320.229,347.157 319.32,340.254 314.064,338.976 C312.577676,338.709705 311.058082,338.685391 309.564,338.904 C306.963,339.138 305.325,339.192 304.47,337.833 C304.118967,337.142575 303.922417,336.384018 303.894,335.61 L302.679,324.999 C302.602286,323.845794 302.340962,322.712377 301.905,321.642 C300.411,318.393 296.928,317.664 293.562,316.962 C292.491,316.737 291.393,316.512 290.367,316.206 C290.223,316.755 290.088,317.304 289.944,317.817 C291.015,318.141 292.131,318.375 293.22,318.6 C296.325,319.248 299.25,319.851 300.42,322.335 C300.776265,323.247269 300.985859,324.210187 301.041,325.188 L302.265,335.799 C302.31024,336.82673 302.590412,337.830422 303.084,338.733 C304.551,341.037 307.305,340.794 309.744,340.533 C311.056162,340.329571 312.391838,340.329571 313.704,340.533 C317.349,341.433 318.447,346.095 319.104,351.018 C319.203,351.81 319.329,352.602 319.464,353.394 C320.031,353.493 320.607,353.583 321.192,353.655 C320.994,352.8 320.841,351.819 320.715,350.865 Z" id="Path" fill="#FFFFFF" fill-rule="nonzero"></path>
                <path d="M355.5,330.876 L356.49,331.893 C356.427,331.254 356.364,330.633 356.31,330.03 C356.010932,330.282658 355.739422,330.566235 355.5,330.876 Z" id="Path" fill="#FFFFFF" fill-rule="nonzero"></path>
                <path d="M315.252,250.794 C318.852,254.079 322.515,257.481 327.231,259.029 C327.723,259.191 328.227,259.344 328.743,259.488 C331.713,260.388 334.287,261.099 334.395,264.663 C334.403494,265.240064 334.226858,265.804666 333.891,266.274 C331.731,269.271 328.302,270.081 323.091,268.794 C322.335,268.605 321.579,268.398 320.823,268.182 C318.665138,267.480847 316.427501,267.054487 314.163,266.913 C312.777,266.913 311.823,267.372 311.463,268.29 C311.294538,268.84721 311.326378,269.445805 311.553,269.982 C312.026317,271.207056 312.629774,272.377763 313.353,273.474 C314.264016,274.740866 314.915513,276.175382 315.27,277.695 C315.639,280.098 314.442,282.366 313.173,284.769 C312.519963,285.929117 311.945668,287.13183 311.454,288.369 C310.652322,290.626008 310.372316,293.035292 310.635,295.416 L311.049,295.146 C311.436305,294.906352 311.839204,294.692876 312.255,294.507 C312.135639,292.620503 312.395767,290.729223 313.02,288.945 C313.489185,287.768372 314.0333,286.623024 314.649,285.516 C315.99,282.978 317.349,280.359 316.917,277.416 C316.531217,275.678679 315.803032,274.035674 314.775,272.583 C314.111958,271.587409 313.553972,270.525728 313.11,269.415 C313.028805,269.234466 312.994742,269.036283 313.011,268.839 C313.065,268.695 313.47,268.551 314.082,268.56 C316.207187,268.697816 318.30612,269.10611 320.328,269.775 C321.102,269.991 321.867,270.207 322.641,270.396 C324.801,270.927 331.353,272.547 335.178,267.228 C335.730851,266.465038 336.018522,265.541962 335.997,264.6 C335.853,259.812 332.136,258.732 329.148,257.868 C328.653,257.724 328.167,257.589 327.69,257.427 C323.316,255.987 319.914,252.855 316.314,249.552 C315.414,248.742 314.514,247.923 313.614,247.122 L311.814,247.77 C313.038,248.76 314.154,249.786 315.252,250.794 Z" id="Path" fill="#FFFFFF" fill-rule="nonzero"></path>
                <path d="M295.128,279.459 C296.991,282.519 297.531,285.759 296.604,288.36 C295.817591,290.263362 294.537566,291.922423 292.896,293.166 C292.896,293.895 292.896,294.624 292.851,295.362 C295.074,293.562 297.198,291.663 298.179,288.918 C299.277,285.849 298.683,282.087 296.559,278.595 C295.593437,277.062758 294.481206,275.62801 293.238,274.311 C293.184,275.094 293.139,275.877 293.103,276.687 C293.851166,277.555263 294.528345,278.482247 295.128,279.459 Z" id="Path" fill="#FFFFFF" fill-rule="nonzero"></path>
                <path d="M344.961,308.619 C343.836,308.511 342.675,308.457 341.55,308.394 C339.220055,308.343996 336.899918,308.075824 334.62,307.593 C334.89,308.331 335.142,308.97 335.367,309.474 C337.383254,309.800237 339.418507,309.995645 341.46,310.059 C342.567,310.122 343.71,310.176 344.808,310.284 C348.628966,310.635508 352.369165,311.595624 355.887,313.128 C355.986,312.552 356.094,311.994 356.22,311.454 C352.63475,309.936736 348.837262,308.980534 344.961,308.619 Z" id="Path" fill="#FFFFFF" fill-rule="nonzero"></path>
                <path d="M326.385,289.8 C325.684538,289.985565 325.039248,290.337542 324.504,290.826 C323.784676,291.449313 323.194545,292.207617 322.767,293.058 C323.406,293.058 324.036,293.121 324.63,293.166 C324.919041,292.759586 325.254285,292.388099 325.629,292.059 C325.967095,291.750561 326.374631,291.528269 326.817,291.411 C331.155,290.232 334.584,292.932 337.617,295.317 L344.952,301.095 C346.803932,302.583817 349.500846,302.345504 351.063,300.555 C353.779547,297.429636 354.410134,293.001437 352.674,289.242 L352.521,288.954 C352.219374,288.516704 352.053449,288.000147 352.044,287.469 C352.231489,286.982903 352.57701,286.573984 353.025,286.308 C354.377822,285.280283 355.849401,284.419092 357.408,283.743 C359.417868,282.88171 360.529539,280.711303 360.054,278.577 C359.231102,274.966674 358.781737,271.281281 358.713,267.579 C358.640054,266.863231 358.774387,266.141578 359.1,265.5 C359.481764,264.993967 360.06882,264.683949 360.702,264.654 C360.51,264.114 360.312,263.583 360.108,263.061 C359.121115,263.218587 358.244148,263.779324 357.687,264.609 C357.195658,265.517037 356.988699,266.551834 357.093,267.579 C357.159599,271.396379 357.621057,275.196619 358.47,278.919 C358.782399,280.272912 358.070751,281.654347 356.787,282.186 C355.106709,282.913815 353.520268,283.841505 352.062,284.949 C351.267742,285.45214 350.69246,286.236323 350.451,287.145 C350.366023,288.04496 350.59151,288.946907 351.09,289.701 L351.225,289.971 C352.66865,293.124443 352.125957,296.831672 349.839,299.439 C348.860877,300.55006 347.179434,300.689186 346.032,299.754 L338.688,293.976 C335.475,291.501 331.524,288.387 326.385,289.8 Z" id="Path" fill="#FFFFFF" fill-rule="nonzero"></path>
                <path d="M395.1,359.703 C390.96,358.443 390.285,359.361 384.3,356.706 C378.315,354.051 337.275,312.525 335.997,310.545 C334.719,308.565 330.426,293.976 330.426,293.976 L317.556,293.976 C319.527,300.384 323.856,313.191 326.259,315.468 C330.21,319.293 372.618,356.067 379.125,358.452 C385.632,360.837 387.783,358.974 397.647,365.652 C399.519,366.552 407.934,372.249 408.267,370.053 C408.375,369.081 397.989,360.594 395.1,359.703 Z" id="Path" fill="#FFFFFF" fill-rule="nonzero"></path>
                <path d="M351.747,390.501 L358.155,393.984 L358.434,393.795 C356.31,392.805 353.952,391.671 351.747,390.501 Z" id="Path" fill="#FFFFFF" fill-rule="nonzero"></path>
                <path d="M344.385,386.505 L349.902,389.502 C347.076,387.918 344.754,386.37 343.98,385.2 C341.442,381.411 337.464,368.55 337.464,368.55 L340.407,366.444 C350.445712,374.058692 361.796756,379.766245 373.896,383.283 L388.179,373.581 L384.75,370.557 L380.457,369.846 L346.77,349.038 C336.15,355.842 325.773,354.897 312.219,351.621 C305.334,349.956 299.223,344.691 294.876,339.921 C291.996,344.295 291.204,352.584 297.45,366.453 C307.701,389.196 323.334,424.719 305.478,405.297 C305.478,405.297 281.628,372.69 279.018,359.658 C278.743024,358.237971 278.616343,356.793214 278.64,355.347 L278.64,355.347 L270,348.3 L256.113,337.032 L251.991,334.926 L247.059,336.348 L243.72,339.354 L241.2,343.8 L240.525,350.1 L250.47,365.544 L260.37,379.989 L273.222,396.585 L290.97,415.305 L304.794,426.105 L317.457,432.495 L330.687,434.547 L341.487,430.857 L330.363,412.857 L348.066,400.833 L344.385,386.505 Z" id="Path" fill="#FFFFFF" fill-rule="nonzero"></path>
                <path d="M512.172,289.314 L402.012,364.176 L402.012,364.176 C405.279,366.723 408.312,369.495 408.258,370.026 C407.97,371.898 401.85,368.046 398.871,366.309 L398.583,366.498 C400.959,368.739 406.917,374.598 405.909,375.858 C404.586,377.523 398.358,371.052 395.217,368.784 L395.055,368.901 C396.99,370.827 402.453,376.461 400.95,377.55 C400.05,378.18 394.074,373.626 391.302,371.448 L391.185,371.529 C393.201,373.464 396.747,377.127 395.442,377.829 C394.326,378.387 391.302,375.714 388.377,373.491 L386.496,374.76 L330.417,412.866 C330.417,412.866 343.143,421.515 349.209,452.655 C355.275,483.795 338.013,495.351 338.013,495.351 L521.1,370.8 C524.200351,368.081153 526.64626,364.696876 528.255,360.9 C543.024,327.6 512.172,289.314 512.172,289.314 Z" id="Path" fill="#F8C44D" fill-rule="nonzero"></path>
                <path d="M528.219,360.9 C528.669,359.892 529.119,358.884 529.443,357.867 L350.415,467.181 C349.731,487.44 337.977,495.333 337.977,495.333 L521.1,370.8 C524.187293,368.077344 526.620682,364.693365 528.219,360.9 Z" id="Path" fill="#FFFFFF" fill-rule="nonzero"></path>
                <path d="M330.381,293.976 C330.381,293.976 334.674,308.556 335.952,310.545 C337.23,312.534 378.252,354.06 384.255,356.706 C390.258,359.352 390.924,358.443 395.055,359.703 C397.98,360.603 408.366,369.081 408.213,370.053 C407.88,372.249 399.465,366.534 397.593,365.652 C397.593,365.652 407.115,374.301 405.864,375.885 C404.415,377.685 397.053,369.738 394.353,368.28 C394.353,368.28 402.723,376.263 400.905,377.577 C399.753,378.405 389.853,370.377 389.853,370.377 C389.853,370.377 397.197,376.929 395.397,377.829 C393.597,378.729 386.721,371.124 383.463,370.71 C381.191027,370.280862 379.040633,369.359264 377.163,368.01 C372.447,364.752 318.969,332.91 312.3,324.432 C306.603,317.169 303.381,304.281 303.381,304.281" id="Path" stroke="#254BAD" stroke-width="2.25" stroke-linecap="round" stroke-linejoin="round"></path>
                <path d="M241.713,323.352 C237.069,323.451 235.926,325.917 231.57,325.917 C227.214,325.917 217.953,319.995 212.94,325.017 C207.927,330.039 240.633,347.13 240.633,347.13 C240.887321,340.832476 245.685773,335.656103 251.946,334.926 C249.984,330.03 246.852,323.253 241.713,323.352 Z" id="Path" fill="#00267C" fill-rule="nonzero"></path>
                <path d="M231.57,325.917 C227.205,325.917 217.953,319.995 212.94,325.017 L212.94,325.017 C212.673017,325.311381 212.542348,325.704585 212.580026,326.100212 C212.617705,326.495838 212.820248,326.857308 213.138,327.096 C216.999,330.075 225.675,331.128 230.526,331.137 C238.239,331.137 244.287,325.575 241.668,323.361 C237.06,323.469 235.908,325.917 231.57,325.917 Z" id="Path" fill="#FFFFFF" fill-rule="nonzero"></path>
                <path d="M251.946,334.917 C251.946,334.917 246.357,323.262 241.713,323.352 C237.069,323.442 235.926,325.917 231.57,325.917 C227.214,325.917 217.953,319.995 212.94,325.017 C207.927,330.039 240.633,347.13 240.633,347.13" id="Path" stroke="#254BAD" stroke-width="2.25" stroke-linecap="round" stroke-linejoin="round"></path>
                <path d="M402.012,364.176 L512.172,289.314 C512.172,289.314 543.024,327.6 528.219,360.9 C526.620682,364.693365 524.187293,368.077344 521.1,370.8 L337.977,495.333" id="Path" stroke="#254BAD" stroke-width="2.25" stroke-linecap="round" stroke-linejoin="round"></path>
                <path d="M123.381,259.65 L225.288,190.404" id="Path" stroke="#254BAD" stroke-width="2.25" stroke-linecap="round" stroke-linejoin="round"></path>
                <path d="M143.523,353.772 C132.246,340.398 121.752,327.735 112.923,316.989" id="Path" stroke="#254BAD" stroke-width="2.25" stroke-linecap="round" stroke-linejoin="round"></path>
                <path d="M334.62,483.732 C309.996,501.732 285.012,484.569 255.312,471.303 L255.312,471.303 C296.712,502.803 334.404,511.461 346.428,484.434 C353.7,468.081 349.947,450.504 344.241,436.86 C323.334,449.829 347.697,474.165 334.62,483.732 Z" id="Path" fill="#00267C" fill-rule="nonzero"></path>
                <path d="M388.179,373.581 L330.381,412.848 C330.381,412.848 361.224,451.17 346.428,484.434 C331.632,517.698 277.947,496.917 226.377,446.022 C208.494,428.373 180.828,397.71 159.345,372.807" id="Path" stroke="#254BAD" stroke-width="2.25" stroke-linecap="round" stroke-linejoin="round"></path>
                <path d="M369.306,281.097 C383.166,296.613 396.594,311.058 408.177,322.497 C415.742219,330.007364 423.694021,337.118023 432,343.8" id="Path" stroke="#254BAD" stroke-width="2.25" stroke-linecap="round" stroke-linejoin="round"></path>
                <path d="M260.892,250.812 L238.077,215.019 C237.099591,213.392592 235.134649,212.648295 233.325,213.219 L63.423,284.895 C61.848,285.552 61.425,287.424 62.469,289.071 L85.284,324.9 C86.2569227,326.53177 88.2261597,327.277693 90.036,326.7 L212.706,274.968 L213.12,274.788 C221.184,265.464 229.242,256.137 237.294,246.807 C239.994,243.648 244.422,242.946 247.194,245.223 L247.194,245.223 C249.993,247.509 250.2,251.946 247.662,255.267 L242.1,262.521 L242.1,262.521 L259.956,254.997 C261.513,254.331 261.9,252.459 260.892,250.812 Z" id="Path" fill="#F8C44D" fill-rule="nonzero"></path>
                <path d="M64.206,290.637 L234.108,218.988" id="Path" fill="#00267C" fill-rule="nonzero"></path>
                <path d="M74.367,280.26 L79.695,288.63" id="Path" stroke="#254BAD" stroke-width="2.25" stroke-linecap="round" stroke-linejoin="round"></path>
                <path d="M92.538,272.601 L100.719,285.435" id="Path" stroke="#254BAD" stroke-width="2.25" stroke-linecap="round" stroke-linejoin="round"></path>
                <path d="M110.718,264.933 L116.046,273.303" id="Path" stroke="#254BAD" stroke-width="2.25" stroke-linecap="round" stroke-linejoin="round"></path>
                <path d="M128.889,257.274 L137.07,270.108" id="Path" stroke="#254BAD" stroke-width="2.25" stroke-linecap="round" stroke-linejoin="round"></path>
                <path d="M147.069,249.606 L152.397,257.976" id="Path" stroke="#254BAD" stroke-width="2.25" stroke-linecap="round" stroke-linejoin="round"></path>
                <path d="M165.24,241.947 L173.421,254.781" id="Path" stroke="#254BAD" stroke-width="2.25" stroke-linecap="round" stroke-linejoin="round"></path>
                <path d="M183.42,234.279 L188.748,242.649" id="Path" stroke="#254BAD" stroke-width="2.25" stroke-linecap="round" stroke-linejoin="round"></path>
                <path d="M201.591,226.62 L209.772,239.454" id="Path" stroke="#254BAD" stroke-width="2.25" stroke-linecap="round" stroke-linejoin="round"></path>
                <path d="M219.771,218.961 L225.099,227.322" id="Path" stroke="#254BAD" stroke-width="2.25" stroke-linecap="round" stroke-linejoin="round"></path>
                <path d="M212.706,274.914 L90,326.646 C88.1901597,327.223693 86.2209227,326.47777 85.248,324.846 L62.469,289.071 C61.425,287.433 61.848,285.552 63.423,284.895 L233.325,213.237 C235.134649,212.666295 237.099591,213.410592 238.077,215.037 L260.892,250.83 C261.936,252.477 261.513,254.349 259.938,255.015 L242.1,262.521" id="Path" stroke="#254BAD" stroke-width="2.25" stroke-linecap="round" stroke-linejoin="round"></path>
                <path d="M247.689,255.213 C250.047,252.135 250.038,248.094 247.779,245.7 C245.50334,250.752489 242.511606,255.450754 238.896,259.65 C231.777,268.254 183.735,325.98 158.67,356.094 C162.594,360.108 162.477,365.643 162.441,366.453 L247.689,255.213 Z" id="Path" fill="#FFFFFF" fill-rule="nonzero"></path>
                <path d="M145.674,352.8 C145.674,352.8 135.162,356.715 131.913,365.067 C128.664,373.419 133.938,384.732 121.824,399.222 C121.824,399.222 149.778,396.684 162.441,366.444 C162.441,365.985 162.927,359.145 157.356,354.897 C153.983256,352.458471 149.684308,351.68678 145.674,352.8 Z" id="Path" fill="#00267C" fill-rule="nonzero"></path>
                <path d="M149.733,385.326 C149.85,377.658 142.983,383.769 141.219,381.564 C139.455,379.359 150.219,373.41 148.284,368.802 C146.349,364.194 144.306,375.831 134.604,376.902 C132.606,377.127 131.31,376.56 130.491,375.525 C130.185,382.194 129.465,390.06 121.824,399.195 C132.34911,397.606453 142.110542,392.755641 149.733,385.326 L149.733,385.326 Z" id="Path" fill="#F8C44D" fill-rule="nonzero"></path>
                <path d="M145.674,352.8 C145.674,352.8 135.162,356.715 131.913,365.067 C128.664,373.419 133.938,384.732 121.824,399.222 C121.824,399.222 149.778,396.684 162.441,366.444" id="Path" stroke="#254BAD" stroke-width="2.25" stroke-linecap="round" stroke-linejoin="round"></path>
                <path d="M162.441,366.453 C162.441,365.553 162.63,358.911 157.356,354.906 C152.469,351.207 146.628,352.566 145.656,352.809 L237.276,246.753 C239.976,243.594 244.404,242.892 247.176,245.169 L247.176,245.169 C249.975,247.455 250.182,251.892 247.644,255.213 L162.441,366.453 Z" id="Path" stroke="#254BAD" stroke-width="2.25" stroke-linecap="round" stroke-linejoin="round"></path>
                <path d="M344.385,386.505 C348.749931,389.391768 353.357227,391.894162 358.155,393.984" id="Path" stroke="#254BAD" stroke-width="2.25" stroke-linecap="round" stroke-linejoin="round"></path>
                <path d="M464.715,154.233 C464.715,154.233 451.863,156.933 455.139,146.79" id="Path" fill="#FFFFFF" fill-rule="nonzero"></path>
                <path d="M464.715,154.233 C464.715,154.233 451.863,156.933 455.139,146.79 C458.289,137.052 427.761,132.57 407.844,150.849 C387.927,169.128 395.145,191.493 434.259,188.442 C473.373,185.391 486.414,151.056 464.715,154.233 Z" id="Path" fill="#F8C44D" fill-rule="nonzero"></path>
                <path d="M421.551,150.849 C428.520154,144.534956 437.176018,140.38527 446.463,138.906 C436.5,136.953 420.147,139.554 407.844,150.849 C387.927,169.137 395.145,191.493 434.259,188.442 L434.511,188.442 C407.457,185.823 404.19,166.797 421.551,150.849 Z" id="Path" fill="#00267C" fill-rule="nonzero"></path>
                <path d="M424.287,188.505 C424.287,188.505 414.486,240.75 407.052,250.443 C401.832,257.256 389.817,259.578 389.817,259.578 L388.467,272.646 C388.467,272.646 403.533,264.24 407.763,260.703 C411.993,257.166 419.868,241.47 423.837,221.85 C427.806,202.23 429.192,188.505 429.192,188.505 L424.287,188.505 Z" id="Path" fill="#FFFFFF" fill-rule="nonzero"></path>
                <path d="M464.715,154.233 C464.715,154.233 451.863,156.933 455.139,146.79 C458.289,137.052 427.761,132.57 407.844,150.849 C387.927,169.128 395.145,191.493 434.259,188.442 C473.373,185.391 486.414,151.056 464.715,154.233 Z" id="Path" stroke="#254BAD" stroke-width="2.25" stroke-linecap="round" stroke-linejoin="round"></path>
                <path d="M351.27,268.569 C342.414,264.717 333.27,253.134 330.381,245.376 C329.481,242.901 332.352,232.884 333.081,229.059 C331.83,233.262 326.25,244.305 326.25,244.305 C329.796,255.996 346.977,272.295 351.27,268.569 Z" id="Path" fill="#FFFFFF" fill-rule="nonzero"></path>
                <path d="M353.7,236.52 C353.7,236.52 348.903,237.96 342.189,234.207 C335.475,230.454 343.386,238.599 343.701,241.074 C343.759451,241.725402 344.079921,242.325143 344.588965,242.735771 C345.098008,243.1464 345.75198,243.332709 346.401,243.252 L347.868,237.429" id="Path" fill="#00267C" fill-rule="nonzero"></path>
                <path d="M359.424,211.203 C359.424,211.203 362.124,232.434 357.3,235.989 C353.808,238.554 347.895,237.429 347.895,237.429 L346.428,243.252 C346.428,243.252 355.563,264.852 351.27,268.569 C346.977,272.286 329.796,255.969 326.214,244.269 C326.214,244.269 333.459,229.923 333.297,227.709 C333.135,225.495 330.21,222.552 331.371,219.294 C332.532,216.036 336.465,218.439 337.815,220.806 C339.165,223.173 338.922,221.472 340.272,219.15 C341.622,216.828 341.469,213.426 344.97,213.165 C348.471,212.904 351.72,215.46 359.424,211.203 Z" id="Path" stroke="#254BAD" stroke-width="2.25" stroke-linecap="round" stroke-linejoin="round"></path>
                <path d="M334.017,187.29 C307.71,187.569 300.168,183.033 284.958,170.424 C269.748,157.815 259.65,154.143 256.221,158.787 C252.792,163.431 221.967,150.831 211.779,166.293 C201.591,181.755 238.158,194.742 250.479,211.689 C262.8,228.636 267.768,237.447 291.816,235.8 C315.864,234.153 328.149,240.363 328.149,240.363 C330.282,235.944 333.396,229.212 333.288,227.763 C333.117,225.549 330.201,222.606 331.362,219.348 C332.523,216.09 336.456,218.493 337.806,220.86 C339.156,223.227 338.913,221.526 340.263,219.204 C341.613,216.882 341.46,213.48 344.961,213.219 C348.462,212.958 351.711,215.478 359.415,211.221 C359.415,211.221 359.937,215.307 360.117,220.221 L360.189,220.221 C360.189,220.221 362.826,218.151 362.889,209.655 C362.952,201.159 360.315,187.002 334.017,187.29 Z" id="Path" fill="#00267C" fill-rule="nonzero"></path>
                <path d="M231.552,166.923 C240.734096,166.16576 249.854346,168.980174 257.013,174.78 C269.109,184.545 275.373,185.148 274.716,187.128 C274.059,189.108 260.676,183.339 254.214,178.308 C247.752,173.277 222.966,167.4 231.552,166.923 Z" id="Path" fill="#FFFFFF" fill-rule="nonzero"></path>
                <path d="M351.396,194.103 C355.977,195.435 359.451,199.332 362.475,204.327 C361.098,196.299 355.383,187.056 334.017,187.29 C307.71,187.569 300.168,183.033 284.958,170.424 C269.748,157.815 259.65,154.143 256.221,158.787 C255.114,160.281 251.136,159.984 245.925,159.408 C249.138,160.74 258.318,162.018 261.468,163.503 C269.244,167.166 272.07,168.948 279.468,173.403 C282.656746,175.300019 285.652922,177.503445 288.414,179.982 C308.925,198.612 330.039,187.902 351.396,194.103 Z" id="Path" fill="#FFFFFF" fill-rule="nonzero"></path>
                <path d="M334.017,187.29 C307.71,187.569 300.168,183.033 284.958,170.424 C269.748,157.815 259.65,154.143 256.221,158.787 C252.792,163.431 221.967,150.831 211.779,166.293 C201.591,181.755 238.158,194.742 250.479,211.689 C262.8,228.636 267.768,237.447 291.816,235.8 C315.864,234.153 328.149,240.363 328.149,240.363 C330.282,235.944 333.396,229.212 333.288,227.763 C333.117,225.549 330.201,222.606 331.362,219.348 C332.523,216.09 336.456,218.493 337.806,220.86 C339.156,223.227 338.913,221.526 340.263,219.204 C341.613,216.882 341.46,213.48 344.961,213.219 C348.462,212.958 351.711,215.478 359.415,211.221 C359.415,211.221 359.937,215.307 360.117,220.221 L360.189,220.221 C360.189,220.221 362.826,218.151 362.889,209.655 C362.952,201.159 360.315,187.002 334.017,187.29 Z" id="Path" stroke="#254BAD" stroke-width="2.25" stroke-linecap="round" stroke-linejoin="round"></path>
                <path d="M364.221,275.931 C360.621,262.917 353.97,245.187 346.428,243.252 C357.885504,242.550078 369.273209,240.979568 380.493,238.554 C381.830769,238.237507 383.22135,238.809673 383.949,239.976 C386.577,244.287 392.049,255.528 389.016,271.233 C388.731252,272.692253 387.708787,273.898763 386.316,274.419 C381.303,276.291 369.162,280.89 365.319,282.942" id="Path" fill="#F8C44D" fill-rule="nonzero"></path>
                <path d="M386.1,253.917 C386.55,253.593 387,253.26 387.459,252.891 C387.888249,252.539723 388.288541,252.15448 388.656,251.739 C388.485,251.046 388.314,250.38 388.125,249.732 C387.630946,250.42694 387.050259,251.056018 386.397,251.604 C386.001,251.937 385.569,252.243 385.128,252.567 C384.192644,253.171198 383.344718,253.901019 382.608,254.736 C381.393,256.221 380.88,258.633 382.302,260.136 L382.59,260.433 C382.71551,260.532532 382.824811,260.650941 382.914,260.784 C382.94126,260.837741 382.94126,260.901259 382.914,260.955 C382.577617,261.401973 382.097807,261.719727 381.555,261.855 C378.295668,262.81585 374.893476,263.199625 371.502,262.989 C370.790838,262.868846 370.060134,263.006053 369.441,263.376 C368.325,264.168 368.478,265.671 368.541,266.31 L369.972,280.8 L371.583,280.134 L370.224,266.157 C370.224,265.869 370.107,264.978 370.431,264.744 C370.750737,264.628024 371.095755,264.60005 371.43,264.663 C375.012009,264.881903 378.604901,264.479986 382.05,263.475 C383.059259,263.220027 383.924558,262.571864 384.453,261.675 C384.680536,261.190379 384.680536,260.629621 384.453,260.145 C384.28581,259.798402 384.046462,259.491546 383.751,259.245 L383.535,259.038 C382.788,258.219 383.148,256.707 383.913,255.771 C384.557906,255.060143 385.293162,254.43684 386.1,253.917 L386.1,253.917 Z" id="Path" fill="#FFFFFF" fill-rule="nonzero"></path>
                <path d="M371.871,248.715 C374.904,247.725 376.173,244.395 377.181,241.722 L377.226,241.605 C377.55,240.705 377.91,239.886 378.288,239.04 L376.29,239.454 C376.074,239.967 375.867,240.489 375.669,241.011 L375.624,241.128 C374.724,243.594 373.626,246.384 371.358,247.122 C368.793,247.959 366.147,245.772 363.816,243.846 L363.186,243.324 C362.556,242.811 361.899,242.325 361.233,241.866 L358.632,242.172 C359.852504,242.904273 361.019442,243.722333 362.124,244.62 L362.754,245.133 C365.283,247.221 368.442,249.831 371.871,248.715 Z" id="Path" fill="#FFFFFF" fill-rule="nonzero"></path>
                <path d="M348.84,243.099 C347.301,243.207 346.428,243.252 346.428,243.252 C353.97,245.187 360.648,262.917 364.221,275.931 L365.31,282.942 C366.812773,282.123983 368.370517,281.41127 369.972,280.809 C365.211,257.4 355.275,246.195 348.84,243.099 Z" id="Path" fill="#00267C" fill-rule="nonzero"></path>
                <path d="M361.602,298.269 C361.602,298.269 359.163,304.326 351.27,304.461 C343.377,304.596 336.87,304.326 337.977,306.729 C339.084,309.132 349.119,309.6 349.722,312.444 C350.325,315.288 356.337,314.856 356.337,314.856 C356.337,314.856 355.896,308.124 361.602,298.269 Z" id="Path" fill="#00267C" fill-rule="nonzero"></path>
                <path d="M355.797,330.75 C355.68,322.929 355.941,311.31 358.236,305.703 C361.836,296.802 367.785,288.945 364.221,275.931 C360.657,262.917 353.97,245.187 346.428,243.252 C357.885504,242.550078 369.273209,240.979568 380.493,238.554 C381.830769,238.237507 383.22135,238.809673 383.949,239.976 C386.577,244.287 392.049,255.528 389.016,271.233 C388.731252,272.692253 387.708787,273.898763 386.316,274.419 C381.303,276.291 369.162,280.89 365.319,282.942" id="Path" stroke="#254BAD" stroke-width="2.25" stroke-linecap="round" stroke-linejoin="round"></path>
                <path d="M347.4,349.434 C342.910631,352.04057 337.882139,353.580218 332.703,353.934 C308.52,355.986 295.299,342.36 289.575,334.08 C287.364481,330.889169 286.853629,326.819157 288.207,323.181 C290.925198,315.512996 292.443081,307.471251 292.707,299.34 C293.517,280.872 291.06,264.6 299.556,255.375 C308.052,246.15 326.196,244.278 326.196,244.278" id="Path" stroke="#254BAD" stroke-width="2.25" stroke-linecap="round" stroke-linejoin="round"></path>
                <path d="M270.9,349.038 C268.701714,356.548816 270.479032,364.662071 275.616,370.566 C284.355,380.727 273.024,382.041 284.832,390.249 C296.64,398.457 303.39,402.345 303.39,402.345 C303.39,402.345 280.26,371.97 278.658,356.832 L278.658,356.832 C278.658,356.832 274.644,349.83 270.9,349.038" id="Path" fill="#00267C" fill-rule="nonzero"></path>
                <path d="M305.478,405.297 C305.478,405.297 281.628,372.69 279.018,359.658 C276.408,346.626 287.82,330.3 287.82,330.3" id="Path" stroke="#254BAD" stroke-width="2.25" stroke-linecap="round" stroke-linejoin="round"></path>
                <path d="M341.505,430.848 C324.207,442.773 288.576,428.922 241.398,351.135 C240.674092,349.930425 240.402887,348.507395 240.633,347.121 C241.2,343.602 243.135,337.149 249.705,335.133 C251.570675,334.561186 253.598782,334.963427 255.105,336.204 L278.685,355.347" id="Path" stroke="#254BAD" stroke-width="2.25" stroke-linecap="round" stroke-linejoin="round"></path>
                <path d="M341.622,365.571 L337.5,368.55 C337.5,368.55 345.123,384.651 348.12,400.824" id="Path" stroke="#254BAD" stroke-width="2.25" stroke-linecap="round" stroke-linejoin="round"></path>
                <path d="M322.56,263.7 L330.381,293.967 C330.381,293.967 318.447,290.988 310.581,295.461 C301.401,300.672 302.058,309.42 302.058,309.42 C302.058,309.42 292.959,287.982 294.201,267.426" id="Path" stroke="#254BAD" stroke-width="2.25" stroke-linecap="round" stroke-linejoin="round"></path>
                <path d="M383.949,239.976 C383.949,239.976 393.903,236.691 395.703,235.134 C399.06,232.245 415.566,187.668 415.566,187.668" id="Path" stroke="#254BAD" stroke-width="2.25" stroke-linecap="round" stroke-linejoin="round"></path>
                <path d="M389.016,271.233 C389.016,271.233 403.416,264.753 408.906,259.38 C422.406,246.15 429.948,188.685 429.948,188.685" id="Path" stroke="#254BAD" stroke-width="2.25" stroke-linecap="round" stroke-linejoin="round"></path>
                <path d="M263.43,195.201 C263.43,195.201 274.941,198.306 281.295,201.888 C287.649,205.47 288.594,209.088 286.893,208.494 C285.192,207.9 283.005,203.094 276.993,202.32 C270.981,201.546 257.454,195.165 263.43,195.201 Z" id="Path" fill="#FFFFFF" fill-rule="nonzero"></path>
                <path d="M64.206,290.637 L234.108,218.988 C235.91784,218.410307 237.887077,219.15623 238.86,220.788 L260.46,254.7 C261.614624,253.730361 261.797386,252.021938 260.874,250.83 L238.059,215.037 C237.081591,213.410592 235.116649,212.666295 233.307,213.237 L63.423,284.895 C61.848,285.552 61.425,287.424 62.469,289.071 L63.666,290.952 C63.8331959,290.826445 64.0144103,290.720737 64.206,290.637 Z" id="Path" fill="#00267C" fill-rule="nonzero"></path>
                <ellipse id="Oval" fill="#FFFFFF" fill-rule="nonzero" cx="454.536" cy="166.842" rx="5.571" ry="4.284"></ellipse>
                <ellipse id="Oval" fill="#FFFFFF" fill-rule="nonzero" cx="420.768" cy="172.026" rx="5.571" ry="4.284"></ellipse>
                <ellipse id="Oval" fill="#FFFFFF" fill-rule="nonzero" cx="437.445" cy="174.6" rx="4.527" ry="3.474"></ellipse>
                <ellipse id="Oval" fill="#FFFFFF" fill-rule="nonzero" cx="433.107" cy="153.846" rx="6.219" ry="4.779"></ellipse>
                <path d="M293.31,343.494 C293.31,343.494 289.44,346.968 299.808,371.7 C310.176,396.432 316.314,411.579 313.443,418.608 C312.948,419.841 302.949,417.123 288.306,401.508 C274.626,386.91 246.006,349.029 246.006,349.029" id="Path" stroke="#254BAD" stroke-width="2.25" stroke-linecap="round" stroke-linejoin="round"></path>
                <path d="M296.685,363.744 C296.685,363.744 304.785,368.667 304.605,351.351" id="Path" stroke="#254BAD" stroke-width="2.25" stroke-linecap="round" stroke-linejoin="round"></path>
            </g>
        </g>
    </g>
</svg>