<?xml version="1.0" encoding="UTF-8"?>
<svg width="437px" height="437px" viewBox="0 0 437 437" version="1.1" xmlns="http://www.w3.org/2000/svg" xmlns:xlink="http://www.w3.org/1999/xlink">
    <!-- Generator: Sketch 55 (78076) - https://sketchapp.com -->
    <title>Artboard 4 copy 2</title>
    <desc>Created with Sketch.</desc>
    <defs>
        <linearGradient x1="14.6463479%" y1="85.3526205%" x2="85.3555668%" y2="14.6434016%" id="linearGradient-1">
            <stop stop-color="#F4F8FF" offset="0%"></stop>
            <stop stop-color="#FFFCF6" offset="29%"></stop>
            <stop stop-color="#FCE6B3" offset="53%"></stop>
            <stop stop-color="#FAD37A" offset="80%"></stop>
            <stop stop-color="#F8C44D" offset="100%"></stop>
        </linearGradient>
    </defs>
    <g id="Page-1" stroke="none" stroke-width="1" fill="none" fill-rule="evenodd">
        <g id="service-details" transform="translate(-208.000000, -3658.000000)">
            <g id="Artboard-4-copy-2" transform="translate(117.000000, 3568.000000)">
                <g id="Layer_5">
                    <circle id="Oval" fill="url(#linearGradient-1)" fill-rule="nonzero" transform="translate(309.160072, 308.458442) rotate(-45.000000) translate(-309.160072, -308.458442) " cx="309.160072" cy="308.458442" r="218.061"></circle>
                    <path d="M173.025,444.015 C173.025,444.015 161.1,455.787 161.1,464.895 C161.163623,466.969311 162.87687,468.610506 164.952,468.585 L201.411,468.585 C201.411,468.585 204.804,455.769 187.569,455.769" id="Path" fill="#00267C" fill-rule="nonzero"></path>
                    <path d="M207,345.969 C210.392806,346.494074 213.728562,347.337806 216.963,348.489 C219.794434,349.539612 221.548909,352.380897 221.22,355.383 C220.32,363.708 217.764,381.195 212.337,388.944 C212.337,388.944 202.932,389.079 204.237,364.572" id="Path" fill="#00267C" fill-rule="nonzero"></path>
                    <path d="M256.761,303.993 C256.761,303.993 238.761,314.703 218.385,311.922 C204.75,310.068 188.055,296.622 178.488,287.964 L178.488,287.964 C178.488,287.964 129.6,308.7 116.496,321.768 C103.392,334.836 118.8,350.388 137.349,355.968 C169.749,362.682 203.166,366.444 203.166,366.444 C203.166,366.444 209.7,356.499 207,345.969 L186.192,337.428 L217.647,331.308 C217.647,331.308 252.351,373.302 251.766,378.711 C251.235,383.616 197.055,429.714 175.563,448.326 C177.714,450.981 181.332,453.843 187.434,455.724 C188.889074,456.166029 190.465339,455.938493 191.736,455.103 C204.705,446.697 277.92,398.691 283.851,382.608 C290.322,364.95 256.761,303.993 256.761,303.993 Z" id="Path" fill="#FFFFFF" fill-rule="nonzero"></path>
                    <path d="M236.7,188.523 C236.7,188.523 219.96,188.838 206.298,195.57 C192.636,202.302 194.4,220.392 190.656,236.025 C186.912,251.658 178.911,271.557 178.488,272.133 C178.065,272.709 170.658,275.733 170.991,278.64 C171.324,281.547 173.934,287.64 194.391,300.447 C214.848,313.254 224.937,312.777 228.591,313.254 C232.245,313.731 249.651,308.439 256.752,303.993 L259.659,287.667 C259.659,287.667 248.121,295.335 241.236,294.867 C234.351,294.399 223.326,283.374 223.326,283.374 C223.326,283.374 235.161,262.8 247.5,255.366 C247.5,255.366 249.507,259.866 252.162,260.829 C254.817,261.792 281.106,251.577 281.106,251.577 C281.106,251.577 285.255,213.777 281.664,204.084 C278.073,194.391 265.833,191.367 265.833,191.367 L260.865,189.657 L258.093,195.957 C258.093,195.957 259.983,205.119 259.38,207.576 C258.777,210.033 256.365,216.189 250.524,213.228 C244.683,210.267 235.764,197.631 236.241,193.554 C236.718,189.477 236.7,188.523 236.7,188.523 Z" id="Path" fill="#F8C44D" fill-rule="nonzero"></path>
                    <path d="M244.872,245.844 C244.872,245.844 229.401,252.873 221.796,264.069 C214.191,275.265 216.099,281.016 216.099,281.016 L208.8,269.883 C208.8,269.883 219.177,252.9 242.388,242.1 L244.872,245.844 Z" id="Path" fill="#FFFFFF" fill-rule="nonzero"></path>
                    <path d="M239.139,164.277 L241.983,182.502 L245.835,175.95 L245.835,167.247 L247.833,164.682 L252.252,166.959 L253.395,171.522 L256.527,169.533 L257.103,165.825 L258.201,161.118 L259.83,158.805 L269.046,162.855 L275.643,163.395 L279.9,163.395 L279.9,166.095 L284.508,164.34 L288.018,159.741 L287.595,151.272 L282.195,145.71 L273.789,143.712 C273.789,143.712 266.589,140.427 265.419,140.427 C264.249,140.427 256.815,144.855 256.815,144.855 L249.543,144.99 L244.143,148.986 L242.001,155.115 L238.815,158.553 L239.139,164.277 Z" id="Path" fill="#00267C" fill-rule="nonzero"></path>
                    <path d="M263.7,189 C263.7,189 255.87,186.759 251.379,183.807 C246.888,180.855 253.332,188.181 253.557,191.322 C253.782,194.463 254.646,199.611 258.903,201.069 L258.192,194.625 L261.099,190.557" id="Path" fill="#00267C" fill-rule="nonzero"></path>
                    <path d="M426.267,316.8 L470.799,458.919 C471.170615,460.102917 471.055877,461.386044 470.480105,462.485246 C469.904333,463.584447 468.914851,464.409375 467.73,464.778 C467.279578,464.924285 466.80857,464.997216 466.335,464.994 C464.278049,465.009613 462.452044,463.680281 461.835,461.718 L421.335,332.352" id="Path" fill="#F8C44D" fill-rule="nonzero"></path>
                    <path d="M470.799,458.874 L426.267,316.8 L423.9,324.252 L466.083,458.874 C466.715852,460.942314 465.848879,463.174861 463.986,464.274 C464.700338,464.69597 465.514343,464.919666 466.344,464.922 C466.81757,464.925216 467.288578,464.852285 467.739,464.706 C470.189134,463.934156 471.556194,461.328701 470.799,458.874 L470.799,458.874 Z" id="Path" fill="#FFFFFF" fill-rule="nonzero"></path>
                    <path d="M317.826,345.357 L288.657,405 L401.598,405 L395.1,345.357 L404.505,345.357 L416.916,459.765 C417.052189,460.999534 416.691094,462.237475 415.912534,463.205187 C415.133974,464.172899 414.002063,464.790689 412.767,464.922 L412.263,464.922 C409.878246,464.922138 407.876314,463.125831 407.619,460.755 L402.579,414.315 L284.076,414.315 L260.604,462.33 C259.468226,464.648768 256.667768,465.607774 254.349,464.472 C252.030232,463.336226 251.071226,460.535768 252.207,458.217 L307.413,345.357" id="Path" fill="#F8C44D" fill-rule="nonzero"></path>
                    <path d="M345.087,160.497 L342.252,169.416 L453.393,169.416 C455.198439,169.414902 456.89612,170.275041 457.963098,171.731465 C459.030075,173.187889 459.338364,175.065899 458.793,176.787 L411.867,324.9 L352.053,338.256 L290.241,338.256 C289.761926,338.255102 289.284629,338.197706 288.819,338.085 L286.506,345.402 L417.204,345.402 L475.785,160.542 L345.087,160.497 Z" id="Path" fill="#00267C" fill-rule="nonzero"></path>
                    <path d="M391.05,249.705 L353.25,249.705 C352.352106,249.77903 351.473723,249.41492 350.891527,248.727357 C350.309331,248.039795 350.094984,247.113411 350.316,246.24 L350.316,246.24 C350.877031,244.211783 352.711756,242.799045 354.816,242.775 L392.616,242.775 C393.514215,242.702025 394.392624,243.065984 394.976009,243.752844 C395.559394,244.439704 395.776387,245.365438 395.559,246.24 L395.559,246.24 C394.994407,248.269616 393.156555,249.681938 391.05,249.705 L391.05,249.705 Z" id="Path" fill="#F8C44D" fill-rule="nonzero"></path>
                    <path d="M366.012,273.024 L366.012,273.024 C360.351,273.024 349.65,264.609 351.81,254.223 L355.131,238.842 C357.102,237.249 363.6,236.961 365.562,235.359 L394.074,234.585 L389.871,254.223 C387.711,264.6 372.222,273.024 366.012,273.024 Z" id="Path" fill="#F8C44D" fill-rule="nonzero"></path>
                    <path d="M353.313,237.807 C353.313,237.807 353.313,244.233 353.709,245.421 L356.247,237.807 L353.313,237.807" id="Path" fill="#FFFFFF" fill-rule="nonzero"></path>
                    <path d="M363.51,231.3 C363.51,231.3 368.451,224.856 375.57,228.6 C382.689,232.344 385.578,229.392 385.578,229.392 C385.578,229.392 377.478,247.221 364.203,236.196" id="Path" fill="#FFFFFF" fill-rule="nonzero"></path>
                    <path d="M317.241,238.185 C319.948239,238.355854 322.551256,239.292191 324.747,240.885 L346.626,169.443 L340.884,169.443 C337.97468,169.447359 335.402017,171.332281 334.521,174.105 L314.172,238.302 L314.1,238.5 C315.119044,238.204406 316.183552,238.09765 317.241,238.185 Z" id="Path" fill="#FFFFFF" fill-rule="nonzero"></path>
                    <path d="M301.761,315.9 L319.428,258.201 C315.759275,258.999882 311.993819,259.260614 308.25,258.975 C308.002872,258.996888 307.76187,259.064003 307.539,259.173 L307.539,259.254 L284.868,330.804 C284.322636,332.525101 284.630925,334.403111 285.697902,335.859535 C286.76488,337.315959 288.462561,338.176098 290.268,338.175 L327.069,338.175001 L308.961,330.912 C303.022234,328.541842 299.891838,322.014967 301.761,315.9 Z" id="Path" fill="#FFFFFF" fill-rule="nonzero"></path>
                    <path d="M411.867,324.9 C411.867,324.9 398.61,326.619 396.522,315.315 L352.053,338.256" id="Path" fill="#FFFFFF" fill-rule="nonzero"></path>
                    <path d="M287.892,156.834 L287.613,151.281 L282.213,145.719 L273.807,143.721 C273.807,143.721 266.607,140.436 265.437,140.436 C264.267,140.436 256.833,144.864 256.833,144.864 L249.561,144.999 L244.161,148.995 L242.019,155.124 L238.833,158.562 L239.094,162.954 C239.283,162.828 239.472,162.702 239.67,162.585 C241.155,161.685 240.669,158.985 242.091,158.085 C245.385,155.844 246.915,151.326 250.641,149.922 C253.836,148.725 257.625,150.273 260.739,148.887 C262.71,147.987 264.096,146.079 266.139,145.35 C269.055,144.315 272.16,146.052 274.761,147.726 C277.587,149.526 280.458,149.526 283.302,151.326 C285.588,152.811 287.028,156.384 287.892,156.834 Z" id="Path" fill="#FFFFFF" fill-rule="nonzero"></path>
                    <path d="M207,261.567 C207,261.567 196.488,250.551 193.599,256.167 C190.71,261.783 190.728,267.579 178.488,272.142 C178.488,272.142 186.588,257.742 188.451,247.842 C190.314,237.942 191.817,228.6 191.817,228.6 L198.117,244.854 L207,261.567 Z" id="Path" fill="#00267C" fill-rule="nonzero"></path>
                    <path d="M272.322,218.925 C271.199204,230.898736 271.199204,242.951264 272.322,254.925 L265.122,257.355 L272.322,218.925 Z" id="Path" fill="#00267C" fill-rule="nonzero"></path>
                    <circle id="Oval" fill="#FFFFFF" fill-rule="nonzero" cx="190.872" cy="282.402" r="4.419"></circle>
                    <circle id="Oval" fill="#FFFFFF" fill-rule="nonzero" transform="translate(216.968236, 299.812015) rotate(-48.840000) translate(-216.968236, -299.812015) " cx="216.968236" cy="299.812015" r="3.663"></circle>
                    <circle id="Oval" fill="#FFFFFF" fill-rule="nonzero" transform="translate(208.952460, 280.597500) rotate(-89.427061) translate(-208.952460, -280.597500) " cx="208.95246" cy="280.5975" r="2.9521476"></circle>
                    <circle id="Oval" fill="#FFFFFF" fill-rule="nonzero" transform="translate(207.715209, 224.325608) rotate(-1.860000) translate(-207.715209, -224.325608) " cx="207.715209" cy="224.325608" r="3.294"></circle>
                    <circle id="Oval" fill="#FFFFFF" fill-rule="nonzero" transform="translate(227.656150, 238.578663) rotate(-0.140000) translate(-227.656150, -238.578663) " cx="227.65615" cy="238.578663" r="4.104"></circle>
                    <circle id="Oval" fill="#FFFFFF" fill-rule="nonzero" transform="translate(214.962412, 201.127715) rotate(-1.250000) translate(-214.962412, -201.127715) " cx="214.962412" cy="201.127715" r="2.781"></circle>
                    <circle id="Oval" fill="#FFFFFF" fill-rule="nonzero" transform="translate(238.437999, 218.075617) rotate(-1.860000) translate(-238.437999, -218.075617) " cx="238.437999" cy="218.075617" r="3.294"></circle>
                    <circle id="Oval" fill="#FFFFFF" fill-rule="nonzero" transform="translate(242.800837, 297.380446) rotate(-1.860000) translate(-242.800837, -297.380446) " cx="242.800837" cy="297.380446" r="3.294"></circle>
                    <circle id="Oval" fill="#FFFFFF" fill-rule="nonzero" transform="translate(257.640547, 233.079981) rotate(-5.330000) translate(-257.640547, -233.079981) " cx="257.640547" cy="233.079981" r="4.851"></circle>
                    <circle id="Oval" fill="#FFFFFF" fill-rule="nonzero" transform="translate(269.043955, 204.178629) rotate(-0.140000) translate(-269.043955, -204.178629) " cx="269.043955" cy="204.178629" r="4.104"></circle>
                    <circle id="Oval" fill="#FFFFFF" fill-rule="nonzero" transform="translate(208.165100, 241.944180) rotate(-89.270000) translate(-208.165100, -241.944180) " cx="208.1651" cy="241.94418" r="2.934"></circle>
                    <circle id="Oval" fill="#FFFFFF" fill-rule="nonzero" transform="translate(277.995991, 225.686762) rotate(-89.270000) translate(-277.995991, -225.686762) " cx="277.995991" cy="225.686762" r="2.934"></circle>
                    <path d="M235.017,266.796 C235.017,266.796 242.541,275.382 249.966,275.382 C257.391,275.382 318.366,242.622 328.464,241.182 C327.220554,241.505078 325.902656,241.374246 324.747,240.813 C323.154,239.859 314.424,237.555 310.428,239.823 C306.432,242.091 254.7,262.305 253.449,261.567 C252.198,260.829 246.573,255.753 246.573,255.753 L235.017,266.796" id="Path" fill="#FFFFFF" fill-rule="nonzero"></path>
                    <path d="M264.6,284.778 L274.419,278.1 C274.419,278.1 270.756,306.9 271.161,312.165 C271.566,317.43 271.593,321.003 272.691,322.011 C273.789,323.019 277.884,327.834 277.884,330.741 C277.884,333.648 276.984,341.586 276.984,341.586 L274.437,340.614 L266.085,322.2 L264.6,284.778" id="Path" fill="#FFFFFF" fill-rule="nonzero"></path>
                    <path d="M154.44,326.43 C154.44,326.43 169.74,322.029 178.488,326.745 C187.236,331.461 192.771,334.926 204.102,333.945 C215.433,332.964 187.803,337.851 187.803,337.851 L156.303,327.051" id="Path" fill="#00267C" fill-rule="nonzero"></path>
                    <path d="M391.257,247.275 C391.939745,244.057391 392.435576,240.802943 392.742,237.528 C392.742,237.528 378.414,241.128 374.481,233.55 C374.481,233.55 366.561,236.511 360.819,236.736 L360.819,236.736 C360.819,236.736 368.289,235.629 365.724,231.957 L365.724,231.957 C361.725309,231.114336 357.576506,231.322086 353.682,232.56 L353.682,232.56 C353.682,232.56 351.549,223.218 359.568,222.426 C360.146257,222.384528 360.726743,222.384528 361.305,222.426 C371.367,222.885 371.25,215.028 385.929,219.771 C400.608,224.514 398.007,236.871 396.324,240.048 C395.271,242.01 391.257,247.275 391.257,247.275 Z" id="Path" fill="#FFFFFF" fill-rule="nonzero"></path>
                    <path d="M316.962,306.432 C322.146,289.332 343.557,275.508 364.806,275.508 C386.055,275.508 399.069,289.35 393.885,306.432" id="Path" stroke="#F8C44D" stroke-width="2.25"></path>
                </g>
                <g id="Layer_2" transform="translate(101.700000, 140.400000)" stroke="#254BAD" stroke-linecap="round" stroke-linejoin="round" stroke-width="2.25">
                    <path d="M163.296,117.108 C166.383,99.504 169.353,82.332 170.19,76.662" id="Path"></path>
                    <path d="M135,48.123 C135,48.123 116.478,49.734 106.335,54.306 C96.192,58.878 91.395,68.886 90,87.66 C88.605,106.434 79.146,130.743 75.483,133.254 C71.82,135.765 68.454,137.448 69.093,140.13 C69.732,142.812 89.199,159.741 105.318,167.13 C121.437,174.519 130.518,176.184 155.097,163.611 C155.097,163.611 156.294,156.951 158.004,147.285" id="Path"></path>
                    <path d="M179.469,21.96 C179.469,21.96 175.95,38.43 173.88,43.281 C171.81,48.132 167.085,51.615 159.426,49.059 C159.426,49.059 156.384,54.297 156.384,56.592 C156.384,58.887 161.487,71.271 153.225,74.214 C144.963,77.157 133.533,57.6 133.533,53.145 C133.533,48.69 142.047,41.652 143.622,36.414 C145.197,31.176 141.561,26.199 145.323,24.291 C149.085,22.383 151.281,29.394 151.281,30.42 C151.281,31.446 156.024,30.672 155.655,24.795 C155.286,18.918 158.355,18.162 158.355,18.162 C158.355,18.162 167.4,25.911 179.469,21.96 Z" id="Path"></path>
                    <path d="M69.057,140.13 C69.057,140.13 15.849,162.945 6.363,174.33 C-3.123,185.715 -3.402,207.081 30.483,214.488 C64.368,221.895 101.466,226.062 101.466,226.062 C101.466,226.062 108,216.099 105.3,205.569 L84.141,197.145 L104.004,193.446 C104.004,193.446 136.062,231.669 136.062,235.656 C136.062,239.184 84.762,287.928 73.062,298.953 C71.4043098,300.495049 70.9510821,302.940286 71.946,304.974 C73.548,308.205 77.247,312.714 85.725,315.324 C87.1800736,315.766029 88.7563387,315.538493 90.027,314.703 C102.996,306.297 176.211,258.291 182.142,242.208 C188.649,224.55 155.088,163.593 155.088,163.593" id="Path"></path>
                    <path d="M89.172,199.197 L47.502,184.131" id="Path"></path>
                    <path d="M160.137,50.112 C160.137,50.112 174.537,51.993 179.145,61.11 C183.366,69.48 179.442,111.177 179.442,111.177" id="Path"></path>
                    <path d="M120.897,64.989 C125.370303,78.0961564 131.197797,90.7012795 138.285,102.6 C138.285,102.6 113.319,117.9 108.783,126.396 C108.783,126.396 91.116,101.916 90.513,82.845" id="Path"></path>
                    <path d="M108.783,126.396 L107.1,129.645 C107.1,129.645 112.662,141.201 120.132,145.62 C120.132,145.62 131.832,123.228 148.23,113.391 C148.23,113.391 141.993,101.88 140.904,101.691 C139.961924,101.723089 139.045442,102.0058 138.249,102.51" id="Path"></path>
                    <path d="M145.8,114.966 C145.8,114.966 148.743,119.043 150.462,120.429 C152.181,121.815 201.429,103.698 204.696,101.745 C204.696,101.745 211.194,97.245 215.496,97.785 C218.203239,97.9558544 220.806256,98.8921914 223.002,100.485 C223.002,100.485 230.796,99.513 230.904,101.79 C231.039,104.805 227.871,103.914 227.934,108.594 C227.988,112.455 223.488,119.592 206.505,118.638 C203.598,118.476 152.874,152.568 142.488,154.386 C132.102,156.204 121.59,143.028 121.59,143.028" id="Path"></path>
                    <path d="M178.956,26.325 C178.956,26.325 190.656,21.69 185.904,10.602 C181.935,1.377 175.32,7.155 169.794,2.502 C166.194,-0.531 160.047,-1.692 155.016,4.401 C151.74,8.37 145.629,-0.288 142.623,10.071 C140.535,17.271 134.955,12.771 137.718,25.263 C140.481,37.755 139.329,43.362 139.329,43.362" id="Path"></path>
                    <path d="M172.062,139.131 C172.062,139.131 168.228,179.064 169.542,180.756 C170.856,182.448 179.325,183.762 174.942,202.779" id="Path"></path>
                    <path d="M71.325,303.615 C71.325,303.615 59.4,315.387 59.4,324.495 C59.4636227,326.569311 61.1768703,328.210506 63.252,328.185 L99.711,328.185 C99.711,328.185 103.104,315.369 85.869,315.369" id="Path"></path>
                    <path d="M105.3,205.569 C108.692806,206.094074 112.028562,206.937806 115.263,208.089 C118.094434,209.139612 119.848909,211.980897 119.52,214.983 C118.62,223.308 116.064,240.795 110.637,248.544 C110.637,248.544 101.232,248.679 102.537,224.172" id="Path"></path>
                    <path d="M212.472,97.875 L232.821,33.678 C233.702017,30.9052806 236.27468,29.0203591 239.184,29.016 L351.684,29.016 C353.48798,29.0188104 355.182965,29.8798924 356.249081,31.3351406 C357.315196,32.7903887 357.625197,34.6661118 357.084,36.387 L310.167,184.5 L250.353,197.856 L188.541,197.856 C186.735561,197.857098 185.03788,196.996959 183.970902,195.540535 C182.903925,194.084111 182.595636,192.206101 183.141,190.485 L205.812,118.935" id="Path"></path>
                    <path d="M243.387,20.097 L240.552,29.016 L351.693,29.016 C353.498439,29.0149016 355.19612,29.8750413 356.263098,31.3314652 C357.330075,32.7878891 357.638364,34.6658988 357.093,36.387 L310.167,184.5 L250.353,197.856 L188.541,197.856 C188.061926,197.855102 187.584629,197.797706 187.119,197.685 L184.806,205.002 L315.504,205.002 L374.085,20.142 L243.387,20.097 Z" id="Path"></path>
                    <path d="M310.167,184.5 C310.167,184.5 296.91,186.219 294.822,174.915 L250.353,197.856" id="Path"></path>
                    <path d="M324.567,176.4 L369.099,318.519 C369.470615,319.702917 369.355877,320.986044 368.780105,322.085246 C368.204333,323.184447 367.214851,324.009375 366.03,324.378 C365.579578,324.524285 365.10857,324.597216 364.635,324.594 C362.578049,324.609613 360.752044,323.280281 360.135,321.318 L319.635,191.952" id="Path"></path>
                    <path d="M216.126,204.957 L186.957,264.6 L299.898,264.6 L293.4,204.957 L302.805,204.957 L315.216,319.365 C315.352189,320.599534 314.991094,321.837475 314.212534,322.805187 C313.433974,323.772899 312.302063,324.390689 311.067,324.522 L310.563,324.522 C308.178246,324.522138 306.176314,322.725831 305.919,320.355 L300.879,273.915 L182.376,273.915 L158.904,321.93 C157.768226,324.248768 154.967768,325.207774 152.649,324.072 C150.330232,322.936226 149.371226,320.135768 150.507,317.817 L205.713,204.957" id="Path"></path>
                    <path d="M213.201,97.866 L261.801,90.9 C263.141468,90.7123427 264.382655,91.6402203 264.582,92.979 L264.582,92.979 C264.674456,93.6247573 264.506314,94.2807745 264.114639,94.8024457 C263.722963,95.324117 263.13991,95.6686143 262.494,95.76 L230.4,100.368" id="Path"></path>
                    <path d="M262.503,95.76 C275.805,106.785 283.878,88.956 283.878,88.956 C283.878,88.956 280.998,91.863 273.87,88.164 C266.742,84.465 261.81,90.864 261.81,90.864" id="Path"></path>
                    <path d="M65.115,222.669 L46.539,320.094 C46.045305,322.684811 43.7764189,324.556642 41.139,324.549 L41.139,324.549 C39.503996,324.550495 37.9534041,323.823168 36.9092693,322.564986 C35.8651345,321.306804 35.4361214,319.648706 35.739,318.042 L54.207,221.193" id="Path"></path>
                    <path d="M129.96,243.225 L125.55,220.113" id="Path"></path>
                    <path d="M127.575,289.296 L133.452,320.094 C133.945695,322.684811 136.214581,324.556642 138.852,324.549 L138.852,324.549 C140.488125,324.553743 142.04082,323.827309 143.085675,322.568259 C144.130529,321.30921 144.558278,319.649209 144.252,318.042 L137.439,282.276" id="Path"></path>
                    <path d="M116.685,232.155 L120.636,252.855" id="Path"></path>
                </g>
            </g>
        </g>
    </g>
</svg>