<?xml version="1.0" encoding="UTF-8"?>
<svg width="105px" height="80px" viewBox="0 0 105 80" version="1.1" xmlns="http://www.w3.org/2000/svg" xmlns:xlink="http://www.w3.org/1999/xlink">
    <!-- Generator: Sketch 55 (78076) - https://sketchapp.com -->
    <title>illustration</title>
    <desc>Created with Sketch.</desc>
    <defs>
        <linearGradient x1="80.3780978%" y1="89.8113038%" x2="19.6794779%" y2="10.3633441%" id="linearGradient-1">
            <stop stop-color="#F8C44D" stop-opacity="0" offset="0%"></stop>
            <stop stop-color="#F8C44D" stop-opacity="0.06" offset="5%"></stop>
            <stop stop-color="#F8C44D" stop-opacity="0.39" offset="32%"></stop>
            <stop stop-color="#F8C44D" stop-opacity="0.65" offset="56%"></stop>
            <stop stop-color="#F8C44D" stop-opacity="0.84" offset="76%"></stop>
            <stop stop-color="#F8C44D" stop-opacity="0.96" offset="91%"></stop>
            <stop stop-color="#F8C44D" offset="100%"></stop>
        </linearGradient>
        <linearGradient x1="-0.00804406256%" y1="49.977555%" x2="99.9939783%" y2="49.977555%" id="linearGradient-2">
            <stop stop-color="#2045AB" offset="0%"></stop>
            <stop stop-color="#254BAD" offset="100%"></stop>
        </linearGradient>
    </defs>
    <g id="illustration" stroke="none" stroke-width="1" fill="none" fill-rule="evenodd">
        <g id="illustration-biru-copy" transform="translate(5.500000, 0.000000)" fill-rule="nonzero">
            <circle id="Oval" fill="url(#linearGradient-1)" transform="translate(28.676798, 29.317479) rotate(-2.800000) translate(-28.676798, -29.317479) " cx="28.6767978" cy="29.3174789" r="27.03"></circle>
            <path d="M93.55,27.8 L81,19.19 C80.7014387,18.992438 80.3200418,18.9695542 80,19.13 C79.6714745,19.3049196 79.4672758,19.6478193 79.47,20.02 L79.47,35.21 C79.4692723,35.5595022 79.651068,35.8840243 79.9494944,36.0659418 C80.2479208,36.2478593 80.6196701,36.2607721 80.93,36.1 L84.09,34.44 L86.31,38.65 C86.5906312,39.1915098 87.1500938,39.5310457 87.76,39.53 C88.0252148,39.531043 88.2864778,39.4657273 88.52,39.34 L91.82,37.6 C92.2059581,37.3998479 92.4959607,37.053799 92.6255347,36.6387868 C92.7551086,36.2237747 92.7135147,35.7741956 92.51,35.39 L90.29,31.17 L93.45,29.51 C93.7602837,29.3468784 93.9624977,29.0331945 93.9829627,28.6832434 C94.0034277,28.3332923 93.8391551,27.9981765 93.55,27.8 L93.55,27.8 Z M88.48,29.87 C87.9913543,30.1269176 87.8033512,30.7312131 88.06,31.22 L90.57,36 L87.91,37.4 L85.39,32.62 C85.2668913,32.3745051 85.0482367,32.1904456 84.7853424,32.1110098 C84.522448,32.0315741 84.2384547,32.0637545 84,32.2 L81.43,33.56 L81.43,21.92 L91.02,28.51 L88.48,29.87 Z M23,72.3 L78.84,72.3 C79.3922847,72.3 79.84,71.8522847 79.84,71.3 C79.84,70.7477153 79.3922847,70.3 78.84,70.3 L23,70.3 C22.4477153,70.3 22,70.7477153 22,71.3 C22,71.8522847 22.4477153,72.3 23,72.3 Z M24.65,62.91 L24.65,61.4 L43.1,61.4 C43.5426149,62.986469 44.9879444,64.0837571 46.635,64.0837571 C48.2820556,64.0837571 49.7273851,62.986469 50.17,61.4 L68.61,61.4 L68.61,62.91 C68.61,63.4622847 69.0577153,63.91 69.61,63.91 L75.72,63.91 C76.2722847,63.91 76.72,63.4622847 76.72,62.91 L76.72,56.8 C76.72,56.2477153 76.2722847,55.8 75.72,55.8 L74.21,55.8 L74.21,41.87 C75.796469,41.4273851 76.8937571,39.9820556 76.8937571,38.335 C76.8937571,36.6879444 75.796469,35.2426149 74.21,34.8 L74.21,20.7 L75.72,20.7 C76.2722847,20.7 76.72,20.2522847 76.72,19.7 L76.72,13.59 C76.72,13.0377153 76.2722847,12.59 75.72,12.59 L69.61,12.59 C69.0577153,12.59 68.61,13.0377153 68.61,13.59 L68.61,15.19 L50.15,15.19 C49.67944,13.6512553 48.2590874,12.6003271 46.65,12.6003271 C45.0409126,12.6003271 43.62056,13.6512553 43.15,15.19 L24.61,15.19 L24.61,13.59 C24.61,13.0377153 24.1622847,12.59 23.61,12.59 L17.5,12.59 C16.9477153,12.59 16.5,13.0377153 16.5,13.59 L16.5,19.7 C16.5,20.2522847 16.9477153,20.7 17.5,20.7 L19.06,20.7 L19.06,34.8 C17.473531,35.2426149 16.3762429,36.6879444 16.3762429,38.335 C16.3762429,39.9820556 17.473531,41.4273851 19.06,41.87 L19.06,55.8 L17.5,55.8 C16.9477153,55.8 16.5,56.2477153 16.5,56.8 L16.5,62.91 C16.5,63.4622847 16.9477153,63.91 17.5,63.91 L23.61,63.91 C24.1622847,63.91 24.61,63.4622847 24.61,62.91 L24.65,62.91 Z M46.65,62.09 C45.9664588,62.09 45.3502235,61.6782447 45.0886436,61.046735 C44.8270637,60.4152253 44.9716529,59.6883262 45.4549895,59.2049895 C45.9383262,58.7216529 46.6652253,58.5770637 47.296735,58.8386436 C47.9282447,59.1002235 48.34,59.7164588 48.34,60.4 C48.3400316,60.8517027 48.1592358,61.2846198 47.8379604,61.6021375 C47.5166851,61.9196552 47.0816711,62.0953456 46.63,62.09 L46.65,62.09 Z M74.72,57.8 L74.72,61.91 L70.61,61.91 L70.61,57.8 L74.72,57.8 Z M74.9,38.33 C74.9,39.2633612 74.1433612,40.02 73.21,40.02 C72.2766388,40.02 71.52,39.2633612 71.52,38.33 C71.52,37.3966388 72.2766388,36.64 73.21,36.64 C74.1433612,36.64 74.9,37.3966388 74.9,38.33 Z M70.61,14.59 L74.72,14.59 L74.72,18.7 L70.61,18.7 L70.61,14.59 Z M46.61,14.59 C47.5433612,14.59 48.3,15.3466388 48.3,16.28 C48.3,17.2133612 47.5433612,17.97 46.61,17.97 C45.6766388,17.97 44.92,17.2133612 44.92,16.28 C44.9118555,15.8231192 45.0890708,15.3824125 45.4112422,15.0583571 C45.7334136,14.7343016 46.1730795,14.5545197 46.63,14.56 L46.61,14.59 Z M24.61,19.73 L24.61,17.19 L43.08,17.19 C43.4962239,18.8132999 44.9591883,19.9484765 46.635,19.9484765 C48.3108117,19.9484765 49.7737761,18.8132999 50.19,17.19 L68.61,17.19 L68.61,19.7 C68.61,20.2522847 69.0577153,20.7 69.61,20.7 L72.21,20.7 L72.21,34.8 C70.623531,35.2426149 69.5262429,36.6879444 69.5262429,38.335 C69.5262429,39.9820556 70.623531,41.4273851 72.21,41.87 L72.21,55.8 L69.61,55.8 C69.0577153,55.8 68.61,56.2477153 68.61,56.8 L68.61,59.4 L50.17,59.4 C49.7273851,57.813531 48.2820556,56.7162429 46.635,56.7162429 C44.9879444,56.7162429 43.5426149,57.813531 43.1,59.4 L24.61,59.4 L24.61,56.8 C24.61,56.2477153 24.1622847,55.8 23.61,55.8 L21.06,55.8 L21.06,41.87 C22.646469,41.4273851 23.7437571,39.9820556 23.7437571,38.335 C23.7437571,36.6879444 22.646469,35.2426149 21.06,34.8 L21.06,20.7 L23.61,20.7 C24.1622847,20.7 24.61,20.2522847 24.61,19.7 L24.61,19.73 Z M18.5,18.73 L18.5,14.59 L22.61,14.59 L22.61,18.7 L18.5,18.73 Z M18.37,38.36 C18.3496442,37.6722741 18.7482431,37.0408605 19.3778676,36.7634543 C20.0074921,36.486048 20.742437,36.6180336 21.2361949,37.0971833 C21.7299528,37.576333 21.8839443,38.3069839 21.6255665,38.9446532 C21.3671887,39.5823226 20.748027,39.9996988 20.06,40 C19.1343938,40.0000648 18.3809539,39.2555414 18.37,38.33 L18.37,38.36 Z M22.61,61.94 L18.5,61.94 L18.5,57.8 L22.61,57.8 L22.61,61.94 Z M91.48,77.42 L23.2,77.42 C22.6477153,77.42 22.2,77.8677153 22.2,78.42 C22.2,78.9722847 22.6477153,79.42 23.2,79.42 L91.48,79.42 C92.0322847,79.42 92.48,78.9722847 92.48,78.42 C92.48,77.8677153 92.0322847,77.42 91.48,77.42 Z M34.76,53.5 L58.51,53.5 C59.5733978,53.5054179 60.5815836,53.0270815 61.25,52.2 C61.9273016,51.381582 62.2024873,50.3028539 62,49.26 C60.7289037,43.3832127 56.2188979,38.7451258 50.38,37.31 C53.3873618,35.6069236 54.8694334,32.0911403 53.9888308,28.7491001 C53.1082282,25.4070598 50.0861096,23.078097 46.63,23.078097 C43.1738904,23.078097 40.1517718,25.4070598 39.2711692,28.7491001 C38.3905666,32.0911403 39.8726382,35.6069236 42.88,37.31 C37.05659,38.758419 32.5646065,43.3939288 31.3,49.26 C31.0766157,50.2922875 31.3341286,51.3701627 32,52.19 C32.6717442,53.0251486 33.6882465,53.507619 34.76,53.5 Z M48.38,25.37 C49.8371658,25.8480843 51.0339221,26.9038331 51.69,28.29 L50.16,28.29 C49.1769331,28.29 48.38,27.4930669 48.38,26.51 L48.38,25.37 Z M46.38,25.1 L46.38,25.1 L46.38,26.7 C46.38,27.6830669 45.5830669,28.48 44.6,28.48 L41.48,28.48 C42.3297029,26.5066433 44.2335127,25.193403 46.38,25.1 L46.38,25.1 Z M41,30.69 C40.995061,30.6200871 40.995061,30.5499129 41,30.48 L44.6,30.48 C45.7040682,30.4827077 46.7535314,30.0000277 47.47,29.16 C48.1805759,29.8796126 49.1486906,30.2862928 50.16,30.29 L52.22,30.29 C52.22,30.42 52.22,30.56 52.22,30.69 C52.22,33.7883174 49.7083174,36.3 46.61,36.3 C43.5116826,36.3 41,33.7883174 41,30.69 L41,30.69 Z M33.24,49.69 C34.5750424,43.3682931 40.1538611,38.844584 46.615,38.844584 C53.0761389,38.844584 58.6549576,43.3682931 59.99,49.69 C60.0764674,50.1379176 59.9585511,50.6010555 59.668414,50.9530885 C59.3782769,51.3051215 58.9461867,51.5093248 58.49,51.51 L34.76,51.51 C34.3038133,51.5093248 33.8717231,51.3051215 33.581586,50.9530885 C33.2914489,50.6010555 33.1735326,50.1379176 33.26,49.69 L33.24,49.69 Z" id="Shape" fill="url(#linearGradient-2)"></path>
        </g>
    </g>
</svg>