<?xml version="1.0" encoding="UTF-8"?>
<svg width="105px" height="80px" viewBox="0 0 105 80" version="1.1" xmlns="http://www.w3.org/2000/svg" xmlns:xlink="http://www.w3.org/1999/xlink">
    <!-- Generator: Sketch 55 (78076) - https://sketchapp.com -->
    <title>motion - putih</title>
    <desc>Created with Sketch.</desc>
    <defs>
        <linearGradient x1="70.0490196%" y1="80.7741398%" x2="9.06030337%" y2="1.78875324%" id="linearGradient-1">
            <stop stop-color="#F8C44D" stop-opacity="0" offset="0%"></stop>
            <stop stop-color="#F8C44D" stop-opacity="0.06" offset="5%"></stop>
            <stop stop-color="#F8C44D" stop-opacity="0.39" offset="32%"></stop>
            <stop stop-color="#F8C44D" stop-opacity="0.65" offset="56%"></stop>
            <stop stop-color="#F8C44D" stop-opacity="0.84" offset="76%"></stop>
            <stop stop-color="#F8C44D" stop-opacity="0.96" offset="91%"></stop>
            <stop stop-color="#F8C44D" offset="100%"></stop>
        </linearGradient>
    </defs>
    <g id="motion---putih" stroke="none" stroke-width="1" fill="none" fill-rule="evenodd">
        <g id="motion-graphic-biru-copy" transform="translate(1.500000, 0.000000)" fill-rule="nonzero">
            <circle id="Oval" fill="url(#linearGradient-1)" transform="translate(28.676798, 29.317479) rotate(-2.800000) translate(-28.676798, -29.317479) " cx="28.6767978" cy="29.3174789" r="27.03"></circle>
            <path d="M57.65,46.66 C57.0613969,47.412052 56.5107113,48.1930243 56,49 C52.23,38.38 45.57,34.77 40.5,33.64 C40.2399955,33.5804288 39.9669668,33.6272033 39.7416185,33.769924 C39.5162702,33.9126446 39.3572809,34.1394814 39.3,34.4 C39.1781539,34.9199447 39.4863494,35.4438769 40,35.59 C44.88,36.68 51.4,40.37 54.72,51.75 L54.72,51.75 C54.7145882,51.7831137 54.7145882,51.8168863 54.72,51.85 C54.7537467,51.928591 54.7974367,52.0025279 54.85,52.07 C54.8740874,52.0991269 54.9008731,52.1259126 54.93,52.15 C54.9914209,52.2110355 55.0623435,52.2616945 55.14,52.3 L55.14,52.3 L55.14,52.3 C55.2595212,52.3546813 55.3886496,52.3852643 55.52,52.39 C55.6130435,52.4004026 55.7069565,52.4004026 55.8,52.39 L55.8,52.39 C55.9025017,52.3521938 55.9999133,52.3018085 56.09,52.24 L56.17,52.17 C56.234734,52.1106341 56.2918384,52.0434525 56.34,51.97 C56.3369424,51.943421 56.3369424,51.916579 56.34,51.89 C56.34,51.89 56.34,51.89 56.34,51.89 C57.0616891,50.4701149 57.9297333,49.1295061 58.93,47.89 C59.0955394,47.6809067 59.1707002,47.4143521 59.1387773,47.14958 C59.1068544,46.884808 58.9704929,46.6437561 58.76,46.48 C58.3881128,46.3065821 57.9480271,46.3779473 57.65,46.66 Z M75.16,36.66 C73.4406862,36.8612205 71.7456663,37.2330529 70.1,37.77 C69.5949088,37.9456063 69.317352,38.4875029 69.47,39 C69.6129939,39.4253709 70.0218476,39.7033915 70.47,39.68 C70.5724384,39.6992326 70.6775616,39.6992326 70.78,39.68 C72.2953581,39.1893357 73.8567469,38.8542738 75.44,38.68 C75.7972656,38.6389145 76.1054737,38.4103509 76.2485254,38.0804071 C76.3915771,37.7504632 76.3477393,37.3692654 76.1335254,37.0804071 C75.9193115,36.7915488 75.5672656,36.6389145 75.21,36.68 L75.16,36.66 Z M85.4,37.31 L85,37.19 L85,28.77 C84.9944894,27.017641 83.5723677,25.5999913 81.82,25.6 L32.55,25.6 C32.4507703,25.6045516 32.3528892,25.6248028 32.26,25.66 C28.2635114,19.7819204 20.6789608,17.5334409 14.124569,20.2836572 C7.57017726,23.0338735 3.86096389,30.0212053 5.2554631,36.9910771 C6.64996232,43.9609489 12.7620142,48.983288 19.87,49 C20.5021348,48.9972113 21.1334366,48.9537884 21.76,48.87 L21.76,76 C21.7655106,77.752359 23.1876323,79.1700087 24.94,79.17 L81.78,79.17 C82.6285667,79.1806786 83.4461998,78.8517378 84.0509515,78.2563766 C84.6557032,77.6610155 84.9973985,76.8486299 85,76 L85,39.22 C85.072965,39.2303938 85.147035,39.2303938 85.22,39.22 C85.7722847,39.2807513 86.2692487,38.8822847 86.33,38.33 C86.3907513,37.7777153 85.9922847,37.2807513 85.44,37.22 L85.4,37.31 Z M19.87,47 C12.7231341,47.0054655 6.92295988,41.2201305 6.91011745,34.0732741 C6.89727501,26.9264176 12.6766201,21.1202749 19.8234595,21.1000556 C26.9702989,21.0798363 32.7824038,26.8531853 32.81,34 C32.8100762,41.1563354 27.0262592,46.9669708 19.87,47 L19.87,47 Z M83,76 C83.0000114,76.3120437 82.8753721,76.6111633 82.653787,76.8308706 C82.4322018,77.0505779 82.1320323,77.172667 81.82,77.17 L24.94,77.17 C24.6279677,77.172667 24.3277982,77.0505779 24.106213,76.8308706 C23.8846279,76.6111633 23.7599886,76.3120437 23.76,76 L23.76,60.47 L83,60.47 L83,76 Z M83,36.85 C82.1,36.71 81.22,36.61 80.36,36.55 C79.8077153,36.5113401 79.3286599,36.9277153 79.29,37.48 C79.2513401,38.0322847 79.6677153,38.5113401 80.22,38.55 C81.13,38.61 82.06,38.74 83,38.89 L83.0000002,58.47 L23.76,58.47 L23.76,48.47 C30.2841118,46.6891278 34.8097414,40.7628057 34.81,34 C34.8107273,31.7808211 34.3117177,29.5899637 33.35,27.59 L81.78,27.59 C82.0998269,27.5791521 82.4103446,27.6986676 82.6403658,27.9211472 C82.8703871,28.1436268 83.0001839,28.4499892 83,28.77 L83,36.85 Z M65.42,39.85 C63.9302097,40.713087 62.527058,41.7177302 61.23,42.85 C60.819287,43.2176255 60.7835053,43.8482776 61.15,44.26 C61.3395698,44.4757843 61.6127728,44.5996363 61.9,44.6 C62.1430724,44.5996502 62.3776958,44.5107777 62.56,44.35 C63.7562253,43.2905516 65.0522796,42.349489 66.43,41.54 C66.7778371,41.3827971 67.0058412,41.0412892 67.0176816,40.6597618 C67.0295219,40.2782343 66.823133,39.9232454 66.4857132,39.7447762 C66.1482934,39.5663069 65.7387061,39.5954917 65.43,39.82 L65.42,39.85 Z M95.42,35.54 C93.1928541,35.5444127 91.1329833,36.7225676 90,38.64 C89.5851891,38.6428035 89.2151776,38.9014136 89.07,39.29 C88.9593391,39.642082 89.0515978,40.0264932 89.31,40.29 C89.1859463,40.787215 89.1221547,41.2975476 89.12,41.81 C89.1200032,44.3630661 90.6584696,46.6645512 93.0175829,47.6406304 C95.3766963,48.6167097 98.0915226,48.0750175 99.8953807,46.2682961 C101.699239,44.4615747 102.236625,41.7458927 101.256805,39.3883304 C100.276985,37.0307681 97.9730629,35.4959539 95.42,35.5 L95.42,35.54 Z M95.42,46.16 C94.1213747,46.1697633 92.8872548,45.5947973 92.0593095,44.5942826 C91.2313643,43.5937679 90.8974457,42.2738679 91.15,41 C91.4538082,40.9230091 91.7039478,40.7080373 91.8257451,40.4192598 C91.9475424,40.1304823 91.9269073,39.8013064 91.77,39.53 C92.9020939,37.8161392 95.0882354,37.1422457 96.98878,37.9212742 C98.8893247,38.7003028 99.9735394,40.7147073 99.5770289,42.730082 C99.1805183,44.7454566 97.4140094,46.1990016 95.36,46.2 L95.42,46.16 Z M30.92,71.81 C30.3677153,71.81 29.92,72.2577153 29.92,72.81 C29.92,73.3622847 30.3677153,73.81 30.92,73.81 L38,73.81 L38,74.81 C38,75.3622847 38.4477153,75.81 39,75.81 C39.5522847,75.81 40,75.3622847 40,74.81 L40,73.81 L57.66,73.81 C58.2122847,73.81 58.66,73.3622847 58.66,72.81 C58.66,72.2577153 58.2122847,71.81 57.66,71.81 L40,71.81 L40,68.59 L70.71,68.59 C71.2622847,68.59 71.71,68.1422847 71.71,67.59 C71.71,67.0377153 71.2622847,66.59 70.71,66.59 L40,66.59 L40,64.74 L40.7,64.74 C41.2522847,64.74 41.7,64.2922847 41.7,63.74 C41.7,63.1877153 41.2522847,62.74 40.7,62.74 L37.3,62.74 C36.7477153,62.74 36.3,63.1877153 36.3,63.74 C36.3,64.2922847 36.7477153,64.74 37.3,64.74 L38,64.74 L38,66.59 L30.92,66.59 C30.3677153,66.59 29.92,67.0377153 29.92,67.59 C29.92,68.1422847 30.3677153,68.59 30.92,68.59 L38,68.59 L38,71.81 L30.92,71.81 Z M26.29,33.18 L17.16,27.12 C16.8521151,26.9172353 16.4576414,26.9003124 16.1335224,27.075964 C15.8094034,27.2516156 15.6082146,27.5913491 15.61,27.96 L15.61,40.06 C15.6089998,40.4264539 15.8085196,40.7641028 16.13,40.94 C16.2774224,41.0195752 16.4424742,41.0608382 16.61,41.06 C16.8066006,41.0622477 16.9989572,41.002792 17.16,40.89 L26.29,34.89 C26.5693852,34.7060165 26.7382694,34.3945191 26.74,34.06 C26.7555774,33.7078579 26.5846107,33.3735232 26.29,33.18 L26.29,33.18 Z M17.61,38.18 L17.61,29.82 L23.93,34 L17.61,38.18 Z" id="Shape" fill="#FFFFFF"></path>
        </g>
    </g>
</svg>