<?xml version="1.0" encoding="UTF-8"?>
<svg width="439px" height="437px" viewBox="0 0 439 437" version="1.1" xmlns="http://www.w3.org/2000/svg" xmlns:xlink="http://www.w3.org/1999/xlink">
    <!-- Generator: Sketch 55 (78076) - https://sketchapp.com -->
    <title>Artboard 4 copy 3</title>
    <desc>Created with Sketch.</desc>
    <defs>
        <linearGradient x1="14.6463479%" y1="85.3526205%" x2="85.3555668%" y2="14.6434016%" id="linearGradient-1">
            <stop stop-color="#F4F8FF" offset="0%"></stop>
            <stop stop-color="#FFFCF6" offset="29%"></stop>
            <stop stop-color="#FCE6B3" offset="53%"></stop>
            <stop stop-color="#FAD37A" offset="80%"></stop>
            <stop stop-color="#F8C44D" offset="100%"></stop>
        </linearGradient>
        <linearGradient x1="50.5%" y1="58%" x2="50.5%" y2="42%" id="linearGradient-2">
            <stop stop-color="#FFFFFF" offset="0%"></stop>
            <stop stop-color="#FFFCF6" offset="11%"></stop>
            <stop stop-color="#FEF3DC" offset="29%"></stop>
            <stop stop-color="#FCE6B3" offset="53%"></stop>
            <stop stop-color="#FAD37A" offset="80%"></stop>
            <stop stop-color="#F8C44D" offset="100%"></stop>
        </linearGradient>
        <linearGradient x1="50%" y1="82%" x2="50%" y2="18%" id="linearGradient-3">
            <stop stop-color="#FFFFFF" offset="0%"></stop>
            <stop stop-color="#FFFCF6" offset="11%"></stop>
            <stop stop-color="#FEF3DC" offset="29%"></stop>
            <stop stop-color="#FCE6B3" offset="53%"></stop>
            <stop stop-color="#FAD37A" offset="80%"></stop>
            <stop stop-color="#F8C44D" offset="100%"></stop>
        </linearGradient>
        <linearGradient x1="53.5%" y1="58%" x2="53.5%" y2="42%" id="linearGradient-4">
            <stop stop-color="#FFFFFF" offset="0%"></stop>
            <stop stop-color="#FFFCF6" offset="11%"></stop>
            <stop stop-color="#FEF3DC" offset="29%"></stop>
            <stop stop-color="#FCE6B3" offset="53%"></stop>
            <stop stop-color="#FAD37A" offset="80%"></stop>
            <stop stop-color="#F8C44D" offset="100%"></stop>
        </linearGradient>
        <linearGradient x1="50%" y1="55.5%" x2="50%" y2="44.5%" id="linearGradient-5">
            <stop stop-color="#FFFFFF" offset="0%"></stop>
            <stop stop-color="#FFFCF6" offset="11%"></stop>
            <stop stop-color="#FEF3DC" offset="29%"></stop>
            <stop stop-color="#FCE6B3" offset="53%"></stop>
            <stop stop-color="#FAD37A" offset="80%"></stop>
            <stop stop-color="#F8C44D" offset="100%"></stop>
        </linearGradient>
        <linearGradient x1="49.5%" y1="81.5%" x2="49.5%" y2="18.5%" id="linearGradient-6">
            <stop stop-color="#FFFFFF" offset="0%"></stop>
            <stop stop-color="#FFFCF6" offset="11%"></stop>
            <stop stop-color="#FEF3DC" offset="29%"></stop>
            <stop stop-color="#FCE6B3" offset="53%"></stop>
            <stop stop-color="#FAD37A" offset="80%"></stop>
            <stop stop-color="#F8C44D" offset="100%"></stop>
        </linearGradient>
        <linearGradient x1="49.5%" y1="81%" x2="49.5%" y2="19%" id="linearGradient-7">
            <stop stop-color="#FFFFFF" offset="0%"></stop>
            <stop stop-color="#FFFCF6" offset="11%"></stop>
            <stop stop-color="#FEF3DC" offset="29%"></stop>
            <stop stop-color="#FCE6B3" offset="53%"></stop>
            <stop stop-color="#FAD37A" offset="80%"></stop>
            <stop stop-color="#F8C44D" offset="100%"></stop>
        </linearGradient>
        <linearGradient x1="49.5%" y1="85%" x2="49.5%" y2="15%" id="linearGradient-8">
            <stop stop-color="#FFFFFF" offset="0%"></stop>
            <stop stop-color="#FFFCF6" offset="11%"></stop>
            <stop stop-color="#FEF3DC" offset="29%"></stop>
            <stop stop-color="#FCE6B3" offset="53%"></stop>
            <stop stop-color="#FAD37A" offset="80%"></stop>
            <stop stop-color="#F8C44D" offset="100%"></stop>
        </linearGradient>
        <linearGradient x1="50%" y1="57.5%" x2="50%" y2="42.5%" id="linearGradient-9">
            <stop stop-color="#FFFFFF" offset="0%"></stop>
            <stop stop-color="#FFFCF6" offset="11%"></stop>
            <stop stop-color="#FEF3DC" offset="29%"></stop>
            <stop stop-color="#FCE6B3" offset="53%"></stop>
            <stop stop-color="#FAD37A" offset="80%"></stop>
            <stop stop-color="#F8C44D" offset="100%"></stop>
        </linearGradient>
        <linearGradient x1="48%" y1="52.5%" x2="48%" y2="47.5%" id="linearGradient-10">
            <stop stop-color="#FFFFFF" offset="0%"></stop>
            <stop stop-color="#FFFCF6" offset="11%"></stop>
            <stop stop-color="#FEF3DC" offset="29%"></stop>
            <stop stop-color="#FCE6B3" offset="53%"></stop>
            <stop stop-color="#FAD37A" offset="80%"></stop>
            <stop stop-color="#F8C44D" offset="100%"></stop>
        </linearGradient>
    </defs>
    <g id="Page-1" stroke="none" stroke-width="1" fill="none" fill-rule="evenodd">
        <g id="service-details" transform="translate(-794.000000, -3013.000000)">
            <g id="Artboard-4-copy-3" transform="translate(706.000000, 2923.000000)">
                <g id="Layer_5">
                    <circle id="Oval" fill="url(#linearGradient-1)" fill-rule="nonzero" transform="translate(308.803910, 308.454605) rotate(-45.000000) translate(-308.803910, -308.454605) " cx="308.80391" cy="308.454605" r="218.061"></circle>
                    <path d="M280.26,191.322 L280.161,191.178 L280.26,191.322 Z" id="Path" fill="url(#linearGradient-2)" fill-rule="nonzero"></path>
                    <path d="M280.656,191.898 C280.557,191.745 280.413,191.547 280.26,191.322 C280.386,191.502 280.521,191.7 280.656,191.898 Z" id="Path" fill="url(#linearGradient-3)" fill-rule="nonzero"></path>
                    <path d="M280.8,192.141 L280.701,191.997 L280.8,192.141 Z" id="Path" fill="url(#linearGradient-4)" fill-rule="nonzero"></path>
                    <path d="M280.728,191.997 C280.707007,191.961914 280.682911,191.928782 280.656,191.898 L280.728,191.997 Z" id="Path" fill="url(#linearGradient-5)" fill-rule="nonzero"></path>
                    <path d="M280.161,191.178 C280.035,190.998 279.9,190.809 279.774,190.611 C279.9,190.8 280.017,190.971 280.161,191.178 Z" id="Path" fill="url(#linearGradient-6)" fill-rule="nonzero"></path>
                    <path d="M279.315,189.963 L278.928,189.405 L279.315,189.963 Z" id="Path" fill="url(#linearGradient-7)" fill-rule="nonzero"></path>
                    <path d="M279.756,190.593 L279.315,189.963 C279.441,190.134 279.585,190.341 279.756,190.593 Z" id="Path" fill="url(#linearGradient-8)" fill-rule="nonzero"></path>
                    <path d="M278.928,189.405 L278.838,189.27 L278.928,189.405 Z" id="Path" fill="url(#linearGradient-9)" fill-rule="nonzero"></path>
                    <path d="M278.838,189.27 L278.838,189.225 L278.838,189.27 Z" id="Path" fill="url(#linearGradient-10)" fill-rule="nonzero"></path>
                    <path d="M496.395,210.645 L492.273,210.465 C492.276375,210.968069 492.218959,211.469704 492.102,211.959 L477.585,272.025 C476.759089,275.274864 473.846056,277.55945 470.493,277.587 L371.322,273.15 C371.300346,274.34814 371.757473,275.505431 372.592059,276.365358 C373.426644,277.225286 374.569748,277.716816 375.768,277.731 L479.07,282.348 C482.423056,282.32045 485.336089,280.035864 486.162,276.786 L500.679,216.72 C501.453,213.507 499.5,210.789 496.395,210.645 Z" id="Path" fill="#FFFFFF" fill-rule="nonzero"></path>
                    <path d="M379.899,236.853 L386.01,211.599 C386.833115,208.347316 389.747842,206.0614 393.102,206.037 L496.395,210.645 C499.536,210.789 501.453,213.507 500.679,216.72 L486.162,276.786 C485.336089,280.035864 482.423056,282.32045 479.07,282.348 L375.768,277.731 C372.627,277.596 370.71,274.878 371.484,271.665 L375.084,256.878" id="Path" stroke="#254BAD" stroke-width="2.25" stroke-linecap="round" stroke-linejoin="round"></path>
                    <path d="M379.899,236.853 L386.01,211.599 C386.833115,208.347316 389.747842,206.0614 393.102,206.037 L496.395,210.645 C499.536,210.789 501.453,213.507 500.679,216.72 L486.162,276.786 C485.336089,280.035864 482.423056,282.32045 479.07,282.348 L375.768,277.731 C372.627,277.596 370.71,274.878 371.484,271.665 L375.084,256.878" id="Path" stroke="#254BAD" stroke-width="2.25" stroke-linecap="round" stroke-linejoin="round"></path>
                    <path d="M496.395,210.645 C499.536,210.789 501.453,213.507 500.679,216.72 L486.162,276.786 C485.379418,279.801538 482.80751,282.014743 479.709,282.339 L485.802,282.609 C489.156158,282.5846 492.070885,280.298684 492.894,277.047 L507.42,216.981 C508.194,213.768 506.277,211.05 503.136,210.915 L399.843,206.298" id="Path" fill="#00267C" fill-rule="nonzero"></path>
                    <path d="M496.395,210.645 C499.536,210.789 501.453,213.507 500.679,216.72 L486.162,276.786 C485.379418,279.801538 482.80751,282.014743 479.709,282.339 L485.802,282.609 C489.156158,282.5846 492.070885,280.298684 492.894,277.047 L507.42,216.981 C508.194,213.768 506.277,211.05 503.136,210.915 L399.843,206.298" id="Path" stroke="#254BAD" stroke-width="2.25" stroke-linecap="round" stroke-linejoin="round"></path>
                    <ellipse id="Oval" fill="#F8C44D" fill-rule="nonzero" transform="translate(437.247809, 239.320013) rotate(-44.060000) translate(-437.247809, -239.320013) " cx="437.247809" cy="239.320013" rx="13.869" ry="11.349"></ellipse>
                    <ellipse id="Oval" stroke="#254BAD" stroke-width="2.25" stroke-linecap="round" stroke-linejoin="round" transform="translate(437.247809, 239.320013) rotate(-44.060000) translate(-437.247809, -239.320013) " cx="437.247809" cy="239.320013" rx="13.869" ry="11.349"></ellipse>
                    <ellipse id="Oval" stroke="#254BAD" stroke-width="2.25" stroke-linecap="round" stroke-linejoin="round" transform="translate(400.333101, 269.480365) rotate(-44.030000) translate(-400.333101, -269.480365) " cx="400.333101" cy="269.480365" rx="3.294" ry="2.7"></ellipse>
                    <polygon id="Path" fill="#00267C" fill-rule="nonzero" points="435.339 233.172 432.432 245.223 444.285 239.661"></polygon>
                    <polygon id="Path" stroke="#254BAD" stroke-width="2.25" stroke-linecap="round" stroke-linejoin="round" points="435.339 233.172 432.432 245.223 444.285 239.661"></polygon>
                    <path d="M403.254,269.595 L486.99,273.339" id="Path" stroke="#254BAD" stroke-width="2.25" stroke-linecap="round" stroke-linejoin="round"></path>
                    <path d="M372.321,268.218 L397.395,269.334" id="Path" stroke="#254BAD" stroke-width="2.25" stroke-linecap="round" stroke-linejoin="round"></path>
                    <rect id="Rectangle" fill="#F8C44D" fill-rule="nonzero" transform="translate(463.664764, 355.155771) rotate(-8.830000) translate(-463.664764, -355.155771) " x="414.844264" y="340.044771" width="97.641" height="30.222" rx="3.114"></rect>
                    <rect id="Rectangle" stroke="#254BAD" stroke-width="2.25" stroke-linecap="round" stroke-linejoin="round" transform="translate(463.664764, 355.155771) rotate(-8.830000) translate(-463.664764, -355.155771) " x="414.844264" y="340.044771" width="97.641" height="30.222" rx="3.114"></rect>
                    <path d="M424.134,356.58 L495.81,345.456" id="Path" stroke="#254BAD" stroke-width="2.25" stroke-linecap="round" stroke-linejoin="round"></path>
                    <path d="M425.178,363.303 L466.083,356.958" id="Path" stroke="#254BAD" stroke-width="2.25" stroke-linecap="round" stroke-linejoin="round"></path>
                    <path d="M426.222,370.035 L477.891,362.007" id="Path" stroke="#254BAD" stroke-width="2.25" stroke-linecap="round" stroke-linejoin="round"></path>
                    <path d="M435.429,370.62 L432.351,350.775" id="Path" stroke="#254BAD" stroke-width="2.25" stroke-linecap="round" stroke-linejoin="round"></path>
                    <path d="M429.642,351.189 L435.051,350.352" id="Path" stroke="#254BAD" stroke-width="2.25" stroke-linecap="round" stroke-linejoin="round"></path>
                    <path d="M394.245,337.878 C394.245,337.878 396.945,315.324 425.619,311.679" id="Path" stroke="#254BAD" stroke-width="2.25" stroke-linecap="round" stroke-linejoin="round"></path>
                    <path d="M444.474,317.7 C440.782908,317.686166 437.339874,315.839411 435.286584,312.772107 C433.233294,309.704802 432.838083,305.817799 434.232,302.4 C430.390011,305.128851 428.692625,309.988056 429.999858,314.515599 C431.30709,319.043143 435.333317,322.249776 440.038567,322.510792 C444.743817,322.771807 449.100013,320.030176 450.9,315.675 C449.022323,317.005094 446.775009,317.713281 444.474,317.7 L444.474,317.7 Z" id="Path" fill="#FFFFFF" fill-rule="nonzero"></path>
                    <circle id="Oval" stroke="#254BAD" stroke-width="2.25" stroke-linecap="round" stroke-linejoin="round" cx="440.658" cy="311.409" r="11.088"></circle>
                    <path d="M365.922,193.32 C363.523414,193.312277 361.286175,192.110606 359.955255,190.11513 C358.624335,188.119653 358.374522,185.592432 359.289,183.375 C356.774954,185.136956 355.654657,188.299209 356.4988,191.250876 C357.342943,194.202544 359.965824,196.294291 363.031321,196.460561 C366.096818,196.626832 368.930555,194.831048 370.089,191.988 C368.873678,192.857251 367.416187,193.323145 365.922,193.32 Z" id="Path" fill="#FFFFFF" fill-rule="nonzero"></path>
                    <circle id="Oval" stroke="#254BAD" stroke-width="2.25" stroke-linecap="round" stroke-linejoin="round" cx="363.456" cy="189.225" r="7.191"></circle>
                    <path d="M350.217,309.132 C352.014547,308.999108 353.819453,308.999108 355.617,309.132" id="Path" stroke="#254BAD" stroke-width="2.25" stroke-linecap="round" stroke-linejoin="round"></path>
                    <path d="M364.635,310.5 C375.147431,313.05543 384.224389,319.660971 389.889,328.878" id="Path" stroke="#254BAD" stroke-width="2.25" stroke-linecap="round" stroke-linejoin="round" stroke-dasharray="9.153000068664552"></path>
                    <path d="M392.112,332.919 C392.877,334.476 393.588,336.123 394.245,337.878" id="Path" stroke="#254BAD" stroke-width="2.25" stroke-linecap="round" stroke-linejoin="round"></path>
                    <path d="M292.5,324.495 C292.5,324.495 301.248,326.763 304.596,330.498 C307.944,334.233 310.896,342.81 309.708,344.052 C308.52,345.294 305.361,339.732 304.515,338.742 C304.170105,338.327043 303.80043,337.933325 303.408,337.563 L302.976,337.104 C302.976,337.104 307.395,344.304 307.224,348.39 C307.053,352.476 305.505,350.307 304.803,348.39 C304.101,346.473 301.203,341.442 299.871,340.146 C299.871,340.146 302.454,346.176 302.229,349.92 C302.004,353.664 299.718,352.26 299.025,349.461 C297.432,342.99 294.282,340.362 294.282,340.362 C294.282,340.362 298.062,346.392 296.892,350.757 C296.379,352.638 294.057,352.188 292.5,346.104 C291.42,341.883 283.923,339.921 278.586,334.854" id="Path" stroke="#254BAD" stroke-width="2.25" stroke-linecap="round" stroke-linejoin="round"></path>
                    <rect id="Rectangle" fill="#F8C44D" fill-rule="nonzero" transform="translate(406.450450, 155.615381) rotate(8.230000) translate(-406.450450, -155.615381) " x="372.04345" y="136.814381" width="68.814" height="37.602" rx="3.582"></rect>
                    <rect id="Rectangle" stroke="#254BAD" stroke-width="2.25" stroke-linecap="round" stroke-linejoin="round" transform="translate(406.450450, 155.615381) rotate(8.230000) translate(-406.450450, -155.615381) " x="372.04345" y="136.814381" width="68.814" height="37.602" rx="3.582"></rect>
                    <rect id="Rectangle" stroke="#254BAD" stroke-width="2.24966247" stroke-linecap="round" stroke-linejoin="round" transform="translate(384.959880, 143.176320) rotate(8.049062) translate(-384.959880, -143.176320) " x="379.956631" y="138.173071" width="10.0064987" height="10.0064987" rx="2.169"></rect>
                    <path d="M396.342,146.007 L429.336,150.777" id="Path" stroke="#254BAD" stroke-width="2.25" stroke-linecap="round" stroke-linejoin="round"></path>
                    <rect id="Rectangle" stroke="#254BAD" stroke-width="2.25" stroke-linecap="round" stroke-linejoin="round" transform="translate(382.269773, 159.609593) rotate(8.230000) translate(-382.269773, -159.609593) " x="377.265773" y="154.605593" width="10.008" height="10.008" rx="2.169"></rect>
                    <path d="M394.128,161.325 L412.83,164.034" id="Path" stroke="#254BAD" stroke-width="2.25" stroke-linecap="round" stroke-linejoin="round"></path>
                    <path d="M163.926,475.02 L330.012,475.02" id="Path" stroke="#254BAD" stroke-width="2.25" stroke-linecap="round" stroke-linejoin="round"></path>
                    <path d="M348.264,475.02 L363.69,475.02" id="Path" stroke="#254BAD" stroke-width="2.25" stroke-linecap="round" stroke-linejoin="round"></path>
                    <path d="M371.322,475.02 L441.261,475.02" id="Path" stroke="#254BAD" stroke-width="2.25" stroke-linecap="round" stroke-linejoin="round"></path>
                </g>
                <g id="Layer_2" transform="translate(89.100000, 139.500000)">
                    <path d="M170.307,48.357 C162.873938,47.2152254 155.272419,48.5866662 148.707,52.254 C138.078,58.374 134.244,65.61 133.074,72.369 C131.904,79.128 128.16,96.543 128.16,96.543 C128.16,96.543 119.727,112.995 116.406,117.666 C113.085,122.337 111.132,135.999 120.951,147.195 C130.77,158.391 142.812,165.267 157.275,164.403 L187.974,194.832 C187.974,194.832 200.736,198.243 203.328,184.032 L178.416,151.524 C178.416,151.524 182.016,128.025 193.41,116.244 C193.41,116.244 213.336,141.849 222.345,141.84 C231.354,141.831 275.445,119.997 275.445,119.997 C275.445,119.997 264.915,113.085 270.216,103.545 L229.077,113.634 C229.077,113.634 212.787,77.904 205.227,68.274 C198.594,59.814 190.611,50.994 190.611,50.994 C190.611,50.994 194.823,70.101 187.425,72.081 C180.027,74.061 172.161,70.029 170.307,48.357 Z" id="Path" fill="#F8C44D" fill-rule="nonzero"></path>
                    <path d="M229.023,113.4 C228.825,112.986 228.366,111.987 227.7,110.547 L120.726,110.547 C120.168,111.537 119.619,112.5 119.097,113.4 L229.023,113.4 Z" id="Path" fill="#FFFFFF" fill-rule="nonzero"></path>
                    <path d="M182.178,136.8 C182.484,135.9 182.826,134.901 183.186,133.938 L114.3,133.938 C114.503579,134.904138 114.755901,135.859358 115.056,136.8 L182.178,136.8 Z" id="Path" fill="#FFFFFF" fill-rule="nonzero"></path>
                    <polygon id="Path" fill="#FFFFFF" fill-rule="nonzero" points="203.049 183.636 200.862 180.774 173.835 180.774 176.715 183.636"></polygon>
                    <path d="M132.39,157.374 C133.950986,158.422134 135.57395,159.374874 137.25,160.227 L185.112,160.227 L182.916,157.374 L132.39,157.374 Z" id="Path" fill="#FFFFFF" fill-rule="nonzero"></path>
                    <path d="M209.493,133.965 C210.6,135 211.68,135.9 212.751,136.8 L238.626,136.8 C240.831,135.9 243.126,134.937 245.457,133.938 L209.493,133.965 Z" id="Path" fill="#FFFFFF" fill-rule="nonzero"></path>
                    <path d="M241.776,110.565 L230.121,113.4 L269.793,113.4 C269.364244,112.494514 269.061435,111.534606 268.893,110.547 L241.776,110.565 Z" id="Path" fill="#FFFFFF" fill-rule="nonzero"></path>
                    <path d="M136.305,63.756 C135.747832,64.6718444 135.254656,65.6251177 134.829,66.609 L175.005,66.609 C174.463622,65.6916778 173.98551,64.738461 173.574,63.756 L136.305,63.756 Z" id="Path" fill="#FFFFFF" fill-rule="nonzero"></path>
                    <path d="M191.799,63.756 C191.742322,64.7139238 191.622057,65.6670231 191.439,66.609 L203.94,66.609 C203.175,65.646 202.392,64.692 201.618,63.756 L191.799,63.756 Z" id="Path" fill="#FFFFFF" fill-rule="nonzero"></path>
                    <path d="M130.185,87.156 L129.6,90 L217.755,90 C217.281,89.046 216.795,88.092 216.297,87.138 L130.185,87.156 Z" id="Path" fill="#FFFFFF" fill-rule="nonzero"></path>
                    <path d="M191.763,52.686 C191.763,52.686 193.824,71.001 186.948,72.711 C184.215131,72.856565 181.493841,72.2594362 179.073,70.983 C172.422,67.383 168.957,58.383 170.307,48.357 L166.608,47.529 C166.608,47.529 164.97,62.361 166.239,67.194 C167.508,72.027 170.739,79.38 177.435,79.002 C184.131,78.624 185.787,74.925 185.787,74.925 C185.787,74.925 192.015,79.191 194.616,77.94 C197.217,76.689 196.47,59.472 191.763,52.686 Z" id="Path" fill="#FFFFFF" fill-rule="nonzero"></path>
                    <path d="M167.526,137.781 C167.526,137.781 165.141,134.577 155.826,128.151 C149.292,123.651 155.565,120.276 157.455,114.282 C161.235,102.285 161.775,95.085 161.775,95.085 C161.775,95.085 161.586,126.081 162.18,127.971 C162.774,129.861 167.526,137.781 167.526,137.781 Z" id="Path" fill="#00267C" fill-rule="nonzero"></path>
                    <path d="M202.995,106.839 C206.379,90.639 200.241,83.916 200.241,83.916 C200.241,83.916 200.547,96.426 199.485,102.915 C198.873,106.695 196.002,112.437 193.707,116.586 C198.679335,122.88709 204.092957,128.827036 209.907,134.361 C210.267,122.823 199.692,122.598 202.995,106.839 Z" id="Path" fill="#00267C" fill-rule="nonzero"></path>
                    <path d="M15.246,276.435 C15.246,276.435 3.303,275.535 1.656,277.83 C0.009,280.125 -1.341,313.344 6.894,319.23 C15.129,325.116 18.756,297.063 20.475,294.876 C18.2923314,293.093862 16.5931686,290.791172 15.534,288.18 C14.0692113,284.418793 13.9673186,280.26348 15.246,276.435 L15.246,276.435 Z" id="Path" fill="#00267C" fill-rule="nonzero"></path>
                    <path d="M63.756,204.993 C63.756,204.993 53.379,200.25 50.994,201.816 C48.609,203.382 35.604,229.311 40.725,237.267 C45.846,245.223 58.896,224.667 61.299,223.245" id="Path" fill="#00267C" fill-rule="nonzero"></path>
                    <path d="M185.499,232.335 C185.049,217.935 180.045,187.128 180.045,187.128 L157.32,164.403 C157.32,164.403 120.618,162.324 114.579,135.315 C102.834,161.775 99.486,216.225 97.56,232.11 C95.499,249.129 68.535,247.032 14.328,282.114 C14.3464038,283.839516 14.6317822,285.551786 15.174,287.19 C16.4861749,291.958117 20.3578266,295.589963 25.2,296.595 L27.783,297.072 C27.783,297.072 114.858,261.549 120.249,258.3 C125.64,255.051 129.249,247.14 129.249,247.14 C129.249,247.14 158.58,251.244 165.492,249.633 C172.404,248.022 185.949,246.726 185.499,232.335 Z" id="Path" fill="#FFFFFF" fill-rule="nonzero"></path>
                    <path d="M65.475,228.276 L88.614,233.946 L88.524,234 L90.324,233.046 L94.401,202.05 L94.446,197.829 C93.744,203.571 93.24,207.126 93.24,207.126 L65.952,204.768 C65.952,204.768 58.599,207.387 58.986,216.99 C59.373,226.593 65.475,228.276 65.475,228.276 Z" id="Path" fill="#FFFFFF" fill-rule="nonzero"></path>
                    <path d="M157.5,189.126 C157.5,189.126 150.363,200.826 151.434,217.926 C152.505,235.026 150.777,243.72 141.984,249.669 C141.984,249.669 134.082,248.103 129.303,247.176 L152.703,190.386 L157.5,189.126 Z" id="Path" fill="#00267C" fill-rule="nonzero"></path>
                    <path d="M132.156,129.6 C132.156,129.6 128.187,122.877 123.156,125.595 C118.125,128.313 115.497,135.495 118.224,143.352 L118.224,143.352 C118.224,143.352 110.385,134.676 114.921,121.545 C119.457,108.414 127.071,105.759 129.186,91.413 L129.186,91.413 L132.156,129.6" id="Path" fill="#00267C" fill-rule="nonzero"></path>
                    <path d="M206.73,71.703 C206.73,71.703 213.3,73.17 210.609,58.833 C207.918,44.496 210.006,36.9 213.867,28.8 C217.728,20.7 218.511,9.081 204.597,2.934 C190.017,-3.51 182.628,5.067 182.628,5.067 C182.628,5.067 174.375,2.997 172.179,14.607 C170.19,25.128 164.619,30.429 147.573,37.422 C131.733,43.92 135.819,53.343 140.607,56.709 C140.607,56.709 154.674,47.133 170.307,48.321 C170.307,48.321 181.161,46.683 181.215,31.428 L181.287,25.524 L183.627,23.724 L185.85,26.208 L187.497,28.512 L188.901,27.054 L190.701,23.697 L193.734,20.511 L201.186,23.211 L209.61,22.095 L205.569,41.985 L202.626,48.285 L199.233,49.617 L191.772,47.637 L190.674,50.949 L200.133,61.218" id="Path" fill="#00267C" fill-rule="nonzero"></path>
                    <path d="M216.261,17.658 C215.874,12.087 212.778,6.579 204.561,2.97 C189.981,-3.474 182.592,5.103 182.592,5.103 C182.592,5.103 174.339,3.033 172.143,14.643 C170.154,25.164 164.583,30.465 147.537,37.458 C145.07742,38.4109335 142.765403,39.7078448 140.67,41.31 C159.345,38.88 166.977,34.488 172.89,22.833 C179.271,10.233 182.358,9.693 185.643,9.333 C188.928,8.973 191.826,5.472 203.337,8.172 C210.294,9.774 214.2,15.156 216.261,17.658 Z" id="Path" fill="#FFFFFF" fill-rule="nonzero"></path>
                    <path d="M90.783,206.919 C90.783,206.919 88.776,221.085 78.597,231.489 L90,233.946 L93.249,207.126 L90.783,206.919 Z" id="Path" fill="#00267C" fill-rule="nonzero"></path>
                    <path d="M270.27,103.572 C270.27,103.572 279.828,98.586 287.847,98.019 C298.269,97.281 300.015,99.495 299.052,101.043 C298.323,102.204 289.53,102.609 289.53,102.609 L285.93,117.378 C285.93,117.378 285.885,118.791 276.228,119.592" id="Path" stroke="#254BAD" stroke-width="2.25" stroke-linecap="round" stroke-linejoin="round"></path>
                    <path d="M169.632,48.267 C169.632,48.267 152.532,45.837 140.697,58.293 C131.301,68.193 128.862,88.542 130.167,106.587 C131.472,124.632 131.148,133.587 137.304,144.099 C139.626,148.059 188.361,195.21 188.361,195.21 C188.361,195.21 200.205,197.442 203.373,184.059 C203.373,184.059 162.702,134.991 162.198,127.971 C161.694,120.951 162.882,107.271 162.657,85.356" id="Path" stroke="#254BAD" stroke-width="2.25" stroke-linecap="round" stroke-linejoin="round"></path>
                    <path d="M130.23,84.987 C130.23,84.987 129.168,95.931 116.577,117.981 C107.37,134.1 120.249,160.56 157.5,165.168" id="Path" stroke="#254BAD" stroke-width="2.25" stroke-linecap="round" stroke-linejoin="round"></path>
                    <path d="M209.601,22.131 C209.601,22.131 206.334,47.88 201.267,49.329 C196.2,50.778 191.763,47.709 191.763,47.709 L190.665,51.021 C190.665,51.021 194.706,68.238 186.948,72.711 C179.19,77.184 169.2,61.308 169.632,48.267 C169.632,48.267 177.831,48.501 180.63,35.883 C182.304,28.341 179.649,26.1 182.484,24.102 C185.004,22.302 186.039,27.936 187.497,28.602 C188.955,29.268 189.18,24.471 190.692,23.787 C192.204,23.103 193.392,22.662 193.725,20.601 C193.725,20.565 198.54,25.452 209.601,22.131 Z" id="Path" stroke="#254BAD" stroke-width="2.25" stroke-linecap="round" stroke-linejoin="round"></path>
                    <path d="M199.872,81.36 C202.095,94.977 199.791,104.922 196.605,110.295 C189.018,123.12 190.746,118.296 185.697,126.999 C179.001,138.537 178.164,152.199 178.164,152.199" id="Path" stroke="#254BAD" stroke-width="2.25" stroke-linecap="round" stroke-linejoin="round"></path>
                    <path d="M191.358,51.804 C191.358,51.804 203.373,59.004 229.158,113.661 C229.158,113.661 257.85,107.1 270.297,103.572 C270.297,103.572 263.709,113.625 276.291,119.592 C276.291,119.592 232.56,141.885 221.976,141.885 C211.392,141.885 193.626,116.928 193.626,116.928" id="Path" stroke="#254BAD" stroke-width="2.25" stroke-linecap="round" stroke-linejoin="round"></path>
                    <path d="M112.572,128.466 C112.572,128.466 99,141.561 97.443,166.86 C95.814,193.734 91.323,229.014 90.243,233.046 C90.243,233.046 35.757,262.458 17.991,273.393 C16.2909349,274.454497 15.1102634,276.176582 14.733,278.145 C13.3096547,284.412527 15.5208838,290.948865 20.457,295.065 C22.1888398,296.570478 24.6022763,297.01524 26.757,296.226 C42.885,290.565 115.677,263.709 123.057,256.293 C131.355,247.941 152.883,189.693 152.883,189.693 C152.883,189.693 157.383,189.522 159.66,188.334" id="Path" stroke="#254BAD" stroke-width="2.25" stroke-linecap="round" stroke-linejoin="round"></path>
                    <path d="M178.884,185.859 C178.884,185.859 190.035,227.097 183.735,239.967 C175.428,256.941 129.276,247.167 129.276,247.167" id="Path" stroke="#254BAD" stroke-width="2.25" stroke-linecap="round" stroke-linejoin="round"></path>
                    <path d="M89.406,233.946 L64.35,228.006 C61.8013926,227.394609 59.8576037,225.330658 59.4,222.75 C57.987,215.55 59.985,210.474 61.893,207.513 C63.1585935,205.529058 65.4393972,204.433993 67.779,204.687 L93.789,207.189" id="Path" stroke="#254BAD" stroke-width="2.25" stroke-linecap="round" stroke-linejoin="round"></path>
                    <path d="M15.246,276.435 C15.246,276.435 3.303,275.535 1.656,277.83 C0.009,280.125 -1.341,313.344 6.894,319.23 C15.129,325.116 18.756,297.063 20.475,294.876" id="Path" stroke="#254BAD" stroke-width="2.25" stroke-linecap="round" stroke-linejoin="round"></path>
                    <path d="M50.994,201.816 C48.6,203.391 35.604,229.311 40.725,237.267 C45.846,245.223 57.456,226.08 59.85,224.667 C57.6722115,217.87133 59.1482898,210.43312 63.756,204.984 C57.087,200.7 52.317,200.952 50.994,201.816 Z" id="Path" stroke="#254BAD" stroke-width="2.25" stroke-linecap="round" stroke-linejoin="round"></path>
                    <path d="M207.693,71.703 C207.693,71.703 213.3,73.17 210.609,58.833 C207.918,44.496 210.006,36.9 213.867,28.8 C217.728,20.7 218.511,9.081 204.597,2.934 C190.017,-3.51 182.628,5.067 182.628,5.067 C182.628,5.067 174.375,2.997 172.179,14.607 C170.19,25.128 164.619,30.429 147.573,37.422 C131.733,43.92 135.819,53.343 140.607,56.709" id="Path" stroke="#254BAD" stroke-width="2.25" stroke-linecap="round" stroke-linejoin="round"></path>
                    <path d="M166.779,48.357 C166.779,48.357 164.556,66.222 169.119,73.98 C174.33,82.836 184.509,79.623 185.193,73.476 C185.193,73.476 192.276,82.656 195.561,75.654 C198.171,70.083 193.32,54.567 193.32,54.567" id="Path" stroke="#254BAD" stroke-width="2.25" stroke-linecap="round" stroke-linejoin="round"></path>
                    <path d="M120.249,151.848 C120.249,151.848 116.226,156.087 114.93,174.573 C113.634,193.059 106.29,233.91 104.13,236.817 C101.97,239.724 105.102,240.912 101.997,242.847 C98.892,244.782 99.297,241.092 98.892,244.773 C98.487,248.454 34.092,275.058 14.877,286.173" id="Path" stroke="#254BAD" stroke-width="2.25" stroke-linecap="round" stroke-linejoin="round"></path>
                    <path d="M131.319,161.775 C131.319,161.775 128.52,180.225 125.343,183.375 C122.166,186.525 115.074,184.338 115.074,184.338" id="Path" stroke="#254BAD" stroke-width="2.25" stroke-linecap="round" stroke-linejoin="round"></path>
                </g>
            </g>
        </g>
    </g>
</svg>