<?xml version="1.0" encoding="UTF-8"?>
<svg width="105px" height="80px" viewBox="0 0 105 80" version="1.1" xmlns="http://www.w3.org/2000/svg" xmlns:xlink="http://www.w3.org/1999/xlink">
    <!-- Generator: Sketch 55 (78076) - https://sketchapp.com -->
    <title>ui ux</title>
    <desc>Created with Sketch.</desc>
    <defs>
        <linearGradient x1="69.0079541%" y1="92.0623381%" x2="8.00795413%" y2="13.0623381%" id="linearGradient-1">
            <stop stop-color="#F8C44D" stop-opacity="0" offset="0%"></stop>
            <stop stop-color="#F8C44D" stop-opacity="0.06" offset="5%"></stop>
            <stop stop-color="#F8C44D" stop-opacity="0.39" offset="32%"></stop>
            <stop stop-color="#F8C44D" stop-opacity="0.65" offset="56%"></stop>
            <stop stop-color="#F8C44D" stop-opacity="0.84" offset="76%"></stop>
            <stop stop-color="#F8C44D" stop-opacity="0.96" offset="91%"></stop>
            <stop stop-color="#F8C44D" offset="100%"></stop>
        </linearGradient>
        <linearGradient x1="1.9109925e-15%" y1="50.0071093%" x2="99.9734566%" y2="50.0071093%" id="linearGradient-2">
            <stop stop-color="#2045AB" offset="0%"></stop>
            <stop stop-color="#254BAD" offset="100%"></stop>
        </linearGradient>
    </defs>
    <g id="ui-ux" stroke="none" stroke-width="1" fill="none" fill-rule="evenodd">
        <g id="ui-ux-design-biru-copy" transform="translate(1.500000, 0.000000)" fill-rule="nonzero">
            <circle id="Oval" fill="url(#linearGradient-1)" transform="translate(28.676798, 29.317479) rotate(-2.800000) translate(-28.676798, -29.317479) " cx="28.6767978" cy="29.3174789" r="27.03"></circle>
            <path d="M60.93,69.05 L56.52,69.05 C55.9677153,69.05 55.52,69.4977153 55.52,70.05 C55.52,70.6022847 55.9677153,71.05 56.52,71.05 L60.93,71.05 C61.4822847,71.05 61.93,70.6022847 61.93,70.05 C61.93,69.4977153 61.4822847,69.05 60.93,69.05 L60.93,69.05 Z M60.4,49.93 C60.9522847,49.93 61.4,49.4822847 61.4,48.93 C61.4,48.3777153 60.9522847,47.93 60.4,47.93 L56,47.93 C55.4477153,47.93 55,48.3777153 55,48.93 C55,49.4822847 55.4477153,49.93 56,49.93 L60.4,49.93 Z M69.23,49.93 C69.7822847,49.93 70.23,49.4822847 70.23,48.93 C70.23,48.3777153 69.7822847,47.93 69.23,47.93 L64.81,47.93 C64.2577153,47.93 63.81,48.3777153 63.81,48.93 C63.81,49.4822847 64.2577153,49.93 64.81,49.93 L69.23,49.93 Z M19.36,9.67 L10.65,9.67 C9.40574348,9.67550561 8.39998782,10.6857313 8.4,11.93 L8.4,63.68 C8.39998782,64.9242687 9.40574348,65.9344944 10.65,65.94 L19.36,65.94 C20.605888,65.9345235 21.6145235,64.925888 21.62,63.68 L21.62,11.93 C21.6145235,10.684112 20.605888,9.67547651 19.36,9.67 L19.36,9.67 Z M19.62,14.38 L17.12,14.38 C16.5677153,14.38 16.12,14.8277153 16.12,15.38 C16.12,15.9322847 16.5677153,16.38 17.12,16.38 L19.62,16.38 L19.62,20.56 L17.12,20.56 C16.5677153,20.56 16.12,21.0077153 16.12,21.56 C16.12,22.1122847 16.5677153,22.56 17.12,22.56 L19.62,22.56 L19.62,26.74 L15,26.74 C14.4477153,26.74 14,27.1877153 14,27.74 C14,28.2922847 14.4477153,28.74 15,28.74 L19.6,28.74 L19.6,32.91 L17.1,32.91 C16.5477153,32.91 16.1,33.3577153 16.1,33.91 C16.1,34.4622847 16.5477153,34.91 17.1,34.91 L19.6,34.91 L19.6,39.09 L17.1,39.09 C16.5477153,39.09 16.1,39.5377153 16.1,40.09 C16.1,40.6422847 16.5477153,41.09 17.1,41.09 L19.6,41.09 L19.6,45.27 L15,45.27 C14.4477153,45.27 14,45.7177153 14,46.27 C14,46.8222847 14.4477153,47.27 15,47.27 L19.6,47.27 L19.6,51.45 L17.1,51.45 C16.5477153,51.45 16.1,51.8977153 16.1,52.45 C16.1,53.0022847 16.5477153,53.45 17.1,53.45 L19.6,53.45 L19.6,57.63 L17.1,57.63 C16.5477153,57.63 16.1,58.0777153 16.1,58.63 C16.1,59.1822847 16.5477153,59.63 17.1,59.63 L19.6,59.63 L19.6,63.63 C19.6,63.773594 19.483594,63.89 19.34,63.89 L10.65,63.89 C10.5103256,63.884624 10.3998966,63.7697777 10.4,63.63 L10.4,11.93 C10.3998966,11.7902223 10.5103256,11.675376 10.65,11.67 L19.36,11.67 C19.503594,11.67 19.62,11.786406 19.62,11.93 L19.62,14.38 Z M51.46,69.05 L49.91,69.05 L49.91,67.53 C49.91,66.9777153 49.4622847,66.53 48.91,66.53 C48.3577153,66.53 47.91,66.9777153 47.91,67.53 L47.91,70.05 C47.91,70.6022847 48.3577153,71.05 48.91,71.05 L51.46,71.05 C52.0122847,71.05 52.46,70.6022847 52.46,70.05 C52.46,69.4977153 52.0122847,69.05 51.46,69.05 L51.46,69.05 Z M51.46,47.93 L48.91,47.93 C48.3577153,47.93 47.91,48.3777153 47.91,48.93 L47.91,51.45 C47.91,52.0022847 48.3577153,52.45 48.91,52.45 C49.4622847,52.45 49.91,52.0022847 49.91,51.45 L49.91,49.93 L51.46,49.93 C52.0122847,49.93 52.46,49.4822847 52.46,48.93 C52.46,48.3777153 52.0122847,47.93 51.46,47.93 L51.46,47.93 Z M48.91,63.17 C49.4622847,63.17 49.91,62.7222847 49.91,62.17 L49.91,56.87 C49.91,56.3177153 49.4622847,55.87 48.91,55.87 C48.3577153,55.87 47.91,56.3177153 47.91,56.87 L47.91,62.17 C47.91,62.7222847 48.3577153,63.17 48.91,63.17 Z M33.33,44.17 L70.22,44.17 C71.2362039,44.17 72.06,43.3462039 72.06,42.33 L72.06,31.7 C72.06,30.6837961 71.2362039,29.86 70.22,29.86 L33.33,29.86 C32.8420017,29.86 32.3739905,30.0538566 32.0289235,30.3989235 C31.6838566,30.7439905 31.49,31.2120017 31.49,31.7 L31.49,42.37 C31.49,42.8579983 31.6838566,43.3260095 32.0289235,43.6710765 C32.3739905,44.0161434 32.8420017,44.21 33.33,44.21 L33.33,44.17 Z M33.49,31.82 L70.06,31.82 L70.06,42.21 L33.49,42.21 L33.49,31.82 Z M85.66,47.93 L83.11,47.93 C82.5577153,47.93 82.11,48.3777153 82.11,48.93 C82.11,49.4822847 82.5577153,49.93 83.11,49.93 L84.66,49.93 L84.66,51.45 C84.66,52.0022847 85.1077153,52.45 85.66,52.45 C86.2122847,52.45 86.66,52.0022847 86.66,51.45 L86.66,48.93 C86.66,48.3777153 86.2122847,47.93 85.66,47.93 Z M85.66,55.81 C85.1077153,55.81 84.66,56.2577153 84.66,56.81 L84.66,62.12 C84.66,62.6722847 85.1077153,63.12 85.66,63.12 C86.2122847,63.12 86.66,62.6722847 86.66,62.12 L86.66,56.81 C86.66,56.2577153 86.2122847,55.81 85.66,55.81 Z M100.9,69.92 L90.46,62.74 C90.1530173,62.5270173 89.7529074,62.5029347 89.4225947,62.6775586 C89.092282,62.8521825 88.8868691,63.1963823 88.89,63.57 L88.89,76.24 C88.8914496,76.5874864 89.0731844,76.9093085 89.37,77.09 C89.6794011,77.2686328 90.0605989,77.2686328 90.37,77.09 L92.85,75.78 L94.62,79.15 C94.8834217,79.670423 95.4167077,79.9988962 96,80 C96.2477497,79.9983706 96.4913979,79.9366007 96.71,79.82 L99.47,78.37 C100.21025,77.9684388 100.494432,77.0492888 100.11,76.3 L98.34,72.94 L100.82,71.63 C101.130284,71.4668784 101.332498,71.1531945 101.352963,70.8032434 C101.373428,70.4532923 101.209155,70.1181765 100.92,69.92 L100.9,69.92 Z M96.5,71.63 C96.259986,71.7533108 96.0799921,71.9683849 96.0009014,72.2263712 C95.9218107,72.4843576 95.9503366,72.7633574 96.08,73 L98.08,76.84 L96.15,77.84 L94.15,74 C94.0262722,73.7647448 93.8139734,73.5884288 93.56,73.51 C93.4665996,73.478048 93.3687077,73.4611701 93.27,73.46 C93.1058591,73.4608202 92.9444437,73.5020326 92.8,73.58 L90.9,74.58 L90.9,65.47 L98.41,70.63 L96.5,71.63 Z M85.66,66.53 C85.1077153,66.53 84.66,66.9777153 84.66,67.53 L84.66,69.05 L83.11,69.05 C82.5577153,69.05 82.11,69.4977153 82.11,70.05 C82.11,70.6022847 82.5577153,71.05 83.11,71.05 L85.66,71.05 C86.2122847,71.05 86.66,70.6022847 86.66,70.05 L86.66,67.53 C86.66,66.9777153 86.2122847,66.53 85.66,66.53 Z M69.76,69.05 L65.34,69.05 C64.7877153,69.05 64.34,69.4977153 64.34,70.05 C64.34,70.6022847 64.7877153,71.05 65.34,71.05 L69.76,71.05 C70.3122847,71.05 70.76,70.6022847 70.76,70.05 C70.76,69.4977153 70.3122847,69.05 69.76,69.05 L69.76,69.05 Z M33.33,63.16 L42.33,63.16 C43.3439312,63.1545339 44.1645339,62.3339312 44.17,61.32 L44.17,52.32 C44.1645339,51.3060688 43.3439312,50.4854661 42.33,50.48 L33.33,50.48 C32.8420017,50.48 32.3739905,50.6738566 32.0289235,51.0189235 C31.6838566,51.3639905 31.49,51.8320017 31.49,52.32 L31.49,61.32 C31.49,61.8079983 31.6838566,62.2760095 32.0289235,62.6210765 C32.3739905,62.9661434 32.8420017,63.16 33.33,63.16 Z M33.49,52.45 L42.19,52.45 L42.19,61.16 L33.49,61.16 L33.49,52.45 Z M78.59,69.05 L77.48,69.05 L77.48,49.93 L78.06,49.93 C78.6122847,49.93 79.06,49.4822847 79.06,48.93 C79.06,48.3777153 78.6122847,47.93 78.06,47.93 L77.48,47.93 L77.48,20.6 C77.4800103,19.1237733 76.2862164,17.9255083 74.81,17.92 L28.61,17.92 C27.1298769,17.92 25.93,19.1198769 25.93,20.6 L25.93,76.85 C25.93,77.5607802 26.2123563,78.2424487 26.7149538,78.7450462 C27.2175513,79.2476437 27.8992198,79.53 28.61,79.53 L74.81,79.53 C76.2862164,79.5244917 77.4800103,78.3262267 77.48,76.85 L77.48,71.05 L78.59,71.05 C79.1422847,71.05 79.59,70.6022847 79.59,70.05 C79.59,69.4977153 79.1422847,69.05 78.59,69.05 Z M75.48,47.93 L73.64,47.93 C73.0877153,47.93 72.64,48.3777153 72.64,48.93 C72.64,49.4822847 73.0877153,49.93 73.64,49.93 L75.48,49.93 L75.48,69.05 L74.17,69.05 C73.6177153,69.05 73.17,69.4977153 73.17,70.05 C73.17,70.6022847 73.6177153,71.05 74.17,71.05 L75.48,71.05 L75.48,76.85 C75.4800402,77.2216828 75.1816426,77.5245341 74.81,77.53 L28.61,77.53 C28.2366942,77.5246279 27.9353721,77.2233058 27.93,76.85 L27.93,26.1 L75.48,26.1 L75.48,47.93 Z M75.4800747,24.1 L27.93,24.1 L27.93,20.6 C27.93,20.2244464 28.2344464,19.92 28.61,19.92 L74.81,19.92 C74.9894413,19.91998 75.1613916,19.9919402 75.2873324,20.1197607 C75.4132733,20.2475812 75.4826782,20.4205787 75.48,20.6 L75.4800747,24.1 Z" id="Shape" fill="url(#linearGradient-2)"></path>
        </g>
    </g>
</svg>