<?xml version="1.0" encoding="UTF-8"?>
<svg width="466px" height="437px" viewBox="0 0 466 437" version="1.1" xmlns="http://www.w3.org/2000/svg" xmlns:xlink="http://www.w3.org/1999/xlink">
    <!-- Generator: Sketch 55 (78076) - https://sketchapp.com -->
    <title>Artboard 4 copy</title>
    <desc>Created with Sketch.</desc>
    <defs>
        <linearGradient x1="14.6463479%" y1="85.3526205%" x2="85.3555668%" y2="14.6434016%" id="linearGradient-1">
            <stop stop-color="#F4F8FF" offset="0%"></stop>
            <stop stop-color="#FFFCF6" offset="29%"></stop>
            <stop stop-color="#FCE6B3" offset="53%"></stop>
            <stop stop-color="#FAD37A" offset="80%"></stop>
            <stop stop-color="#F8C44D" offset="100%"></stop>
        </linearGradient>
    </defs>
    <g id="Page-1" stroke="none" stroke-width="1" fill="none" fill-rule="evenodd">
        <g id="service-details" transform="translate(-205.000000, -1058.000000)">
            <g id="Artboard-4-copy" transform="translate(143.900000, 968.000000)">
                <circle id="Oval" fill="url(#linearGradient-1)" fill-rule="nonzero" transform="translate(308.451508, 308.456007) rotate(-45.000000) translate(-308.451508, -308.456007) " cx="308.451508" cy="308.456007" r="218.061"></circle>
                <path d="M418.212,281.799 L292.131,281.799 C290.637,281.799 289.971,280.701 290.655,279.351 L298.296,264.222 C299.110182,262.791971 300.594919,261.873333 302.238,261.783 L428.319,261.783 C429.813,261.783 430.47,262.872 429.786,264.222 L422.154,279.351 C421.34079,280.783298 419.856377,281.705125 418.212,281.799 Z" id="Path" fill="#FFFFFF" fill-rule="nonzero"></path>
                <path d="M320.4,405.351 L265.23,405.351 C263.736,405.351 263.07,404.262 263.754,402.912 L271.395,387.783 C272.20821,386.350702 273.692623,385.428875 275.337,385.335 L330.507,385.335 C332.001,385.335 332.658,386.433 331.974,387.783 L324.333,402.912 C323.524256,404.34303 322.041373,405.262622 320.4,405.351 L320.4,405.351 Z" id="Path" fill="#FFFFFF" fill-rule="nonzero"></path>
                <path d="M301.338,374.148 L245.538,374.148 C244.044,374.148 243.387,373.05 244.062,371.7 L273.69,313.038 C274.50321,311.605702 275.987623,310.683875 277.632,310.59 L333.477,310.59 C334.971,310.59 335.628,311.688 334.953,313.038 L305.28,371.7 C304.46679,373.132298 302.982377,374.054125 301.338,374.148 Z" id="Path" fill="#F8C44D" fill-rule="nonzero"></path>
                <path d="M371.574,374.148 L315.729,374.148 C314.235,374.148 313.578,373.05 314.262,371.7 L343.89,313.038 C344.697773,311.604708 346.180327,310.681928 347.823,310.59 L403.623,310.59 C405.117,310.59 405.783,311.688 405.099,313.038 L375.516,371.7 C374.70279,373.132298 373.218377,374.054125 371.574,374.148 Z" id="Path" fill="#F8C44D" fill-rule="nonzero"></path>
                <path d="M344.628,220.5 L323.1,220.5 C321.606,220.5 320.949,219.402 321.633,218.052 L331.443,198.612 C332.257182,197.181971 333.741919,196.263333 335.385,196.173 L356.904,196.173 C358.407,196.173 359.064,197.262 358.38,198.612 L348.561,218.052 C347.753227,219.485292 346.270673,220.408072 344.628,220.5 Z" id="Path" fill="#F8C44D" fill-rule="nonzero"></path>
                <path d="M401.661,207.279 L367.119,207.279 C365.625,207.279 364.959,206.19 365.643,204.84 L365.643,204.84 C366.45621,203.407702 367.940623,202.485875 369.585,202.392 L404.1,202.392 C405.603,202.392 406.26,203.49 405.576,204.84 L405.576,204.84 C404.766947,206.262288 403.294284,207.17974 401.661,207.279 L401.661,207.279 Z" id="Path" fill="#F8C44D" fill-rule="nonzero"></path>
                <path d="M432.279,216.162 L362.637,216.162 C361.143,216.162 360.477,215.064 361.161,213.714 L361.161,213.714 C361.975182,212.283971 363.459919,211.365333 365.103,211.275 L434.745,211.275 C436.248,211.275 436.905,212.364 436.221,213.714 L436.221,213.714 C435.40779,215.146298 433.923377,216.068125 432.279,216.162 L432.279,216.162 Z" id="Path" fill="#F8C44D" fill-rule="nonzero"></path>
                <path d="M328.671,252.054 L307.143,252.054 C305.649,252.054 304.992,250.965 305.676,249.615 L315.495,230.175 C316.302773,228.741708 317.785327,227.818928 319.428,227.727 L340.956,227.727 C342.45,227.727 343.107,228.825 342.423,230.175 L332.613,249.615 C331.798818,251.045029 330.314081,251.963667 328.671,252.054 L328.671,252.054 Z" id="Path" fill="#F8C44D" fill-rule="nonzero"></path>
                <path d="M385.704,238.878 L351.162,238.878 C349.668,238.878 349.011,237.78 349.686,236.43 L349.686,236.43 C350.500182,234.999971 351.984919,234.081333 353.628,233.991 L388.179,233.991 C389.673,233.991 390.33,235.08 389.646,236.43 L389.646,236.43 C388.835278,237.864688 387.349416,238.787415 385.704,238.878 L385.704,238.878 Z" id="Path" fill="#F8C44D" fill-rule="nonzero"></path>
                <path d="M312.543,299.403 L283.239,299.403 C281.745,299.403 281.088,298.305 281.763,296.955 L281.763,296.955 C282.577182,295.524971 284.061919,294.606333 285.705,294.516 L315,294.516 C316.494,294.516 317.151,295.605 316.476,296.955 L316.476,296.955 C315.664497,298.384716 314.184111,299.306147 312.543,299.403 Z" id="Path" fill="#00267C" fill-rule="nonzero"></path>
                <path d="M360.252,299.403 L330.948,299.403 C329.454,299.403 328.788,298.305 329.472,296.955 L329.472,296.955 C330.286182,295.524971 331.770919,294.606333 333.414,294.516 L362.7,294.516 C364.194,294.516 364.851,295.605 364.167,296.955 L364.167,296.955 C363.362626,298.383116 361.888138,299.305095 360.252,299.403 Z" id="Path" fill="#F8C44D" fill-rule="nonzero"></path>
                <path d="M416.331,247.752 L346.68,247.752 C345.186,247.752 344.529,246.663 345.204,245.313 L345.204,245.313 C346.01721,243.880702 347.501623,242.958875 349.146,242.865 L418.797,242.865 C420.291,242.865 420.948,243.963 420.264,245.313 L420.264,245.313 C419.455256,246.74403 417.972373,247.663622 416.331,247.752 L416.331,247.752 Z" id="Path" fill="#F8C44D" fill-rule="nonzero"></path>
                <path d="M491.04,186.03 L491.04,186.03 L485.325,173.7 C486.489049,176.349913 486.403167,179.382219 485.091,181.962 L371.772,407.745 C367.956901,415.366966 360.162457,420.178825 351.639,420.174 L224.37,420.174 C220.981105,420.187143 217.83002,418.434267 216.054,415.548 L216.054,415.548 C216.054,415.548 221.652,427.968 222.471,429.048 L222.471,429.048 L222.471,429.048 C224.311326,431.466422 227.181033,432.879611 230.22,432.864 L357.516,432.864 C366.037455,432.87053 373.83139,428.06247 377.649,420.444 L490.968,194.661 C492.349326,191.955741 492.376002,188.757927 491.04,186.03 Z" id="Path" fill="#00267C" fill-rule="nonzero"></path>
                <path d="M485.037,173.025 L485.037,173.025 C485.08128,173.090879 485.120397,173.160086 485.154,173.232 L485.037,173.025 Z" id="Path" fill="#00267C" fill-rule="nonzero"></path>
                <path d="M485.037,173.025 L485.037,173.025 C485.08128,173.090879 485.120397,173.160086 485.154,173.232 L485.037,173.025 Z" id="Path" fill="#FFFFFF" fill-rule="nonzero"></path>
                <path d="M218.493,420.174 L224.37,420.174 C220.981105,420.187143 217.83002,418.434267 216.054,415.548 L216.054,415.548 C216.054,415.548 216.954,417.627 218.151,420.147 C218.268,420.156 218.376,420.174 218.493,420.174 Z" id="Path" fill="#FFFFFF" fill-rule="nonzero"></path>
                <path d="M491.04,186.03 L491.04,186.03 L485.325,173.7 C486.489049,176.349913 486.403167,179.382219 485.091,181.962 L484.191,183.852 L485.217,186.066 L485.217,186.066 C486.553002,188.793927 486.526326,191.991741 485.145,194.697 L371.772,420.48 C367.95439,428.09847 360.160455,432.90653 351.639,432.900007 L357.516,432.9 C366.037455,432.90653 373.83139,428.09847 377.649,420.48 L490.968,194.661 C492.349326,191.955741 492.376002,188.757927 491.04,186.03 Z" id="Path" fill="#FFFFFF" fill-rule="nonzero"></path>
                <path d="M378,167.742 L373.122,175.842 C372.396924,177.037419 372.373002,178.530982 373.059425,179.749008 C373.745847,180.967034 375.035872,181.720118 376.434,181.719 L434.25,181.719 C438.488733,181.724921 442.418906,179.503518 444.6,175.869 L449.505,167.769" id="Path" fill="#00267C" fill-rule="nonzero"></path>
                <path d="M476.343,167.742 L349.074,167.742 C340.552545,167.73547 332.75861,172.54353 328.941,180.162 L215.622,405.981 C214.094694,409.016613 214.250426,412.627034 216.033448,415.519859 C217.816471,418.412685 220.971823,420.174259 224.37,420.174 L351.639,420.174 C360.159474,420.168314 367.948842,415.35959 371.772,407.745 L485.1,181.926 C486.623736,178.889708 486.464859,175.280601 484.680211,172.389948 C482.895563,169.499295 479.740181,167.740188 476.343,167.742 Z" id="Path" stroke="#254BAD" stroke-width="2.25" stroke-linecap="round" stroke-linejoin="round"></path>
                <path d="M216.054,415.548 C216.054,415.548 221.652,427.968 222.471,429.048 L222.471,429.048 L222.471,429.048 C224.311326,431.466422 227.181033,432.879611 230.22,432.864 L357.516,432.864 C366.037455,432.87053 373.83139,428.06247 377.649,420.444 L490.968,194.661 C492.349326,191.955741 492.376002,188.757927 491.04,186.03 L491.04,186.03 L485.028,173.025" id="Path" stroke="#254BAD" stroke-width="2.25" stroke-linecap="round" stroke-linejoin="round"></path>
                <path d="M378,167.742 L373.122,175.842 C372.396924,177.037419 372.373002,178.530982 373.059425,179.749008 C373.745847,180.967034 375.035872,181.720118 376.434,181.719 L434.25,181.719 C438.488733,181.724921 442.418906,179.503518 444.6,175.869 L449.505,167.769" id="Path" stroke="#254BAD" stroke-width="2.25" stroke-linecap="round" stroke-linejoin="round"></path>
                <path d="M165.051,277.794 C165.051,277.794 153.243,291.294 151.848,293.148 C150.453,295.002 150.291,298.71 151.002,304.848 C151.713,310.986 157.644,329.976 177.291,333.702 C196.938,337.428 210.357,337.302 214.272,334.494 L221.472,324.036 C221.472,324.036 227.106,339.12 230.958,343.953 C234.81,348.786 274.806,392.049 278.532,394.488 C282.258,396.927 295.632,394.65 294.849,388.323 C294.066,381.996 258.003,324.216 258.003,324.216 L246.744,275.292 L248.877,266.211 C248.877,266.211 304.848,248.769 323.361,243.882 C341.874,238.995 362.151,233.523 362.151,233.523 C362.151,233.523 369.351,221.319 360.63,216.504 C360.63,216.504 286.281,220.86 272.43,225.216 C272.43,225.216 272.169,245.862 263.637,247.608 C255.105,249.354 255.267,247.608 255.267,247.608 L242.838,262.116 L237.285,248.058 L238.635,245.844 C231.743513,241.975198 223.254409,242.348384 216.729,246.807 C205.218,254.385 185.121,272.007 184.554,272.484 C183.987,272.961 175.419,283.401 165.051,277.794 Z" id="Path" fill="#F8C44D" fill-rule="nonzero"></path>
                <path d="M289.674,377.316 L275.274,377.316 L275.274,352.422 C274.563,351.243 273.87,350.082 273.168,348.93 L273.168,377.316 L261.504,377.316 L263.493,379.413 L273.132,379.413 L273.132,389.421 C273.897,390.195 274.599,390.897 275.238,391.518 L275.238,379.413 L290.808,379.413 C290.448,378.738 290.07,378 289.674,377.316 Z" id="Path" fill="#FFFFFF" fill-rule="nonzero"></path>
                <path d="M240.75,354.969 L240.75,344.925 L270.711,344.925 L269.433,342.819 L240.75,342.819 L240.75,310.419 L254.826,310.419 L254.34,308.313 L240.75,308.313 L240.75,275.913 L246.888,275.913 L246.744,275.301 L247.095,273.807 L240.75,273.807 L240.75,256.707 L238.644,251.388 L238.644,273.78 L206.244,273.78 L206.244,254.538 L204.147,256.194 L204.147,273.843 L183.294,273.843 C182.513673,274.595868 181.687062,275.299239 180.819,275.949 L204.156,275.949 L204.156,308.349 L171.756,308.349 L171.756,279.459 C171.055466,279.48381 170.354081,279.450697 169.659,279.36 L169.659,308.349 L151.659,308.349 C151.83,309.015 152.028,309.717 152.271,310.455 L169.65,310.455 L169.65,331.299 C170.325,331.614 171.027,331.92 171.747,332.199 L171.747,310.437 L204.147,310.437 L204.147,336.537 C204.876,336.537 205.578,336.483 206.244,336.438 L206.244,310.437 L238.644,310.437 L238.644,342.837 L230.112,342.837 C230.4,343.278 230.688,343.674 230.958,344.016 C231.228,344.358 231.399,344.556 231.732,344.916 L238.644,344.916 L238.644,352.647 L240.75,354.969 Z M206.253,308.331 L206.253,275.931 L238.653,275.931 L238.653,308.331 L206.253,308.331 Z" id="Shape" fill="#FFFFFF" fill-rule="nonzero"></path>
                <path d="M309.726,247.77 L309.726,241.47 L332.685,241.47 L340.578,239.373 L309.726,239.373 L309.726,220.293 L307.62,220.482 L307.62,239.382 L275.22,239.382 L275.22,224.55 C274.437,224.721 273.726,224.892 273.114,225.063 L273.114,239.4 L270.324,239.4 C270.099,240.12 269.847,240.822 269.568,241.497 L273.114,241.497 L273.114,258.813 L275.22,258.174 L275.22,241.452 L307.62,241.452 L307.62,248.4 L309.726,247.77 Z" id="Path" fill="#FFFFFF" fill-rule="nonzero"></path>
                <polygon id="Path" fill="#FFFFFF" fill-rule="nonzero" points="344.214 217.611 342.117 217.755 342.117 238.941 344.214 238.383"></polygon>
                <polygon id="Path" fill="#FFFFFF" fill-rule="nonzero" points="238.644 245.88 238.644 245.943 238.644 245.889"></polygon>
                <path d="M249.354,283.203 L248.094,300.852 C247.905,303.552 247.419,306.72 245.331,307.755 C244.053,308.385 242.289,308.142 241.587,309.555 C240.813,311.13 242.19,312.948 243.459,313.983 C248.814,318.357 254.898,321.696 259.317,327.366 L249.354,283.203 Z" id="Path" fill="#00267C" fill-rule="nonzero"></path>
                <path d="M203.157,336.546 C205.989872,331.611934 206.948504,325.821797 205.857,320.238 C205.038,316.116 203.157,311.661 205.074,307.926 C205.65,306.801 206.541,305.856 207.009,304.686 C207.909,302.481 207.18,299.997 206.838,297.639 C206.220045,293.343623 206.942948,288.962199 208.908,285.093 C208.908,285.093 217.854,317.952 221.508,324.477 C221.508,324.477 215.541,333.945 213.696,334.971 C211.851,335.997 203.157,336.546 203.157,336.546 Z" id="Path" fill="#00267C" fill-rule="nonzero"></path>
                <path d="M290.808,393.831 C290.808,393.831 294.714,409.257 307.755,411.219 C309.222972,409.688286 310.108251,407.691633 310.257,405.576 L311.913,403.218 L303.948,398.898 L299.331,391.338 L295.587,388.719 L290.808,393.831 Z" id="Path" fill="#FFFFFF" fill-rule="nonzero"></path>
                <path d="M236.808,247.653 C236.808,247.653 243.801,254.358 258.003,324.261 C258.003,324.261 275.598,355.086 294.165,385.92 C295.246053,387.698444 295.064643,389.969701 293.715,391.554 C292.32,393.183 289.719,394.947 284.859,395.955 C282.206563,396.485325 279.465512,395.642705 277.569,393.714 C267.372,383.454 233.253,348.912 230.112,342.639 C226.431,335.268 216.945,318.006 208.512,282.762" id="Path" stroke="#254BAD" stroke-width="2.25" stroke-linecap="round" stroke-linejoin="round"></path>
                <path d="M184.5,384.399 L186.741,351.387 C188.9439,351.475901 191.147427,351.227018 193.275,350.649 C193.275,350.649 197.721,399.987 221.553,396.351 C225.058975,395.833969 227.923206,393.28445 228.843,389.862 C232.704,375.516 221.229,345.933 213.624,334.962 C203.578719,337.873652 192.966585,338.238628 182.745,336.024 C175.464,334.395 166.194,332.325 158.976,324.135 C155.896058,320.609994 153.598535,316.471999 152.235,311.994 C148.536,315.099 140.625,319.194 140.148,329.157 C138.789,357.39 140.292,381.861 136.728,389.799 L134.568,376.056 C129.609,374.364 98.388,363.663 87.417,359.667 C85.4155618,358.929048 83.1663025,359.531013 81.801,361.17 C79.578,363.87 76.968,368.856 77.787,377.163 C77.9233896,378.5389 78.623988,379.796719 79.722,380.637 C89.145,387.927 136.197,423.837 153.972,428.607 C173.772,433.908 183.591,416.331 184.365,384.264 L184.5,384.399 Z" id="Path" fill="#FFFFFF" fill-rule="nonzero"></path>
                <path d="M145.53,300.474 C145.53,300.474 145.422,351.9 210.888,335.7 C210.888,335.7 180.171,341.001 164.025,327.294 C147.879,313.587 150.525,297.081 150.525,297.081 L145.53,300.474 Z" id="Path" fill="#00267C" fill-rule="nonzero"></path>
                <path d="M221.472,324.081 C221.472,324.081 216.927,333.081 213.66,334.971 C210.393,336.861 149.76,344.871 150.525,297.081 C150.551467,295.410739 151.192261,293.808752 152.325,292.581 C155.817,288.801 163.197,280.935 164.619,277.803" id="Path" stroke="#254BAD" stroke-width="2.25" stroke-linecap="round" stroke-linejoin="round"></path>
                <path d="M260.352,246.861 C255.609296,247.045878 251.085258,244.859766 248.283,241.029 C248.283,241.029 245.997,243.621 247.815,247.653 C249.633,251.685 241.992,251.253 241.848,258.966 L242.874,262.161 C242.874,262.161 252.351,248.049 254.205,248.049 C256.285033,247.835105 258.342056,247.437555 260.352,246.861 L260.352,246.861 Z" id="Path" fill="#00267C" fill-rule="nonzero"></path>
                <path d="M242.874,262.161 C242.874,262.161 253.422,247.473 255.303,247.653 C255.303,247.653 267.201,250.848 270.405,241.218 C273.609,231.588 272.106,217.242 272.106,217.242 C272.106,217.242 269.631,221.58 264.645,221.382 C259.659,221.184 255.735,219.717 254.745,220.599 C253.755,221.481 256.113,228.24 253.764,229.023 C251.415,229.806 250.434,223.542 248.283,223.542 C246.132,223.542 242.055,225.99 244.044,229.563 C246.033,233.136 245.349,237.438 243.684,240.363 C242.019,243.288 237.384,248.526 237.384,248.526 C239.661283,252.877858 241.500325,257.445314 242.874,262.161 Z" id="Path" stroke="#254BAD" stroke-width="2.25" stroke-linecap="round" stroke-linejoin="round"></path>
                <path d="M254.943,193.338 C235.818,188.838 220.032,209.781 206.01,217.242 C191.988,224.703 154.71,211.842 142.533,239.742 C130.356,267.642 131.832,271.629 142.533,270.891 C153.234,270.153 164.673,280.116 173.529,280.116 C182.385,280.116 218.385,230.139 239.292,246.393 C240.900548,244.509226 242.371352,242.51206 243.693,240.417 C245.358,237.483 246.042,233.172 244.053,229.617 C242.064,226.062 246.141,223.596 248.292,223.596 C250.443,223.596 251.424,229.896 253.773,229.077 C256.122,228.258 253.773,221.535 254.754,220.653 C255.735,219.771 259.65,221.238 264.654,221.436 C269.658,221.634 272.115,217.296 272.115,217.296 C272.115,217.296 272.331,219.321 272.43,222.354 L272.475,222.354 C272.475,222.354 287.775,201.069 254.943,193.338 Z" id="Path" fill="#00267C" fill-rule="nonzero"></path>
                <path d="M271.638,203.301 C272.655,203.976 273.663,204.669 274.671,205.353 C272.385,200.682 266.805,196.128 254.943,193.338 C235.818,188.838 220.032,209.781 206.01,217.242 C192.186,224.604 155.808,212.283 143.1,238.545 C144,238.131 156.6,226.062 180.198,227.097 C187.893,227.439 195.777,227.817 203.157,225.639 C213.957,222.471 221.679,215.046 229.851,207.369 C238.023,199.692 246.258,194.895 257.319,196.722 C262.539,197.586 267.219,200.385 271.638,203.301 Z" id="Path" fill="#FFFFFF" fill-rule="nonzero"></path>
                <path d="M254.943,193.338 C235.818,188.838 220.032,209.781 206.01,217.242 C191.988,224.703 154.71,211.842 142.533,239.742 C130.356,267.642 131.832,271.629 142.533,270.891 C153.234,270.153 164.673,280.116 173.529,280.116 C182.385,280.116 218.385,230.139 239.292,246.393 C240.900548,244.509226 242.371352,242.51206 243.693,240.417 C245.358,237.483 246.042,233.172 244.053,229.617 C242.064,226.062 246.141,223.596 248.292,223.596 C250.443,223.596 251.424,229.896 253.773,229.077 C256.122,228.258 253.773,221.535 254.754,220.653 C255.735,219.771 259.65,221.238 264.654,221.436 C269.658,221.634 272.115,217.296 272.115,217.296 C272.115,217.296 272.331,219.321 272.43,222.354 L272.475,222.354 C272.475,222.354 287.775,201.069 254.943,193.338 Z" id="Path" stroke="#254BAD" stroke-width="2.25" stroke-linecap="round" stroke-linejoin="round"></path>
                <path d="M365.085,221.337 C365.085,221.337 384.831,221.13 389.259,228.276 C389.259,228.276 388.485,216.432 376.038,215.622 C363.591,214.812 363.024,216.837 363.024,216.837 L365.085,221.337 Z" id="Path" fill="#FFFFFF" fill-rule="nonzero"></path>
                <path d="M246.744,275.337 L248.877,266.256 C248.877,266.256 308.079,246.672 360,234.621 C361.857718,234.190373 363.359711,232.828021 363.969,231.021 C365.066679,227.906004 365.454127,224.585023 365.103,221.301 C364.755706,218.388132 362.199392,216.24998 359.271,216.423 C345.141,217.323 300.42,220.356 272.484,225.225" id="Path" stroke="#254BAD" stroke-width="2.25" stroke-linecap="round" stroke-linejoin="round"></path>
                <path d="M88.524,360 C94.192858,362.328536 99.0617433,366.256166 102.537,371.304 C103.404496,372.767843 104.433974,374.129411 105.606,375.363 C107.658,377.271 110.52,378.063 113.31,378.315 C116.1,378.567 118.926,378.468 121.689,378.9 C127.77751,379.982971 133.167505,383.486468 136.629,388.611 L134.874,376.2 L88.524,360 Z" id="Path" fill="#00267C" fill-rule="nonzero"></path>
                <path d="M192.006,351 C192.006,351 188.406,353.403 190.953,359.325 C194.274,367.155 190.584,370.881 192.456,378.477 C194.328,386.073 202.5,387.063 201.807,395.1 C201.807,395.1 188.406,388.35 184.77,384.615 L187.47,351.963" id="Path" fill="#00267C" fill-rule="nonzero"></path>
                <path d="M213.66,334.971 C223.416,349.038 239.553,393.768 221.472,397.611 C203.391,401.454 184.401,384.3 184.401,384.3 C183.627,416.367 173.808,433.944 154.008,428.643 C136.242,423.882 89.208,387.972 79.767,380.682 C78.663722,379.835898 77.9573828,378.572951 77.814,377.19 C77.004,368.883 79.614,363.879 81.837,361.206 C83.2067598,359.567866 85.457714,358.966411 87.462,359.703 C99.396,364.05 135.288,376.326 135.288,376.326 C135.288,374.805 131.472,335.619 132.489,322.146 C133.506,308.673 150.624,296.199 150.624,296.199" id="Path" stroke="#254BAD" stroke-width="2.25" stroke-linecap="round" stroke-linejoin="round"></path>
                <path d="M184.401,384.3 L186.777,351.414 C189.528973,351.619118 192.290215,351.165596 194.832,350.091" id="Path" stroke="#254BAD" stroke-width="2.25" stroke-linecap="round" stroke-linejoin="round"></path>
                <path d="M136.8,389.808 C136.044,382.734 135.324,376.308 135.324,376.308" id="Path" stroke="#254BAD" stroke-width="2.25" stroke-linecap="round" stroke-linejoin="round"></path>
                <path d="M83.7,359.784 C83.7,359.784 72.783,355.239 68.112,358.128 C63.441,361.017 62.604,372.168 63.297,383.031 C63.99,393.894 70.038,398.16 74.439,398.331 C78.84,398.502 79.524,392.823 79.389,388.701 C79.3217743,386.022385 79.4481029,383.342413 79.767,380.682 C79.767,380.682 77.967,380.061 77.571,375.435 C77.175,370.809 79.767,361.017 83.7,359.784 Z" id="Path" fill="#00267C" fill-rule="nonzero"></path>
                <path d="M83.7,359.784 C83.7,359.784 72.783,355.239 68.112,358.128 C63.441,361.017 62.604,372.168 63.297,383.031 C63.99,393.894 70.038,398.16 74.439,398.331 C78.84,398.502 79.524,392.823 79.389,388.701 C79.3217743,386.022385 79.4481029,383.342413 79.767,380.682 C79.767,380.682 77.967,380.061 77.571,375.435 C77.175,370.809 79.767,361.017 83.7,359.784 Z" id="Path" stroke="#254BAD" stroke-width="2.25" stroke-linecap="round" stroke-linejoin="round"></path>
                <path d="M155.538,328.617 C155.538,328.617 152.127,332.307 153.657,362.862 C155.187,393.417 155.943,398.286 153.657,399.672 C151.371,401.058 148.851,396.891 148.257,400.932 C147.663,404.973 147.591,405.594 141.228,403.263 C134.865,400.932 97.803,381.186 83.7,372.258" id="Path" stroke="#254BAD" stroke-width="2.25" stroke-linecap="round" stroke-linejoin="round"></path>
                <path d="M169.506,330.651 C169.506,330.651 162.09,355.671 153.657,353.034" id="Path" stroke="#254BAD" stroke-width="2.25" stroke-linecap="round" stroke-linejoin="round"></path>
                <path d="M294.867,387.513 C294.867,387.513 299.502,389.385 303.147,397.836 C303.401897,398.447579 303.872774,398.944081 304.47,399.231 C306.684,400.275 312.12,402.993 312.12,404.361 C312.12,406.071 304.713,405.315 300.591,403.668" id="Path" stroke="#254BAD" stroke-width="2.25" stroke-linecap="round" stroke-linejoin="round"></path>
                <path d="M280.224,395.487 C280.224,395.487 286.848,409.374 292.698,413.442 C294.696,414.837 308.763,412.371 309.969,409.518 C311.175,406.665 308.259,405.333 308.259,405.333" id="Path" stroke="#254BAD" stroke-width="2.25" stroke-linecap="round" stroke-linejoin="round"></path>
                <path d="M362.178,217.098 C362.178,217.098 373.482,213.273 380.862,217.098 C388.242,220.923 390.6,225.9 389.7,231.246 C388.8,236.592 386.271,235.053 385.83,232.821 C385.389,230.589 378.918,229.941 377.838,230.193 C376.758,230.445 379.422,234.216 379.422,234.216 L377.694,236.448 C377.694,236.448 369.729,237.663 363.294,232.281" id="Path" stroke="#254BAD" stroke-width="2.25" stroke-linecap="round" stroke-linejoin="round"></path>
                <path d="M382.986,230.805 L303.948,398.898" id="Path" stroke="#254BAD" stroke-width="2.25" stroke-linecap="round" stroke-linejoin="round"></path>
                <path d="M204.723,237.771 C204.723,237.771 202.365,238.545 191.394,238.545 C178.191,238.545 170.451,234.414 162.711,241.704 C154.971,248.994 170.001,240.804 181.377,241.704 C192.753,242.604 202.851,241.443 204.723,237.771 Z" id="Path" fill="#FFFFFF" fill-rule="nonzero"></path>
                <path d="M299.439,413.847 C299.439,413.847 309.339,436.347 294.867,434.106 C280.395,431.865 272.367,427.023 273.951,436.356 C275.535,445.689 269.451,445.05 265.257,445.05" id="Path" stroke="#254BAD" stroke-width="2.25" stroke-linecap="round" stroke-linejoin="round"></path>
            </g>
        </g>
    </g>
</svg>